<svg width="232" height="38" viewBox="0 0 232 38" fill="none" xmlns="http://www.w3.org/2000/svg">
<path fill-rule="evenodd" clip-rule="evenodd" d="M36.5108 13.0793C36.24 12.1676 35.7501 11.336 35.0839 10.6572C32.1089 7.34698 29.3763 6.09556 24.8533 8.19471H24.6245C23.7873 8.23009 22.9839 8.53472 22.3339 9.06327C21.6839 9.59181 21.2219 10.316 21.0168 11.1281C19.3476 15.932 17.5573 20.682 15.8073 25.4454C15.5515 25.7953 15.2958 26.1451 15.0265 26.4815C11.8227 28.8364 8.72665 31.0297 4.25749 29.1728C2.62867 28.5134 -0.0232079 28.7152 1.36331 32.0389C1.43791 32.483 1.67849 32.8822 2.03637 33.1558C2.45757 33.6096 2.95395 33.9874 3.50366 34.2726C9.73625 38.3094 16.5611 39.1975 23.1437 36.0219C30.6147 32.4291 36.0531 26.7507 36.605 17.8427C36.8644 16.2624 36.8325 14.6481 36.5108 13.0793Z" fill="#8C98A4"/>
<path fill-rule="evenodd" clip-rule="evenodd" d="M33.8455 8.38317C33.89 7.14152 34.0249 5.90477 34.2493 4.68274C34.6262 1.48019 32.9032 0.0942171 31.5571 0.0134805C30.9137 -0.022635 30.2699 0.0786922 29.6688 0.310714C29.0676 0.542736 28.5228 0.900128 28.0706 1.35909C27.8366 1.57095 27.6913 1.86338 27.6638 2.17779C27.6364 2.4922 27.7288 2.80536 27.9225 3.05456C28.5552 3.71391 29.1071 3.70045 29.4706 2.32793C30.0763 0.107673 32.6609 2.32793 32.5801 3.45824C32.4455 5.71886 30.8167 6.5666 29.3898 7.49507C27.9629 8.42354 26.5764 8.62538 24.2476 9.41929C24.1225 9.47778 24.0155 9.56892 23.938 9.68311C23.8604 9.7973 23.8151 9.9303 23.8068 10.0681C23.7985 10.2059 23.8276 10.3433 23.891 10.466C23.9543 10.5886 24.0496 10.6919 24.1668 10.7649C24.7599 10.8584 25.364 10.8584 25.9572 10.7649C27.8552 10.4554 28.434 11.0206 29.0263 12.891C30.1713 12.3367 31.4621 12.1578 32.7147 12.3796C33.9666 12.8371 33.9801 13.6041 34.4109 14.1424C34.4943 14.1712 34.5836 14.1791 34.6708 14.1653C34.7581 14.1515 34.8405 14.1164 34.911 14.0633C34.9815 14.0101 35.0378 13.9404 35.075 13.8603C35.1122 13.7803 35.1292 13.6923 35.1243 13.6041C34.216 12.0184 33.7728 10.209 33.8455 8.38317Z" fill="#ADBAC8"/>
<path fill-rule="evenodd" clip-rule="evenodd" d="M57.6584 27.6389C57.3036 27.7268 56.9441 27.7942 56.5815 27.8407C56.2408 27.8599 55.8992 27.8599 55.5584 27.8407C54.9377 27.8488 54.3211 27.7392 53.7412 27.5178C53.2339 27.297 52.7762 26.9767 52.395 26.5758C52.0022 26.1398 51.696 25.6329 51.4931 25.0822C51.2806 24.44 51.176 23.7671 51.1835 23.0907C51.1739 22.4284 51.2739 21.7692 51.4797 21.1396C51.6554 20.5841 51.9441 20.071 52.3277 19.6325C52.6995 19.2143 53.1592 18.8834 53.6739 18.6636C54.2615 18.4175 54.8946 18.2983 55.5315 18.3138C56.2346 18.3182 56.9347 18.4039 57.618 18.5695C58.3209 18.7342 59.0028 18.9779 59.6507 19.2961V15.7706C59.0457 15.5949 58.4296 15.4601 57.8065 15.3669C56.9728 15.2487 56.1312 15.1947 55.2892 15.2054C54.15 15.1877 53.0176 15.384 51.9508 15.784C50.9902 16.1412 50.1178 16.7011 49.393 17.4255C48.6683 18.15 48.1082 19.0221 47.7509 19.9823C47.3472 21.0528 47.1463 22.189 47.1586 23.3329C47.1413 24.4814 47.3235 25.6242 47.697 26.7104C48.0234 27.6312 48.5574 28.4645 49.2577 29.1459C49.958 29.8273 50.8058 30.3384 51.7354 30.6396C52.7947 30.9881 53.905 31.1564 55.02 31.1374C55.8318 31.15 56.643 31.0869 57.443 30.9491C58.218 30.8161 58.9763 30.5995 59.7045 30.3032V26.9795C59.384 27.1189 59.056 27.2402 58.7219 27.3428C58.3719 27.4505 58.0219 27.5581 57.6584 27.6389ZM76.2754 17.1297C75.64 16.4565 74.8565 15.9405 73.987 15.6226C72.9984 15.2689 71.9542 15.0957 70.9043 15.1112C69.8122 15.0959 68.7279 15.2972 67.714 15.7033C66.8085 16.0683 65.9948 16.6289 65.3314 17.345C64.6544 18.0867 64.1407 18.9623 63.8237 19.9151C63.4614 20.9898 63.2839 22.1181 63.2987 23.2522C63.2821 24.4283 63.4502 25.5998 63.7968 26.7238C64.0884 27.6521 64.5853 28.5029 65.2506 29.2132C65.8824 29.8906 66.667 30.4074 67.539 30.7203C68.5257 31.0618 69.5641 31.2303 70.6082 31.2182C71.7092 31.2346 72.8025 31.0333 73.8255 30.6261C74.7319 30.2502 75.5451 29.6807 76.2081 28.9576C76.8887 28.2058 77.4065 27.3217 77.7292 26.3605C78.0906 25.2902 78.2681 24.1664 78.2542 23.0369C78.2614 21.877 78.0842 20.7233 77.7292 19.619C77.4376 18.6907 76.9407 17.8399 76.2754 17.1297ZM74.1351 25.0553C74.0176 25.6045 73.8034 26.1285 73.5024 26.6027C73.2324 27.0395 72.8516 27.397 72.3986 27.6389C71.9016 27.9017 71.3452 28.0315 70.7832 28.0156C70.2689 28.0439 69.7554 27.9473 69.2865 27.7341C68.8177 27.5209 68.4075 27.1973 68.0909 26.7911C67.3722 25.7217 67.0312 24.4431 67.1217 23.158C67.1179 22.5244 67.1857 21.8925 67.3236 21.2741C67.4394 20.7264 67.6587 20.2057 67.9698 19.7401C68.2553 19.308 68.6379 18.9486 69.0871 18.6906C69.5997 18.431 70.1683 18.3016 70.7428 18.3138C71.2567 18.2781 71.7714 18.3699 72.2411 18.5812C72.7109 18.7925 73.121 19.1167 73.4351 19.5248C74.1126 20.6001 74.4286 21.8636 74.337 23.1311C74.3471 23.7782 74.2793 24.4243 74.1351 25.0553ZM86.3445 12.9448C86.5759 13.1686 86.8508 13.3427 87.1522 13.4561C87.7693 13.7067 88.4599 13.7067 89.0771 13.4561C89.3652 13.3339 89.6261 13.1555 89.8444 12.9314C90.0522 12.6924 90.208 12.4129 90.3021 12.1105C90.4261 11.8143 90.49 11.4964 90.49 11.1753C90.49 10.8542 90.4261 10.5363 90.3021 10.2401C90.1928 9.97325 90.0379 9.72739 89.8444 9.51351C89.6225 9.29365 89.3625 9.11585 89.0771 8.98872C88.4599 8.73814 87.7693 8.73814 87.1522 8.98872C86.8668 9.11585 86.6068 9.29365 86.3849 9.51351C86.1631 9.73625 85.9891 10.0018 85.8733 10.294C85.6158 10.8678 85.5917 11.5192 85.806 12.1105C85.9194 12.4222 86.1038 12.7032 86.3445 12.9314V12.9448ZM90.181 15.4611H82.1042V18.3407H86.4656V27.9887H81.4984V30.8683H94.6366V27.9887H90.181V15.4611ZM110.225 16.6049C109.828 16.1321 109.325 15.7588 108.758 15.5149C108.101 15.2442 107.395 15.1113 106.685 15.1247C106.167 15.121 105.651 15.1843 105.15 15.3131C104.707 15.4319 104.282 15.6083 103.885 15.8379C103.484 16.0639 103.113 16.3397 102.781 16.6587C102.433 16.9986 102.105 17.358 101.798 17.7352L101.704 15.4611H98.5V30.8683H102.215V21.1127C102.744 20.3617 103.348 19.6673 104.019 19.0404C104.505 18.5722 105.149 18.3033 105.823 18.2869C107.075 18.2869 107.708 19.1346 107.708 20.8166V30.8683H111.383V20.5206C111.393 19.7656 111.294 19.013 111.086 18.2869C110.914 17.6704 110.621 17.0941 110.225 16.5914V16.6049ZM127.994 17.2238C127.527 16.5659 126.908 16.0304 126.19 15.6629C125.434 15.2867 124.598 15.0975 123.753 15.1112C123.236 15.1075 122.72 15.1708 122.219 15.2996C121.772 15.4189 121.342 15.5953 120.94 15.8244C120.545 16.0541 120.179 16.3296 119.85 16.6452C119.498 16.9817 119.17 17.3413 118.867 17.7217L118.773 15.4476H115.596V36.8832H119.298V30.8683C119.643 30.9553 119.994 31.0183 120.348 31.0567C120.731 31.1104 121.118 31.1373 121.505 31.1374C122.585 31.1502 123.659 30.9819 124.682 30.6396C125.622 30.3284 126.482 29.8138 127.2 29.1325C127.947 28.4082 128.522 27.5253 128.882 26.5489C129.302 25.3706 129.502 24.1257 129.475 22.8754C129.49 21.7871 129.363 20.7015 129.098 19.6459C128.88 18.7742 128.506 17.9491 127.994 17.2104V17.2238ZM125.302 25.2168C125.146 25.8038 124.881 26.3563 124.521 26.845C124.195 27.2739 123.776 27.6236 123.296 27.8676C122.801 28.1227 122.251 28.2521 121.694 28.2444C121.243 28.2439 120.793 28.2079 120.348 28.1367C119.976 28.0783 119.611 27.9836 119.257 27.8542V21.1261C119.794 20.3776 120.403 19.6835 121.075 19.0539C121.56 18.5856 122.204 18.3167 122.878 18.3003C123.276 18.2848 123.67 18.3797 124.017 18.5745C124.364 18.7693 124.65 19.0563 124.844 19.4037C125.1 19.8646 125.277 20.3648 125.369 20.8839C125.498 21.5986 125.557 22.3242 125.544 23.0503C125.568 23.7752 125.491 24.4999 125.315 25.2033L125.302 25.2168ZM143.972 16.4299C143.368 15.9683 142.677 15.6341 141.94 15.4476C140.975 15.2158 139.984 15.1073 138.992 15.1247C137.979 15.1201 136.969 15.2192 135.976 15.4207C135.103 15.5841 134.247 15.8273 133.419 16.1474V19.1077C134.249 18.7302 135.115 18.4372 136.003 18.2331C136.885 18.0217 137.789 17.9178 138.696 17.9236C139.186 17.9102 139.676 17.9691 140.149 18.0985C140.507 18.2013 140.837 18.3804 141.119 18.6233C141.362 18.8439 141.547 19.1213 141.657 19.4306C141.768 19.7739 141.823 20.1329 141.819 20.4937V21.4221H139.799C138.675 21.409 137.554 21.5356 136.461 21.7989C135.621 22.0096 134.824 22.3648 134.105 22.8485C133.532 23.2635 133.069 23.8135 132.759 24.4498C132.444 25.0757 132.282 25.7675 132.288 26.4682C132.284 27.1267 132.388 27.7814 132.598 28.4059C132.796 28.9687 133.113 29.4825 133.526 29.9129C133.955 30.3325 134.463 30.662 135.021 30.8818C135.689 31.1244 136.396 31.2429 137.107 31.2316C137.659 31.2317 138.21 31.1731 138.749 31.0567C139.216 30.9429 139.667 30.7758 140.095 30.5588C140.515 30.3555 140.908 30.1025 141.267 29.8053C141.627 29.5129 141.969 29.1983 142.29 28.8634L142.384 30.8818H145.547V20.3322C145.565 19.5529 145.437 18.7771 145.17 18.0447C144.919 17.4106 144.512 16.8505 143.986 16.4165L143.972 16.4299ZM141.819 26.1318C141.268 26.7299 140.654 27.2667 139.988 27.7331C139.517 28.0777 138.955 28.2744 138.372 28.2982C137.779 28.3341 137.192 28.1576 136.717 27.8003C136.512 27.6257 136.351 27.406 136.246 27.1585C136.141 26.911 136.094 26.6424 136.111 26.374C136.112 26.0682 136.176 25.7659 136.299 25.4859C136.433 25.1902 136.642 24.9349 136.905 24.7458C137.222 24.5089 137.584 24.3395 137.969 24.2479C138.487 24.1133 139.021 24.0499 139.557 24.0595H141.819V26.1318ZM162.172 17.2238C161.71 16.5706 161.095 16.0396 160.382 15.6764C159.63 15.3003 158.799 15.111 157.959 15.1247C157.441 15.121 156.925 15.1843 156.424 15.3131C155.954 15.4268 155.501 15.6033 155.078 15.8379C154.681 16.0706 154.311 16.3459 153.974 16.6587C153.627 16.9954 153.303 17.355 153.005 17.7352L152.911 15.4611H149.707V36.8832H153.409V30.8683C153.753 30.9577 154.104 31.0207 154.459 31.0567C154.842 31.1108 155.229 31.1378 155.616 31.1374C156.691 31.1503 157.761 30.9819 158.78 30.6396C159.724 30.3302 160.589 29.8155 161.311 29.1325C162.049 28.4037 162.619 27.5218 162.98 26.5489C163.409 25.3775 163.614 24.136 163.585 22.8889C163.594 21.8009 163.468 20.7161 163.209 19.6594C163.011 18.7903 162.665 17.9617 162.186 17.2104L162.172 17.2238ZM159.48 25.2168C159.319 25.8017 159.054 26.3531 158.699 26.845C158.368 27.2745 157.945 27.6241 157.461 27.8676C156.967 28.1259 156.416 28.2555 155.859 28.2444C155.408 28.2447 154.958 28.2087 154.513 28.1367C154.141 28.0783 153.776 27.9836 153.422 27.8542V21.1261C153.955 20.3745 154.564 19.68 155.239 19.0539C155.725 18.5856 156.369 18.3167 157.043 18.3003C157.441 18.2848 157.835 18.3797 158.182 18.5745C158.529 18.7693 158.815 19.0563 159.009 19.4037C159.26 19.8654 159.433 20.3656 159.52 20.8839C159.661 21.5971 159.724 22.3235 159.709 23.0503C159.736 23.7737 159.668 24.4975 159.507 25.2033L159.48 25.2168ZM179.335 16.726C178.943 16.2047 178.424 15.7924 177.828 15.5284C177.172 15.2504 176.466 15.1128 175.755 15.1247C175.224 15.1227 174.695 15.186 174.18 15.3131C173.708 15.422 173.254 15.5988 172.833 15.8379C172.448 16.0643 172.091 16.3353 171.77 16.6452C171.444 16.966 171.155 17.3226 170.908 17.7083L170.774 15.4611H167.422V30.8683H171.218V21.1127C171.763 20.254 172.44 19.4865 173.224 18.8386C173.695 18.4349 174.287 18.1984 174.906 18.1658C175.196 18.1613 175.482 18.2259 175.741 18.3542C175.999 18.4832 176.214 18.6842 176.36 18.9328C176.54 19.2401 176.663 19.5774 176.724 19.9285C176.809 20.4125 176.836 20.9049 176.805 21.3952H180.533C180.569 20.4908 180.483 19.5856 180.278 18.704C180.118 17.9825 179.806 17.3035 179.362 16.7125L179.335 16.726ZM188.879 12.9448C189.098 13.169 189.358 13.3474 189.647 13.4696C190.264 13.7202 190.954 13.7202 191.572 13.4696C191.86 13.3474 192.12 13.169 192.339 12.9448C192.555 12.7253 192.724 12.4644 192.837 12.1778C192.961 11.8816 193.025 11.5637 193.025 11.2426C193.025 10.9215 192.961 10.6036 192.837 10.3074C192.721 10.0184 192.552 9.75369 192.339 9.52696C192.117 9.30711 191.857 9.1293 191.572 9.00217C190.954 8.75159 190.264 8.75159 189.647 9.00217C189.361 9.1293 189.101 9.30711 188.879 9.52696C188.658 9.7497 188.484 10.0152 188.368 10.3074C188.244 10.6036 188.18 10.9215 188.18 11.2426C188.18 11.5637 188.244 11.8816 188.368 12.1778C188.49 12.4653 188.674 12.7225 188.906 12.9314L188.879 12.9448ZM192.716 15.4611H184.572V18.3407H188.92V27.9887H184.074V30.8683H197.212V27.9887H192.756L192.716 15.4611ZM214.913 15.4611H210.283L204.898 21.9873V9.41931H201.196V30.8683H204.898V23.158L210.592 30.8683H215.438L208.708 22.4717L214.913 15.4611ZM230.596 18.0581C230.349 17.4256 229.946 16.8656 229.425 16.4299C228.821 15.9683 228.129 15.6341 227.392 15.4476C226.427 15.2158 225.436 15.1073 224.444 15.1247C223.436 15.1192 222.43 15.2184 221.442 15.4207C220.568 15.5805 219.712 15.8238 218.885 16.1474V19.1077C219.709 18.7283 220.571 18.4352 221.456 18.2331C222.337 18.0217 223.241 17.9178 224.148 17.9236C224.639 17.9102 225.128 17.9691 225.602 18.0985C225.959 18.2013 226.29 18.3804 226.571 18.6233C226.814 18.8439 226.999 19.1213 227.109 19.4306C227.221 19.7739 227.275 20.1329 227.271 20.4937V21.4221H225.252C224.132 21.4082 223.015 21.5347 221.927 21.7989C221.082 22.0071 220.28 22.3624 219.558 22.8485C218.984 23.2635 218.522 23.8135 218.212 24.4498C217.896 25.0757 217.735 25.7675 217.74 26.4682C217.733 27.128 217.843 27.7839 218.063 28.4059C218.254 28.9695 218.566 29.4841 218.979 29.9129C219.407 30.3325 219.915 30.662 220.473 30.8818C221.141 31.1244 221.848 31.2429 222.559 31.2316C223.112 31.2317 223.662 31.1731 224.202 31.0567C224.668 30.9429 225.12 30.7758 225.548 30.5588C225.967 30.3555 226.36 30.1025 226.719 29.8053C227.082 29.5164 227.424 29.2016 227.742 28.8634L227.836 30.8818H231V20.3322C231.017 19.5529 230.89 18.7771 230.623 18.0447L230.596 18.0581ZM227.271 26.1318C226.723 26.7329 226.109 27.2701 225.44 27.7331C224.97 28.0777 224.408 28.2744 223.825 28.2982C223.231 28.3341 222.644 28.1576 222.169 27.8003C221.965 27.6257 221.803 27.406 221.698 27.1585C221.593 26.911 221.547 26.6424 221.563 26.374C221.565 26.0682 221.629 25.7659 221.752 25.4859C221.894 25.1959 222.101 24.9426 222.358 24.7458C222.674 24.5089 223.036 24.3395 223.421 24.2479C223.939 24.1133 224.474 24.0499 225.009 24.0595H227.271V26.1318Z" fill="#8C98A4"/>
</svg>
