<svg width="231" height="54" viewBox="0 0 231 54" fill="none" xmlns="http://www.w3.org/2000/svg">
<path d="M6.71448 0H47.5458C51.3567 0 54.4417 3.0869 54.4417 6.71855C54.4417 10.5318 51.3567 13.4371 47.7272 13.4371H6.71448C3.08503 13.6187 0 10.5318 0 6.90013C0 3.0869 3.08503 0 6.71448 0ZM6.71448 19.9741H20.3249C24.1358 19.9741 27.0394 23.061 27.0394 26.6926C27.0394 30.5058 23.9544 33.4112 20.3249 33.4112H6.71448C2.90356 33.4112 0 30.3243 0 26.6926C0 22.8794 3.08503 19.9741 6.71448 19.9741ZM6.89595 53.5668C3.08503 53.5668 0 50.2983 0 46.6667C0 43.035 3.08503 39.9481 6.89595 39.9481C10.7069 39.9481 13.7919 43.035 13.7919 46.6667C13.7919 50.2983 10.5254 53.5668 6.89595 53.5668ZM67.6892 53.5668H26.6764C22.8655 53.5668 19.962 50.2983 19.962 46.6667C19.962 42.8535 23.047 39.9481 26.6764 39.9481H67.5077C71.3187 39.9481 74.2222 43.035 74.2222 46.6667C74.4037 50.2983 71.3187 53.5668 67.6892 53.5668ZM67.6892 33.5928H54.0788C50.2679 33.5928 47.3643 30.5058 47.3643 26.8742C47.3643 23.061 50.4493 20.1556 54.0788 20.1556H67.6892C71.5001 20.1556 74.4037 23.2426 74.4037 26.8742C74.4037 30.3243 71.3187 33.5928 67.6892 33.5928ZM67.6892 0C71.3187 0 74.4037 3.0869 74.4037 6.90013C74.4037 10.7134 71.3187 13.8003 67.5077 13.8003C63.6968 13.8003 60.6118 10.7134 60.6118 6.90013C60.6118 3.0869 63.8783 0 67.6892 0Z" fill="#8C98A4"/>
<path d="M200.164 29.5977L199.62 32.3215H226.84V38.3137V43.0348C226.84 46.1217 224.663 48.6639 222.122 48.6639H204.701C203.431 48.6639 202.342 47.3928 202.342 45.9402V42.6717H220.307V38.4953H192.361C191.09 38.4953 190.002 37.2242 190.002 35.7715C190.002 35.59 190.002 35.4084 190.002 35.2268L190.909 29.7793H185.102V23.7871H230.47V29.7793C230.47 29.7793 200.164 29.7793 200.164 29.5977ZM188.731 4.72095H227.748V14.3448C227.748 17.4317 225.57 19.9739 223.03 19.9739H188.731V4.72095ZM195.083 10.5316V14.1632H219.763C220.489 14.1632 221.215 13.4369 221.215 12.529V10.5316H195.083ZM155.34 4.72095H162.418V42.6717C162.418 45.7586 159.877 48.3007 156.792 48.3007H149.715C148.263 48.3007 146.993 47.0297 146.993 45.577V41.7638H153.526C154.433 41.7638 155.159 41.0374 155.159 40.1295L155.34 4.72095ZM144.271 15.6159H149.896L144.271 38.3137C143.908 39.5848 142.819 40.4927 141.548 40.4927H136.104L141.73 17.7949C141.911 16.5238 143 15.6159 144.271 15.6159ZM173.306 15.6159C174.576 15.6159 175.665 16.5238 176.028 17.7949L181.472 40.4927H175.847C174.576 40.4927 173.488 39.5848 173.125 38.3137L167.68 15.6159H173.306ZM99.0839 28.1451H88.0141C86.5623 28.1451 85.292 26.874 85.292 25.4213V22.516H99.0839V15.6159H85.292V10.1684H99.0839V4.72095H106.524V48.3007H99.0839V39.9479H85.292V34.3189H99.0839V28.1451ZM117.594 28.1451H128.664C130.116 28.1451 131.386 26.874 131.386 25.4213V22.516H117.594V15.6159H131.386V10.1684H117.594V4.72095H110.154V48.3007H117.594V39.9479H131.386V34.3189H117.594V28.1451Z" fill="#8C98A4"/>
</svg>
