<svg id="final_svg" xmlns="http://www.w3.org/2000/svg" xmlns:xlink="http://www.w3.org/1999/xlink" viewBox="749.6389770507812 501.6092529296875 670.7687377929688 156.09844970703125">
      <style type="text/css">.st0{fill:#ffffff;}</style>
    <metadata>
              <sfw xmlns="&amp;ns_sfw;">
                      <slices></slices>
            <slicesourcebounds bottomleftorigin="true" height="315.000061" width="261.0198669" x="-0.000249" y="-0.0000608"></slicesourcebounds>
                  </sfw>
          </metadata>
    <g id="color_index_g" transform="translate(749.6390886400982, 501.60923827382913) scale(0.4955506087242921)" opacity="1">
        <path class="st0" d="M164.2749939,58.5200005C158.5540009,37.0849991,147.3249969,16.816,130.5090027-0.000001		L39.2280006,91.2799988c-0.3479996,0.3470001-0.644001,0.6439972-1,0.9990005		c-50.9669991,50.9679947-50.9729996,133.6090088-0.0060005,184.5769958		c16.8150024,16.8150024,37.0859985,28.04599,58.5209961,33.7659912		c-11.6169968-43.5339966-0.3880005-91.8980103,33.7660065-126.0509949		C164.6609955,150.4179993,175.8919983,102.0540009,164.2749939,58.5200005z M222.7929993,276.8559875		c-31.3800049,31.381012-74.7519989,43.3529968-115.3590012,36.0870056l-1.2890015-4.8299866		c-11.0979996-41.5899963,0.8740005-86.2919922,31.2439957-116.6600037		c33.8209991-33.821991,47.9250031-82.9339981,37.6649933-129.4859924		c17.4150085,6.3040009,33.7770081,16.3560028,47.7380066,30.3190002		C273.7619934,143.253006,273.7619934,225.8880005,222.7929993,276.8559875z"></path>
          </g>
    <g fill="#ffffff" id="text_group" transform="translate(917.6377326729188, 543.0112253073938)" opacity="1.0">
              <path d="M7.39 66.57L7.39 16.64L16.86 16.64L16.86 58.25L37.87 58.25L37.87 66.57L7.39 66.57ZM60.54 66.57L60.54 16.64L70.01 16.64L70.01 66.57L60.54 66.57ZM143.54 41.61Q143.54 50.00 140.27 56.02Q137.01 62.05 130.84 64.99L130.84 64.99L138.30 78.76L128.62 78.76L122.38 67.29Q120.22 67.43 119.08 67.43L119.08 67.43Q111.40 67.43 105.88 64.27Q100.35 61.12 97.48 55.31Q94.62 49.50 94.62 41.61L94.62 41.61Q94.62 33.71 97.48 27.90Q100.35 22.09 105.88 18.94Q111.40 15.78 119.08 15.78L119.08 15.78Q126.75 15.78 132.28 18.94Q137.80 22.09 140.67 27.90Q143.54 33.71 143.54 41.61L143.54 41.61ZM104.59 41.61Q104.59 50.21 108.42 54.77Q112.26 59.32 119.08 59.32L119.08 59.32Q125.89 59.32 129.73 54.77Q133.57 50.21 133.57 41.61L133.57 41.61Q133.57 33.00 129.73 28.44Q125.89 23.89 119.08 23.89L119.08 23.89Q112.26 23.89 108.42 28.44Q104.59 33.00 104.59 41.61L104.59 41.61ZM189.37 67.43Q179.40 67.43 173.74 61.69Q168.07 55.95 168.07 45.91L168.07 45.91L168.07 16.64L177.54 16.64L177.54 45.69Q177.54 52.58 180.62 55.84Q183.71 59.11 189.37 59.11L189.37 59.11Q195.11 59.11 198.16 55.77Q201.21 52.44 201.21 45.69L201.21 45.69L201.21 16.64L210.68 16.64L210.68 45.91Q210.68 55.95 205.01 61.69Q199.35 67.43 189.37 67.43L189.37 67.43ZM236.29 66.57L236.29 16.64L245.76 16.64L245.76 66.57L236.29 66.57ZM290.52 16.64Q298.19 16.64 303.72 19.69Q309.24 22.74 312.11 28.37Q314.98 34.00 314.98 41.61L314.98 41.61Q314.98 49.21 312.11 54.84Q309.24 60.47 303.72 63.52Q298.19 66.57 290.52 66.57L290.52 66.57L272.08 66.57L272.08 16.64L290.52 16.64ZM290.52 58.18Q297.33 58.18 301.17 53.94Q305.01 49.71 305.01 41.61L305.01 41.61Q305.01 33.50 301.17 29.27Q297.33 25.03 290.52 25.03L290.52 25.03L281.55 25.03L281.55 58.18L290.52 58.18ZM371.15 66.57L366.98 55.23L345.68 55.23L341.52 66.57L332.05 66.57L350.99 16.64L362.04 16.64L380.97 66.57L371.15 66.57ZM348.62 47.20L364.04 47.20L356.37 25.97L348.62 47.20ZM441.59 66.57L431.19 66.57L421.00 47.56L412.10 47.56L412.10 66.57L402.64 66.57L402.64 16.64L420.64 16.64Q430.32 16.64 435.13 20.52Q439.94 24.39 439.94 31.78L439.94 31.78Q439.94 37.01 437.57 40.67Q435.20 44.33 430.54 46.12L430.54 46.12L441.59 66.57ZM412.10 25.03L412.10 39.24L420.71 39.24Q425.45 39.24 427.71 37.59Q429.97 35.94 429.97 31.99L429.97 31.99Q429.97 28.19 427.74 26.61Q425.52 25.03 420.64 25.03L420.64 25.03L412.10 25.03ZM493.02 16.64L502.77 16.64L484.63 49.35L484.63 66.57L475.16 66.57L475.16 49.35L457.01 16.64L467.12 16.64L479.96 40.89L493.02 16.64Z"></path>
          </g>
  </svg>