<svg width="1331" height="345" viewBox="0 0 1331 345" fill="none" xmlns="http://www.w3.org/2000/svg">
<mask id="mask0_2051_1690" style="mask-type:luminance" maskUnits="userSpaceOnUse" x="0" y="0" width="345" height="345">
<path d="M264.132 0C308.61 0 345 36.3906 345 80.8689V264.131C345 308.609 308.61 345 264.132 345H181.914L220.137 290.788C236.779 267.186 228.649 250.494 214.045 230.952L172.215 172.909L214.045 114.867C228.649 95.3248 236.779 78.6335 220.137 55.0306L181.351 0H264.132ZM141.609 0L179.44 50.6742L179.84 51.2632C181.346 53.5645 186.532 62.2778 185.342 71.4999C183.953 82.2587 175.622 92.6715 175.622 92.6715L135.802 150.22C132.618 155.149 129.413 160.765 127.911 165.806C127.335 167.738 127.047 170.302 127.031 172.909C127.047 175.517 127.335 178.081 127.911 180.013C129.413 185.054 132.618 190.67 135.802 195.599L175.622 253.147C175.622 253.147 183.953 263.56 185.342 274.319C186.532 283.541 181.346 292.254 179.84 294.556L179.44 295.145L142.206 345H80.8682C36.3907 345 0 308.609 0 264.131V80.8689C0 36.3906 36.3907 0 80.8682 0H141.609ZM243.121 87.2133C242.524 101.686 234.297 116.259 225.741 127.988L223.599 130.859L234.837 146.426L253.385 171.874L234.837 197.322L223.599 212.89C232.16 224.124 240.999 238.446 242.817 252.916L243.121 256.535L286.855 194.755C286.855 194.755 295.466 182.568 296.024 171.874C295.503 161.894 287.967 150.611 286.965 149.151L286.855 148.993L243.121 87.2133Z" fill="#F34718"/>
</mask>
<g mask="url(#mask0_2051_1690)">
<path d="M0 0H345V345H0V0Z" fill="#888"/>
</g>
<mask id="mask1_2051_1690" style="mask-type:luminance" maskUnits="userSpaceOnUse" x="427" y="65" width="904" height="231">
<path d="M525.615 65.7158C544.868 65.7158 559.453 66.4759 568.956 67.9813C578.525 69.4988 587.21 72.7109 594.781 77.5387C602.354 82.3692 608.749 88.8724 613.791 96.8769C619.522 106.001 622.046 116.519 621.278 128.083C620.808 135.078 618.857 141.969 615.551 148.179C609.583 159.389 600.564 167.88 588.834 173.362C602.689 177.535 613.57 184.365 621.214 193.689C629.298 203.571 633.403 215.337 633.403 228.665C633.403 239.13 630.757 249.449 625.561 259.35C620.356 269.246 613.139 277.274 604.116 283.185C595.092 289.096 583.832 292.786 570.656 294.145C562.476 294.976 542.451 295.497 511.133 295.716H432.862C429.705 295.716 427.148 293.203 427.148 290.104V71.3203C427.148 68.2163 429.705 65.7158 432.862 65.7158H525.615ZM708.5 66.8306C711.022 66.8306 713.071 68.8405 713.071 71.3203V154.916H758.68C779.697 126.936 791.934 108.351 817.373 69.4427C818.423 67.836 820.236 66.8611 822.178 66.8611H871.35C874.093 66.8611 875.723 69.8701 874.195 72.1087L802.03 177.464L881.478 289.266C883.063 291.501 881.436 294.561 878.67 294.561H827.218C825.319 294.561 823.545 293.632 822.484 292.077C799.747 258.913 777.557 227.388 755.025 195.148H713.071V291.221C713.071 293.706 711.022 295.716 708.5 295.716H668.325C665.798 295.716 663.749 293.706 663.749 291.221V71.3203C663.749 68.8405 665.798 66.8306 668.325 66.8306H708.5ZM1080.6 65.7158C1083.75 65.7158 1086.31 68.2266 1086.31 71.3203V100.512C1086.31 103.613 1083.75 106.114 1080.6 106.114H955.432V154.916H1080.43C1083.59 154.916 1086.14 157.426 1086.14 160.518V189.543C1086.14 192.637 1083.59 195.148 1080.43 195.148H955.432V255.457H1080.6C1083.75 255.457 1086.31 257.968 1086.31 261.063V290.101C1086.31 293.195 1083.75 295.706 1080.6 295.706H910.033C906.881 295.706 904.328 293.195 904.328 290.101V71.3203C904.328 68.2266 906.881 65.7158 910.033 65.7158H1080.6ZM1169.67 66.8611C1171.59 66.8611 1173.39 67.8199 1174.44 69.3961L1220.71 138.705L1265.99 69.4427C1267.04 67.836 1268.86 66.8611 1270.8 66.8611H1319.97C1322.71 66.8611 1324.34 69.8701 1322.82 72.1087L1250.65 177.464L1330.1 289.266C1331.68 291.501 1330.06 294.561 1327.29 294.561H1275.84C1273.94 294.561 1272.17 293.632 1271.1 292.077L1219.72 217.131L1168.18 292.087C1167.12 293.632 1165.34 294.561 1163.45 294.561H1112.28C1109.53 294.561 1107.9 291.521 1109.46 289.285L1188.96 175.773L1117.17 72.1253C1115.62 69.8867 1117.25 66.8611 1120 66.8611H1169.67ZM517.125 196.256H478.257V255.457H522.949C540.559 255.457 551.87 254.996 556.559 254.079C563.674 252.877 569.523 249.894 573.963 245.243C578.384 240.613 580.627 234.303 580.627 226.47C580.627 219.855 578.898 214.164 575.472 209.576C572.053 204.97 567.025 201.575 560.528 199.47C553.939 197.336 539.332 196.256 517.125 196.256ZM509.856 105.501L478.257 105.498V156.458L513.616 156.454C530.397 156.419 541.049 156.158 545.318 155.683C553.514 154.783 560.029 152.125 564.676 147.749C569.303 143.449 571.638 137.668 571.638 130.588C571.638 123.796 569.62 118.219 565.638 113.998C561.652 109.778 555.593 107.168 547.646 106.262C542.819 105.75 528.679 105.498 505.64 105.498L509.856 105.501Z" fill="white"/>
</mask>
<g mask="url(#mask1_2051_1690)">
<path d="M427.148 65.7158H1330.72V295.716H427.148V65.7158Z" fill="#888"/>
</g>
</svg>
