<svg id="Layer_1" data-name="Layer 1" xmlns="http://www.w3.org/2000/svg" xmlns:xlink="http://www.w3.org/1999/xlink" viewBox="0 0 162.02 203.95"><defs><style>.cls-1{fill:none;}.cls-2{clip-path:url(#clip-path);}.cls-3{fill:#f9f9f9;}.cls-4{fill:#fff;}.cls-5{fill:#c9c9c9;}.cls-6{fill:#e5e5e5;}.cls-7{fill:#6a79a8;}.cls-8{fill:#f5f5f5;}.cls-9{fill:#0072ff;}.cls-10{fill:#a2a2a2;}</style><clipPath id="clip-path" transform="translate(0.03 0)"><rect class="cls-1" width="162" height="204"/></clipPath></defs><g class="cls-2"><path class="cls-3" d="M149.29,42.31v142.9a6.6,6.6,0,0,1-6.63,6.58H7.43A6.6,6.6,0,0,1,.8,185.21v-23.3l.13-12.85V7A6.6,6.6,0,0,1,7.56.4H139a10.32,10.32,0,0,1,10.36,10.33V35.6Z" transform="translate(0.03 0)"/><path class="cls-4" d="M145.13,41.69V185.37a6.4,6.4,0,0,1-6.39,6.42H7.19A6.42,6.42,0,0,1,.8,185.37V162.62l.09-12.55V11.5A6.4,6.4,0,0,1,7.28,5.07H139.39a5.69,5.69,0,0,1,5.74,5.66Z" transform="translate(0.03 0)"/><path class="cls-5" d="M148.52,42.52V179c0,2.09,0,4.18,0,6.27-.06,3.23-2.22,6.09-5.61,6.22-.59,0-1.14,0-1.73,0h-114c-6.44,0-12.95.21-19.4,0-3.91-.13-6.23-3.42-6.23-7.08v-8.61c0-5,0-10.08,0-15.12q.09-9.92.09-19.8V10c0-3.26-.27-6.85,3.21-8.67,1.91-1,4.91-.58,7-.58h125.7a13.91,13.91,0,0,1,3,.21,10.3,10.3,0,0,1,8.08,10.15c.1,6.12,0,12.21,0,18.32,0,4.34,0,8.71,0,13.1,0,.31,1.48.09,1.48-.4,0-10.54.19-21.09,0-31.6A10.58,10.58,0,0,0,141.49.25,16.2,16.2,0,0,0,138.22,0H11.78C9.22,0,6.48-.25,4.13.92a7.15,7.15,0,0,0-4,6.46v141.4C.12,158.4,0,168,0,177.62c0,2.52-.06,5,0,7.56a6.93,6.93,0,0,0,7.06,6.92c1.82,0,3.67,0,5.49,0H141c.55,0,1.14,0,1.69,0a7.5,7.5,0,0,0,7.28-7.16c.16-6.34,0-12.7,0-19.06V42.06C150,41.81,148.52,42,148.52,42.52Z" transform="translate(0.03 0)"/><path class="cls-3" d="M155.21,48.24V191.15a6.6,6.6,0,0,1-6.63,6.58H13.36a6.61,6.61,0,0,1-6.64-6.58V167.84L6.85,155V12.91a6.61,6.61,0,0,1,6.63-6.58h131.4a10.33,10.33,0,0,1,10.36,10.33V41.54Z" transform="translate(0.03 0)"/><path class="cls-4" d="M151.05,47.63V191.3a6.4,6.4,0,0,1-6.39,6.43H13.11a6.42,6.42,0,0,1-6.39-6.43V168.55L6.82,156V17.43A6.4,6.4,0,0,1,13.2,11H145.31a5.68,5.68,0,0,1,5.74,5.65Z" transform="translate(0.03 0)"/><path class="cls-5" d="M154.47,48.42V184.88c0,2.09,0,4.18,0,6.27-.06,3.23-2.22,6.09-5.61,6.21-.59,0-1.14,0-1.73,0H33.1c-6.45,0-13,.21-19.4,0-3.92-.12-6.24-3.41-6.24-7.07v-8.61c0-5,0-10.09,0-15.13q.11-9.92.1-19.8V15.9c0-3.26-.28-6.86,3.21-8.67,1.91-1,4.9-.59,7-.59H143.46a13.25,13.25,0,0,1,3,.22A10.3,10.3,0,0,1,154.51,17c.09,6.12,0,12.21,0,18.33,0,4.33,0,8.73,0,13.09,0,.31,1.48.1,1.48-.39,0-10.55.19-21.1,0-31.61a10.64,10.64,0,0,0-8.54-10.27,16.2,16.2,0,0,0-3.27-.22H17.71c-2.53,0-5.28-.27-7.62.9a7.14,7.14,0,0,0-4,6.45v141.4c0,9.63-.13,19.25-.13,28.84,0,2.52-.06,5,0,7.57A6.93,6.93,0,0,0,13,198c1.82,0,3.67,0,5.49,0H147c.55,0,1.14,0,1.7,0a7.48,7.48,0,0,0,7.27-7.16c.16-6.33,0-12.7,0-19.06V48C156,47.72,154.47,48,154.47,48.42Z" transform="translate(0.03 0)"/><path class="cls-3" d="M161.17,54.17V197.08a6.6,6.6,0,0,1-6.63,6.58H19.31a6.6,6.6,0,0,1-6.63-6.58v-23.3l.12-12.85V18.85a6.6,6.6,0,0,1,6.63-6.58h131.4A10.33,10.33,0,0,1,161.2,22.6V47.47Z" transform="translate(0.03 0)"/><path class="cls-4" d="M157,53.56V197.24a6.4,6.4,0,0,1-6.38,6.42H19.06a6.42,6.42,0,0,1-6.38-6.42V174.48l.09-12.54V23.37a6.4,6.4,0,0,1,6.39-6.43H151.27A5.68,5.68,0,0,1,157,22.6Z" transform="translate(0.03 0)"/><path class="cls-5" d="M160.43,54.36V190.81c0,2.09,0,4.18,0,6.27-.06,3.23-2.22,6.09-5.62,6.21-.58,0-1.14,0-1.72,0h-114c-6.45,0-12.95.22-19.4,0-3.92-.12-6.23-3.41-6.23-7.07v-8.61c0-5,0-10.08,0-15.12.06-6.61.09-13.23.09-19.81V21.83c0-3.26-.28-6.86,3.21-8.67,1.91-1,4.9-.58,7-.58H149.41a14,14,0,0,1,3,.21,10.29,10.29,0,0,1,8.08,10.15c.09,6.12,0,12.2,0,18.32,0,4.34,0,8.73,0,13.1,0,.31,1.48.09,1.48-.4,0-10.55.18-21.09,0-31.61a10.66,10.66,0,0,0-8.55-10.27,17,17,0,0,0-3.27-.21H23.66c-2.53,0-5.28-.28-7.62.89a7.15,7.15,0,0,0-4,6.46v141.4c0,9.62-.12,19.24-.12,28.84,0,2.52-.07,5,0,7.56A6.92,6.92,0,0,0,19,203.94c1.82,0,3.67,0,5.49,0H152.93c.56,0,1.14,0,1.7,0a7.51,7.51,0,0,0,7.28-7.17c.15-6.33,0-12.69,0-19.06V53.9C161.91,53.65,160.43,53.87,160.43,54.36Z" transform="translate(0.03 0)"/><path class="cls-6" d="M64.93,171H35.44A3.08,3.08,0,0,1,32.36,168V151.3a3.08,3.08,0,0,1,3.08-3.07H64.93A3.08,3.08,0,0,1,68,151.3V168A3.1,3.1,0,0,1,64.93,171Z" transform="translate(0.03 0)"/><path class="cls-7" d="M45.5,152.59h45c.83,0,1.14-1,.16-1h-45C44.79,151.55,44.48,152.59,45.5,152.59Z" transform="translate(0.03 0)"/><path class="cls-7" d="M33.22,161.79h95.16c4.38,0,8.85.21,13.23,0h.19c.3,0,1.66-.59,1-.59H47.63c-4.38,0-8.86-.21-13.24,0h-.18C33.87,161.2,32.51,161.79,33.22,161.79Z" transform="translate(0.03 0)"/><path class="cls-7" d="M32.76,168.3h95.9c4.41,0,8.88.19,13.32,0h.19c.34,0,1.69-.64,1-.64H47.22c-4.41,0-8.88-.19-13.32,0h-.19C33.37,167.66,32,168.3,32.76,168.3Z" transform="translate(0.03 0)"/><path class="cls-7" d="M32.94,174.7h67.31c.52,0,1.6-.8.58-.8H33.53C33,173.93,32,174.7,32.94,174.7Z" transform="translate(0.03 0)"/><path class="cls-8" d="M64.84,133.28H34.89a2.82,2.82,0,0,1-2.84-2.82V113.33a2.82,2.82,0,0,1,2.84-2.83h30a2.82,2.82,0,0,1,2.83,2.83v17.13A2.79,2.79,0,0,1,64.84,133.28Z" transform="translate(0.03 0)"/><path class="cls-7" d="M44.29,114.78H89c.62,0,1.57-.93.56-.93H44.85C44.23,113.85,43.28,114.78,44.29,114.78Z" transform="translate(0.03 0)"/><path class="cls-7" d="M33.41,124.12h95.15c4.38,0,8.86.28,13.24,0H142c.53,0,1.61-.8.59-.8H47.41c-4.38,0-8.85-.27-13.23,0H34C33.47,123.32,32.39,124.12,33.41,124.12Z" transform="translate(0.03 0)"/><path class="cls-7" d="M32.76,130.52h95.9c4.41,0,8.88.21,13.32,0h.19c.31,0,1.66-.59,1-.59H47.26c-4.42,0-8.89-.21-13.33,0h-.19C33.44,129.93,32.05,130.52,32.76,130.52Z" transform="translate(0.03 0)"/><path class="cls-7" d="M32.76,136.85h67.3c.34,0,1.7-.61,1-.61H33.71C33.37,136.24,32,136.85,32.76,136.85Z" transform="translate(0.03 0)"/><path class="cls-6" d="M64.74,95.53H35.38a3.16,3.16,0,0,1-3.15-3.14V75.85a3.16,3.16,0,0,1,3.15-3.14H64.74a3.16,3.16,0,0,1,3.15,3.14V92.39A3.14,3.14,0,0,1,64.74,95.53Z" transform="translate(0.03 0)"/><path class="cls-7" d="M43.92,77.11h45.9C90.69,77.11,91,76,90,76H44.05C43.18,76,42.91,77.11,43.92,77.11Z" transform="translate(0.03 0)"/><path class="cls-7" d="M33.41,86.43h95.15c4.38,0,8.86.27,13.24,0H142c.59,0,1.57-.89.56-.89H47.38c-4.38,0-8.85-.28-13.23,0H34C33.37,85.5,32.42,86.43,33.41,86.43Z" transform="translate(0.03 0)"/><path class="cls-7" d="M33.16,93h104.9a40.93,40.93,0,0,0,4.29,0h.19c.86,0,1.14-1.11.12-1.11H37.75a40.74,40.74,0,0,0-4.28,0h-.19C32.45,91.93,32.17,93,33.16,93Z" transform="translate(0.03 0)"/><path class="cls-7" d="M32.94,99.19h67.31c.52,0,1.6-.77.58-.77H33.53C33,98.42,32,99.19,32.94,99.19Z" transform="translate(0.03 0)"/><path class="cls-4" d="M146.76,190.26a29.65,29.65,0,1,0-42,0A29.52,29.52,0,0,0,146.76,190.26Z" transform="translate(0.03 0)"/><path class="cls-9" d="M144.15,187.65a26,26,0,1,0-36.77,0A25.86,25.86,0,0,0,144.15,187.65Z" transform="translate(0.03 0)"/><path class="cls-4" d="M130.79,155.11v14.27h8.42a1,1,0,0,1,.74,1.78l-13.42,13.38a1.08,1.08,0,0,1-1.54,0l-13.42-13.38a1,1,0,0,1,.74-1.78h8.14V155.11a1.32,1.32,0,0,1,1.33-1.32h7.62A1.32,1.32,0,0,1,130.79,155.11Z" transform="translate(0.03 0)"/></g><path class="cls-10" d="M48.42,50.34H42.29L40.9,54.13H39.7l5.12-13.5H45.9L51,54.13H49.83Zm-5.77-1h5.41L45.35,42Z" transform="translate(0.03 0)"/><path class="cls-10" d="M59.09,52.86a3.6,3.6,0,0,1-3.2,1.46,3.11,3.11,0,0,1-2.44-.93,4.1,4.1,0,0,1-.85-2.76V44.1h1.1v6.39c0,1.91.78,2.86,2.32,2.86a2.85,2.85,0,0,0,3.06-2V44.1h1.11v10H59.11Z" transform="translate(0.03 0)"/><path class="cls-10" d="M62.63,49a6.06,6.06,0,0,1,1-3.72,3.36,3.36,0,0,1,2.84-1.39,3.5,3.5,0,0,1,3.09,1.6V39.88h1.11V54.13h-1l0-1.33a3.58,3.58,0,0,1-3.13,1.52,3.36,3.36,0,0,1-2.8-1.4,6.05,6.05,0,0,1-1.06-3.77Zm1.12.2a5.27,5.27,0,0,0,.77,3,2.5,2.5,0,0,0,2.17,1.1,3,3,0,0,0,2.91-1.8V46.83a3,3,0,0,0-2.89-2A2.53,2.53,0,0,0,64.53,46,5.63,5.63,0,0,0,63.75,49.22Z" transform="translate(0.03 0)"/><path class="cls-10" d="M73.57,41.2a.72.72,0,0,1,.76-.75.74.74,0,0,1,.77.75.7.7,0,0,1-.21.52.76.76,0,0,1-.56.21.75.75,0,0,1-.56-.21A.69.69,0,0,1,73.57,41.2Zm1.3,12.93H73.76v-10h1.11Z" transform="translate(0.03 0)"/><path class="cls-10" d="M79.62,41.53V44.1h2.07V45H79.62v6.7a2.13,2.13,0,0,0,.3,1.25,1.16,1.16,0,0,0,1,.4,7,7,0,0,0,.9-.09l.05.9a3.48,3.48,0,0,1-1.19.16A2,2,0,0,1,79,53.66a3.14,3.14,0,0,1-.52-2V45H76.66v-.9H78.5V41.53Z" transform="translate(0.03 0)"/><path class="cls-10" d="M93.25,45A4.38,4.38,0,0,0,92.5,45a2.7,2.7,0,0,0-1.76.58,3.09,3.09,0,0,0-1,1.68v6.89H88.61v-10H89.7l0,1.59a3,3,0,0,1,2.83-1.78,1.82,1.82,0,0,1,.73.12Z" transform="translate(0.03 0)"/><path class="cls-10" d="M98.72,54.32a4.3,4.3,0,0,1-3.93-2.39,5.51,5.51,0,0,1-.57-2.53V49a5.8,5.8,0,0,1,.56-2.6,4.44,4.44,0,0,1,1.56-1.83,3.87,3.87,0,0,1,2.17-.66,3.63,3.63,0,0,1,2.9,1.25,5,5,0,0,1,1.07,3.41v.62H95.32v.21a4.23,4.23,0,0,0,1,2.85,3.12,3.12,0,0,0,2.46,1.13,3.74,3.74,0,0,0,1.58-.32,3.6,3.6,0,0,0,1.23-1l.7.53A4.05,4.05,0,0,1,98.72,54.32Zm-.21-9.46a2.78,2.78,0,0,0-2.11.91,4.27,4.27,0,0,0-1,2.47h6v-.12a3.66,3.66,0,0,0-.83-2.35A2.53,2.53,0,0,0,98.51,44.86Z" transform="translate(0.03 0)"/><path class="cls-10" d="M112.72,49.22a6.06,6.06,0,0,1-1,3.72,3.3,3.3,0,0,1-2.78,1.38,3.71,3.71,0,0,1-3.16-1.45V58h-1.1V44.1h1l0,1.41a3.59,3.59,0,0,1,3.15-1.6,3.32,3.32,0,0,1,2.82,1.36,6.14,6.14,0,0,1,1,3.79ZM111.6,49a5.19,5.19,0,0,0-.78-3,2.56,2.56,0,0,0-2.2-1.12,2.94,2.94,0,0,0-2.88,1.93v4.81a3,3,0,0,0,1.14,1.32,3.34,3.34,0,0,0,1.76.45,2.5,2.5,0,0,0,2.18-1.12A5.62,5.62,0,0,0,111.6,49Z" transform="translate(0.03 0)"/><path class="cls-10" d="M114.56,49a6,6,0,0,1,.56-2.61,4.38,4.38,0,0,1,1.59-1.81,4.27,4.27,0,0,1,2.33-.64,4.12,4.12,0,0,1,3.24,1.41A5.38,5.38,0,0,1,123.53,49v.23a5.86,5.86,0,0,1-.57,2.62,4.15,4.15,0,0,1-1.58,1.8,4.33,4.33,0,0,1-2.33.63,4.12,4.12,0,0,1-3.24-1.41,5.38,5.38,0,0,1-1.25-3.72Zm1.12.3a4.58,4.58,0,0,0,.93,3,3.16,3.16,0,0,0,4.88,0,4.72,4.72,0,0,0,.93-3V49a5,5,0,0,0-.43-2.11,3.39,3.39,0,0,0-1.19-1.48,3.06,3.06,0,0,0-1.76-.52A3,3,0,0,0,116.61,46a4.74,4.74,0,0,0-.93,3Z" transform="translate(0.03 0)"/><path class="cls-10" d="M130.46,45a4.59,4.59,0,0,0-.76-.06,2.66,2.66,0,0,0-1.75.58,3.1,3.1,0,0,0-1,1.68v6.89h-1.1v-10h1.08l0,1.59a3,3,0,0,1,2.83-1.78,1.82,1.82,0,0,1,.73.12Z" transform="translate(0.03 0)"/><path class="cls-10" d="M134.4,41.53V44.1h2.08V45H134.4v6.7a2.13,2.13,0,0,0,.3,1.25,1.18,1.18,0,0,0,1,.4,7.31,7.31,0,0,0,.9-.09l0,.9a3.42,3.42,0,0,1-1.18.16,2,2,0,0,1-1.67-.66,3.2,3.2,0,0,1-.51-2V45h-1.85v-.9h1.85V41.53Z" transform="translate(0.03 0)"/></svg>