<svg width="113" height="47" viewBox="0 0 113 47" fill="none" xmlns="http://www.w3.org/2000/svg">
<path fill-rule="evenodd" clip-rule="evenodd" d="M41.7516 35.5827C41.4459 35.5827 41.1402 35.5029 40.8563 35.3432C39.9974 34.8497 39.7062 33.7539 40.2012 32.8975C42.8217 28.3762 43.5132 23.1074 42.1593 18.0562C40.8053 13.0124 37.5588 8.79589 33.0239 6.18325C26.975 2.69973 19.4629 2.69973 13.4139 6.18325C12.5549 6.67675 11.4558 6.38645 10.9608 5.53009C10.4658 4.67372 10.757 3.57787 11.6159 3.08437C15.19 1.03054 19.2008 0 23.2116 0C27.2224 0 31.2333 1.03054 34.8146 3.09162C40.1793 6.17599 44.0227 11.169 45.6241 17.1346C47.2256 23.1001 46.403 29.3341 43.3094 34.6901C42.9745 35.2634 42.3704 35.5827 41.7516 35.5827Z" fill="white"/>
<path fill-rule="evenodd" clip-rule="evenodd" d="M30.8984 24.9145H15.5248C14.5349 24.9145 13.7269 24.1162 13.7269 23.1219C13.7269 22.1349 14.5276 21.3293 15.5248 21.3293H30.8984C31.8884 21.3293 32.6964 22.1276 32.6964 23.1219C32.6964 24.1089 31.8884 24.9145 30.8984 24.9145Z" fill="white"/>
<path fill-rule="evenodd" clip-rule="evenodd" d="M33.912 18.8618H19.7104C18.7204 18.8618 17.9124 18.0635 17.9124 17.0692C17.9124 16.0823 18.7131 15.2767 19.7104 15.2767H33.9193C34.9092 15.2767 35.7172 16.075 35.7172 17.0692C35.7099 18.0635 34.9092 18.8618 33.912 18.8618Z" fill="white"/>
<path fill-rule="evenodd" clip-rule="evenodd" d="M19.7104 18.8618C19.0916 18.8618 18.4874 18.5425 18.1526 17.9692L10.9535 5.53011C10.4585 4.67374 10.7497 3.57789 11.6086 3.08439C12.4676 2.59089 13.5667 2.88118 14.0617 3.73755L21.2608 16.1766C21.7558 17.033 21.4646 18.1288 20.6057 18.6223C20.3218 18.7893 20.0161 18.8618 19.7104 18.8618Z" fill="white"/>
<path fill-rule="evenodd" clip-rule="evenodd" d="M26.7129 30.9598H12.504C11.514 30.9598 10.706 30.1615 10.706 29.1672C10.706 28.1802 11.5067 27.3747 12.504 27.3747H26.7129C27.7028 27.3747 28.5108 28.173 28.5108 29.1672C28.5108 30.1615 27.7028 30.9598 26.7129 30.9598Z" fill="white"/>
<path fill-rule="evenodd" clip-rule="evenodd" d="M33.9193 43.3989C33.3005 43.3989 32.6964 43.0795 32.3615 42.5062L25.1624 30.0671C24.6675 29.2108 24.9586 28.1149 25.8176 27.6214C26.6765 27.1279 27.7757 27.4182 28.2706 28.2746L35.4697 40.7136C35.9647 41.57 35.6735 42.6659 34.8146 43.1594C34.5307 43.3263 34.225 43.3989 33.9193 43.3989Z" fill="white"/>
<path fill-rule="evenodd" clip-rule="evenodd" d="M23.2116 46.2437C19.2008 46.2437 15.19 45.2132 11.6086 43.1521C6.2439 40.0677 2.40051 35.0819 0.799091 29.1091C-0.802323 23.1436 0.0202217 16.9096 3.11386 11.5536C3.60885 10.6973 4.708 10.407 5.56694 10.9005C6.42588 11.394 6.71705 12.4898 6.22206 13.3462C3.60157 17.8675 2.91005 23.1364 4.26397 28.1802C5.62517 33.2313 8.87167 37.4478 13.4066 40.0605C19.4556 43.544 26.9677 43.544 33.0166 40.0605C33.8756 39.567 34.9747 39.8573 35.4697 40.7136C35.9647 41.57 35.6735 42.6659 34.8146 43.1594C31.2333 45.2132 27.2224 46.2437 23.2116 46.2437Z" fill="white"/>
<path d="M61.6601 16.1548H73.9327C74.4132 16.1548 74.6534 16.4379 74.6534 17.0039C74.6534 17.5555 74.4132 17.8313 73.9327 17.8313H61.6601V20.4584C61.6601 21.6559 62.7883 22.251 65.0449 22.251H73.9327C74.4423 22.251 74.697 22.5195 74.697 23.0493C74.697 23.6081 74.4423 23.8839 73.9327 23.8839H64.9794C61.3689 23.8839 59.5637 22.7663 59.5637 20.531V13.4116C59.5637 11.1328 61.4344 9.99336 65.1759 9.99336H67.5999C68.0803 9.99336 68.3205 10.2691 68.3205 10.8207C68.3205 11.3577 68.0803 11.6263 67.5999 11.6263H65.9621C63.0941 11.6263 61.6601 12.2214 61.6601 13.4116V16.1548Z" fill="white"/>
<path d="M93.783 22.5993C93.783 23.0638 93.652 23.4122 93.3972 23.6444C93.1424 23.8766 92.844 23.9928 92.5091 23.9928C92.3635 23.9928 92.2034 23.9637 92.036 23.9057C91.8686 23.8476 91.7011 23.7388 91.541 23.5791L79.2247 12.606V23.1001C79.2247 23.6952 78.8826 23.9928 78.1983 23.9928C77.5286 23.9928 77.1938 23.6952 77.1938 23.1001V11.1908C77.1938 10.7554 77.3248 10.4361 77.5869 10.2401C77.8489 10.0442 78.1401 9.94982 78.4604 9.94982C78.6642 9.94982 78.8534 9.97885 79.0281 10.0224C79.2028 10.0732 79.3703 10.1821 79.5304 10.3417L91.7375 21.0971V10.7336C91.7375 10.1675 92.0869 9.8845 92.7857 9.8845C93.4409 9.8845 93.7684 10.1675 93.7684 10.7336V22.5993H93.783Z" fill="white"/>
<path d="M113 20.277C113 21.8446 112.163 22.9187 110.489 23.4993L111.537 24.0871C111.653 24.1597 111.748 24.2685 111.828 24.4209C111.908 24.5733 111.945 24.704 111.945 24.8201C111.945 25.0668 111.85 25.27 111.661 25.4297C111.471 25.5894 111.253 25.6692 111.006 25.6692C110.86 25.6692 110.692 25.6184 110.503 25.5168L107.599 23.8186H101.746C98.1796 23.8186 96.3962 22.6356 96.3962 20.2697V13.4987C96.3962 11.1618 98.1723 9.99336 101.732 9.99336H107.548C111.18 9.99336 112.993 11.1545 112.993 13.4769V20.277H113ZM110.904 13.4624C110.904 12.2431 109.593 11.6263 106.973 11.6263H102.343C99.781 11.6263 98.4999 12.2359 98.4999 13.4624V20.3351C98.4999 21.6124 99.781 22.2583 102.343 22.2583H107.89C109.899 22.2583 110.904 21.6269 110.904 20.3568V13.4624Z" fill="white"/>
<path d="M60.4226 33.47H65.3724C65.569 33.47 65.6636 33.5861 65.6636 33.8111C65.6636 34.036 65.569 34.1449 65.3724 34.1449H60.4226V35.2045C60.4226 35.6835 60.8812 35.9302 61.7911 35.9302H65.3724C65.5763 35.9302 65.6782 36.0391 65.6782 36.2495C65.6782 36.4745 65.5763 36.5906 65.3724 36.5906H61.762C60.3061 36.5906 59.5782 36.1407 59.5782 35.2408V32.3669C59.5782 31.4452 60.3353 30.988 61.842 30.988H62.8175C63.014 30.988 63.1086 31.0968 63.1086 31.3218C63.1086 31.5395 63.014 31.6484 62.8175 31.6484H62.1623C61.0049 31.6484 60.4299 31.8879 60.4299 32.3669V33.47H60.4226Z" fill="white"/>
<path d="M73.3796 36.069C73.3796 36.2577 73.3286 36.3956 73.2267 36.4899C73.1248 36.5843 73.0083 36.6278 72.87 36.6278C72.8118 36.6278 72.7463 36.6133 72.6808 36.5915C72.6153 36.5698 72.5497 36.5262 72.4842 36.4609L67.5198 32.0339V36.2649C67.5198 36.5044 67.3815 36.6278 67.1049 36.6278C66.8356 36.6278 66.6973 36.5044 66.6973 36.2649V31.4606C66.6973 31.2864 66.7483 31.1558 66.8574 31.0759C66.9666 30.9961 67.0831 30.9598 67.2068 30.9598C67.2869 30.9598 67.367 30.9671 67.4325 30.9889C67.5053 31.0106 67.5708 31.0542 67.6363 31.1195L72.557 35.4594V31.2792C72.557 31.0542 72.6953 30.9381 72.9792 30.9381C73.2413 30.9381 73.3723 31.0542 73.3723 31.2792V36.069H73.3796Z" fill="white"/>
<path d="M75.2867 33.4709H80.2365C80.4331 33.4709 80.5277 33.587 80.5277 33.812C80.5277 34.0369 80.4331 34.1458 80.2365 34.1458H75.2867V35.2054C75.2867 35.6844 75.7453 35.9311 76.6552 35.9311H80.2365C80.4403 35.9311 80.5422 36.04 80.5422 36.2504C80.5422 36.4754 80.4403 36.5915 80.2365 36.5915H76.626C75.1702 36.5915 74.4423 36.1416 74.4423 35.2417V32.3678C74.4423 31.4461 75.1993 30.9889 76.7061 30.9889H77.6815C77.8781 30.9889 77.9727 31.0977 77.9727 31.3227C77.9727 31.5404 77.8781 31.6493 77.6815 31.6493H77.0191C75.8617 31.6493 75.2867 31.8888 75.2867 32.3678V33.4709Z" fill="white"/>
<path d="M83.716 31.642C82.7769 31.642 82.3038 31.8597 82.3038 32.3024V35.1618C82.3038 35.6698 82.8206 35.9238 83.8543 35.9238H86.9333C87.1372 35.9238 87.2391 36.0327 87.2391 36.2432C87.2391 36.4681 87.1372 36.5843 86.9333 36.5843H83.7378C82.231 36.5843 81.474 36.1125 81.474 35.1763V32.2952C81.474 31.417 82.2092 30.9744 83.6868 30.9744H86.9333C87.1372 30.9744 87.2391 31.0832 87.2391 31.3009C87.2391 31.5259 87.1372 31.6348 86.9333 31.6348H83.716V31.642Z" fill="white"/>
<path d="M94.8531 35.0385C94.8531 36.069 93.9286 36.5843 92.0797 36.5843H90.8204C89.0734 36.5843 88.2072 36.069 88.2072 35.0385V31.2792C88.2072 31.0542 88.3455 30.9381 88.6148 30.9381C88.906 30.9381 89.0516 31.0542 89.0516 31.2792V34.9804C89.0516 35.6045 89.6048 35.9238 90.704 35.9238H92.2253C93.4264 35.9238 94.0305 35.6118 94.0305 34.9804V31.2792C94.0305 31.0542 94.1688 30.9381 94.4454 30.9381C94.7221 30.9381 94.8604 31.0542 94.8604 31.2792V35.0385H94.8531Z" fill="white"/>
<path d="M102.562 35.0385C102.562 36.069 101.637 36.5843 99.7883 36.5843H98.529C96.782 36.5843 95.9158 36.069 95.9158 35.0385V31.2792C95.9158 31.0542 96.0541 30.9381 96.3235 30.9381C96.6146 30.9381 96.7602 31.0542 96.7602 31.2792V34.9804C96.7602 35.6045 97.3134 35.9238 98.4126 35.9238H99.9339C101.135 35.9238 101.739 35.6118 101.739 34.9804V31.2792C101.739 31.0542 101.877 30.9381 102.154 30.9381C102.431 30.9381 102.569 31.0542 102.569 31.2792V35.0385H102.562Z" fill="white"/>
<path d="M112.796 36.2722C112.796 36.5117 112.651 36.6351 112.367 36.6351C112.105 36.6351 111.974 36.5117 111.974 36.2722V32.1863L108.829 36.3303C108.683 36.5262 108.494 36.6278 108.269 36.6278C108.021 36.6278 107.825 36.5262 107.679 36.3303L104.483 32.1936V36.2649C104.483 36.5044 104.345 36.6278 104.076 36.6278C103.799 36.6278 103.661 36.5044 103.661 36.2649V31.4098C103.661 31.0905 103.814 30.9381 104.127 30.9381C104.345 30.9381 104.527 31.0324 104.68 31.2284L108.276 35.8005L111.799 31.1848C111.93 31.0179 112.097 30.9381 112.308 30.9381C112.636 30.9381 112.803 31.105 112.803 31.4316V36.2722H112.796Z" fill="white"/>
</svg>
