<svg width="1440" height="351" viewBox="0 0 1440 351" fill="none" xmlns="http://www.w3.org/2000/svg">
<rect width="1440" height="351" fill="#2886F0"/>
<mask id="mask0" mask-type="alpha" maskUnits="userSpaceOnUse" x="0" y="0" width="1440" height="351">
<rect width="1440" height="351" fill="#2886F0"/>
</mask>
<g mask="url(#mask0)">
<path d="M330.317 -143.769C330.893 -143.769 331.36 -144.236 331.36 -144.812C331.36 -145.387 330.893 -145.854 330.317 -145.854C329.741 -145.854 329.274 -145.387 329.274 -144.812C329.274 -144.236 329.741 -143.769 330.317 -143.769Z" fill="white" fill-opacity="0.44"/>
<path d="M326.667 -143.769C327.243 -143.769 327.71 -144.236 327.71 -144.812C327.71 -145.387 327.243 -145.854 326.667 -145.854C326.091 -145.854 325.624 -145.387 325.624 -144.812C325.624 -144.236 326.091 -143.769 326.667 -143.769Z" fill="white" fill-opacity="0.44"/>
<path d="M335.011 -144.812C335.011 -144.236 334.544 -143.769 333.968 -143.769C333.392 -143.769 332.925 -144.236 332.925 -144.812C332.925 -145.387 333.392 -145.854 333.968 -145.854C334.544 -145.854 335.011 -145.387 335.011 -144.812Z" fill="white" fill-opacity="0.44"/>
<path fill-rule="evenodd" clip-rule="evenodd" d="M212.112 -164.618C213.455 -164.618 214.543 -163.53 214.543 -162.188V-161.491C214.543 -155.446 219.446 -150.545 225.495 -150.545H300.07C306.118 -150.545 311.021 -155.446 311.021 -161.491V-162.188C311.021 -163.53 312.11 -164.618 313.452 -164.618H330.317C341.262 -164.618 350.134 -155.75 350.134 -144.812V188.769C350.134 199.708 341.262 208.576 330.317 208.576H194.726C183.781 208.576 174.909 199.708 174.909 188.769V-144.812C174.909 -155.75 183.781 -164.618 194.726 -164.618H212.112ZM212.112 -163.403H194.726C184.452 -163.403 176.124 -155.079 176.124 -144.812V188.769C176.124 199.037 184.452 207.361 194.726 207.361H330.317C340.591 207.361 348.919 199.037 348.919 188.769V-144.812C348.919 -155.079 340.591 -163.403 330.317 -163.403H313.452C312.781 -163.403 312.237 -162.859 312.237 -162.188V-161.491C312.237 -154.775 306.79 -149.33 300.07 -149.33H225.495C218.775 -149.33 213.327 -154.775 213.327 -161.491V-162.188C213.327 -162.859 212.783 -163.403 212.112 -163.403Z" fill="white" fill-opacity="0.44"/>
<path fill-rule="evenodd" clip-rule="evenodd" d="M249.484 -160.709C249.484 -161.716 250.301 -162.533 251.309 -162.533H271.648C272.656 -162.533 273.473 -161.716 273.473 -160.709C273.473 -159.701 272.656 -158.885 271.648 -158.885H251.309C250.301 -158.885 249.484 -159.701 249.484 -160.709ZM251.309 -161.318H271.648C271.985 -161.318 272.258 -161.045 272.258 -160.709C272.258 -160.372 271.985 -160.099 271.648 -160.099H251.309C250.972 -160.099 250.699 -160.372 250.699 -160.709C250.699 -161.045 250.972 -161.318 251.309 -161.318Z" fill="white" fill-opacity="0.44"/>
<path fill-rule="evenodd" clip-rule="evenodd" d="M283.121 -157.842C284.705 -157.842 285.989 -159.126 285.989 -160.709C285.989 -162.292 284.705 -163.576 283.121 -163.576C281.537 -163.576 280.253 -162.292 280.253 -160.709C280.253 -159.126 281.537 -157.842 283.121 -157.842ZM283.121 -159.057C284.034 -159.057 284.774 -159.797 284.774 -160.709C284.774 -161.621 284.034 -162.361 283.121 -162.361C282.208 -162.361 281.468 -161.621 281.468 -160.709C281.468 -159.797 282.208 -159.057 283.121 -159.057Z" fill="white" fill-opacity="0.44"/>
<path fill-rule="evenodd" clip-rule="evenodd" d="M194.172 -174C178.061 -174 165 -160.946 165 -144.844V189.844C165 205.946 178.061 219 194.172 219H329.828C345.939 219 359 205.946 359 189.844V-144.844C359 -160.946 345.939 -174 329.828 -174H194.172ZM329.828 -172.785H194.172C178.732 -172.785 166.216 -160.275 166.216 -144.844V189.844C166.216 205.275 178.732 217.785 194.172 217.785H329.828C345.268 217.785 357.784 205.275 357.784 189.844V-144.844C357.784 -160.275 345.268 -172.785 329.828 -172.785Z" fill="white" fill-opacity="0.44"/>
<path d="M1240.32 -143.769C1240.89 -143.769 1241.36 -144.236 1241.36 -144.812C1241.36 -145.387 1240.89 -145.854 1240.32 -145.854C1239.74 -145.854 1239.27 -145.387 1239.27 -144.812C1239.27 -144.236 1239.74 -143.769 1240.32 -143.769Z" fill="white" fill-opacity="0.44"/>
<path d="M1236.67 -143.769C1237.24 -143.769 1237.71 -144.236 1237.71 -144.812C1237.71 -145.387 1237.24 -145.854 1236.67 -145.854C1236.09 -145.854 1235.62 -145.387 1235.62 -144.812C1235.62 -144.236 1236.09 -143.769 1236.67 -143.769Z" fill="white" fill-opacity="0.44"/>
<path d="M1245.01 -144.812C1245.01 -144.236 1244.54 -143.769 1243.97 -143.769C1243.39 -143.769 1242.92 -144.236 1242.92 -144.812C1242.92 -145.387 1243.39 -145.854 1243.97 -145.854C1244.54 -145.854 1245.01 -145.387 1245.01 -144.812Z" fill="white" fill-opacity="0.44"/>
<path fill-rule="evenodd" clip-rule="evenodd" d="M1122.11 -164.618C1123.45 -164.618 1124.54 -163.53 1124.54 -162.188V-161.491C1124.54 -155.446 1129.45 -150.545 1135.49 -150.545H1210.07C1216.12 -150.545 1221.02 -155.446 1221.02 -161.491V-162.188C1221.02 -163.53 1222.11 -164.618 1223.45 -164.618H1240.32C1251.26 -164.618 1260.13 -155.75 1260.13 -144.812V188.769C1260.13 199.708 1251.26 208.576 1240.32 208.576H1104.73C1093.78 208.576 1084.91 199.708 1084.91 188.769V-144.812C1084.91 -155.75 1093.78 -164.618 1104.73 -164.618H1122.11ZM1122.11 -163.403H1104.73C1094.45 -163.403 1086.12 -155.079 1086.12 -144.812V188.769C1086.12 199.037 1094.45 207.361 1104.73 207.361H1240.32C1250.59 207.361 1258.92 199.037 1258.92 188.769V-144.812C1258.92 -155.079 1250.59 -163.403 1240.32 -163.403H1223.45C1222.78 -163.403 1222.24 -162.859 1222.24 -162.188V-161.491C1222.24 -154.775 1216.79 -149.33 1210.07 -149.33H1135.49C1128.77 -149.33 1123.33 -154.775 1123.33 -161.491V-162.188C1123.33 -162.859 1122.78 -163.403 1122.11 -163.403Z" fill="white" fill-opacity="0.44"/>
<path fill-rule="evenodd" clip-rule="evenodd" d="M1159.48 -160.709C1159.48 -161.716 1160.3 -162.533 1161.31 -162.533H1181.65C1182.66 -162.533 1183.47 -161.716 1183.47 -160.709C1183.47 -159.701 1182.66 -158.885 1181.65 -158.885H1161.31C1160.3 -158.885 1159.48 -159.701 1159.48 -160.709ZM1161.31 -161.318H1181.65C1181.98 -161.318 1182.26 -161.045 1182.26 -160.709C1182.26 -160.372 1181.98 -160.099 1181.65 -160.099H1161.31C1160.97 -160.099 1160.7 -160.372 1160.7 -160.709C1160.7 -161.045 1160.97 -161.318 1161.31 -161.318Z" fill="white" fill-opacity="0.44"/>
<path fill-rule="evenodd" clip-rule="evenodd" d="M1193.12 -157.842C1194.7 -157.842 1195.99 -159.126 1195.99 -160.709C1195.99 -162.292 1194.7 -163.576 1193.12 -163.576C1191.54 -163.576 1190.25 -162.292 1190.25 -160.709C1190.25 -159.126 1191.54 -157.842 1193.12 -157.842ZM1193.12 -159.057C1194.03 -159.057 1194.77 -159.797 1194.77 -160.709C1194.77 -161.621 1194.03 -162.361 1193.12 -162.361C1192.21 -162.361 1191.47 -161.621 1191.47 -160.709C1191.47 -159.797 1192.21 -159.057 1193.12 -159.057Z" fill="white" fill-opacity="0.44"/>
<path fill-rule="evenodd" clip-rule="evenodd" d="M1104.17 -174C1088.06 -174 1075 -160.946 1075 -144.844V189.844C1075 205.946 1088.06 219 1104.17 219H1239.83C1255.94 219 1269 205.946 1269 189.844V-144.844C1269 -160.946 1255.94 -174 1239.83 -174H1104.17ZM1239.83 -172.785H1104.17C1088.73 -172.785 1076.22 -160.275 1076.22 -144.844V189.844C1076.22 205.275 1088.73 217.785 1104.17 217.785H1239.83C1255.27 217.785 1267.78 205.275 1267.78 189.844V-144.844C1267.78 -160.275 1255.27 -172.785 1239.83 -172.785Z" fill="white" fill-opacity="0.44"/>
<path d="M571.317 156.231C571.893 156.231 572.36 155.764 572.36 155.188C572.36 154.613 571.893 154.146 571.317 154.146C570.741 154.146 570.274 154.613 570.274 155.188C570.274 155.764 570.741 156.231 571.317 156.231Z" fill="white" fill-opacity="0.44"/>
<path d="M567.667 156.231C568.243 156.231 568.71 155.764 568.71 155.188C568.71 154.613 568.243 154.146 567.667 154.146C567.091 154.146 566.624 154.613 566.624 155.188C566.624 155.764 567.091 156.231 567.667 156.231Z" fill="white" fill-opacity="0.44"/>
<path d="M576.011 155.188C576.011 155.764 575.544 156.231 574.968 156.231C574.392 156.231 573.925 155.764 573.925 155.188C573.925 154.613 574.392 154.146 574.968 154.146C575.544 154.146 576.011 154.613 576.011 155.188Z" fill="white" fill-opacity="0.44"/>
<path fill-rule="evenodd" clip-rule="evenodd" d="M453.112 135.382C454.455 135.382 455.543 136.47 455.543 137.812V138.509C455.543 144.554 460.446 149.455 466.495 149.455H541.07C547.118 149.455 552.021 144.554 552.021 138.509V137.812C552.021 136.47 553.11 135.382 554.452 135.382H571.317C582.262 135.382 591.134 144.25 591.134 155.188V488.769C591.134 499.708 582.262 508.576 571.317 508.576H435.726C424.781 508.576 415.909 499.708 415.909 488.769V155.188C415.909 144.25 424.781 135.382 435.726 135.382H453.112ZM453.112 136.597H435.726C425.452 136.597 417.124 144.921 417.124 155.188V488.769C417.124 499.037 425.452 507.361 435.726 507.361H571.317C581.591 507.361 589.919 499.037 589.919 488.769V155.188C589.919 144.921 581.591 136.597 571.317 136.597H554.452C553.781 136.597 553.237 137.141 553.237 137.812V138.509C553.237 145.225 547.79 150.67 541.07 150.67H466.495C459.775 150.67 454.327 145.225 454.327 138.509V137.812C454.327 137.141 453.783 136.597 453.112 136.597Z" fill="white" fill-opacity="0.44"/>
<path fill-rule="evenodd" clip-rule="evenodd" d="M490.484 139.291C490.484 138.284 491.301 137.467 492.309 137.467H512.648C513.656 137.467 514.473 138.284 514.473 139.291C514.473 140.299 513.656 141.115 512.648 141.115H492.309C491.301 141.115 490.484 140.299 490.484 139.291ZM492.309 138.682H512.648C512.985 138.682 513.258 138.955 513.258 139.291C513.258 139.628 512.985 139.901 512.648 139.901H492.309C491.972 139.901 491.699 139.628 491.699 139.291C491.699 138.955 491.972 138.682 492.309 138.682Z" fill="white" fill-opacity="0.44"/>
<path fill-rule="evenodd" clip-rule="evenodd" d="M524.121 142.158C525.705 142.158 526.989 140.874 526.989 139.291C526.989 137.708 525.705 136.424 524.121 136.424C522.537 136.424 521.253 137.708 521.253 139.291C521.253 140.874 522.537 142.158 524.121 142.158ZM524.121 140.943C525.034 140.943 525.774 140.203 525.774 139.291C525.774 138.379 525.034 137.639 524.121 137.639C523.208 137.639 522.468 138.379 522.468 139.291C522.468 140.203 523.208 140.943 524.121 140.943Z" fill="white" fill-opacity="0.44"/>
<path fill-rule="evenodd" clip-rule="evenodd" d="M435.172 126C419.061 126 406 139.054 406 155.156V489.844C406 505.946 419.061 519 435.172 519H570.828C586.939 519 600 505.946 600 489.844V155.156C600 139.054 586.939 126 570.828 126H435.172ZM570.828 127.215H435.172C419.732 127.215 407.216 139.725 407.216 155.156V489.844C407.216 505.275 419.732 517.785 435.172 517.785H570.828C586.268 517.785 598.784 505.275 598.784 489.844V155.156C598.784 139.725 586.268 127.215 570.828 127.215Z" fill="white" fill-opacity="0.44"/>
<path d="M994.317 156.231C994.893 156.231 995.36 155.764 995.36 155.188C995.36 154.613 994.893 154.146 994.317 154.146C993.741 154.146 993.274 154.613 993.274 155.188C993.274 155.764 993.741 156.231 994.317 156.231Z" fill="white" fill-opacity="0.44"/>
<path d="M990.667 156.231C991.243 156.231 991.71 155.764 991.71 155.188C991.71 154.613 991.243 154.146 990.667 154.146C990.091 154.146 989.624 154.613 989.624 155.188C989.624 155.764 990.091 156.231 990.667 156.231Z" fill="white" fill-opacity="0.44"/>
<path d="M999.011 155.188C999.011 155.764 998.544 156.231 997.968 156.231C997.392 156.231 996.925 155.764 996.925 155.188C996.925 154.613 997.392 154.146 997.968 154.146C998.544 154.146 999.011 154.613 999.011 155.188Z" fill="white" fill-opacity="0.44"/>
<path fill-rule="evenodd" clip-rule="evenodd" d="M876.112 135.382C877.455 135.382 878.543 136.47 878.543 137.812V138.509C878.543 144.554 883.446 149.455 889.495 149.455H964.07C970.118 149.455 975.021 144.554 975.021 138.509V137.812C975.021 136.47 976.11 135.382 977.452 135.382H994.317C1005.26 135.382 1014.13 144.25 1014.13 155.188V488.769C1014.13 499.708 1005.26 508.576 994.317 508.576H858.726C847.781 508.576 838.909 499.708 838.909 488.769V155.188C838.909 144.25 847.781 135.382 858.726 135.382H876.112ZM876.112 136.597H858.726C848.452 136.597 840.124 144.921 840.124 155.188V488.769C840.124 499.037 848.452 507.361 858.726 507.361H994.317C1004.59 507.361 1012.92 499.037 1012.92 488.769V155.188C1012.92 144.921 1004.59 136.597 994.317 136.597H977.452C976.781 136.597 976.237 137.141 976.237 137.812V138.509C976.237 145.225 970.79 150.67 964.07 150.67H889.495C882.775 150.67 877.327 145.225 877.327 138.509V137.812C877.327 137.141 876.783 136.597 876.112 136.597Z" fill="white" fill-opacity="0.44"/>
<path fill-rule="evenodd" clip-rule="evenodd" d="M913.484 139.291C913.484 138.284 914.301 137.467 915.309 137.467H935.648C936.656 137.467 937.473 138.284 937.473 139.291C937.473 140.299 936.656 141.115 935.648 141.115H915.309C914.301 141.115 913.484 140.299 913.484 139.291ZM915.309 138.682H935.648C935.985 138.682 936.258 138.955 936.258 139.291C936.258 139.628 935.985 139.901 935.648 139.901H915.309C914.972 139.901 914.699 139.628 914.699 139.291C914.699 138.955 914.972 138.682 915.309 138.682Z" fill="white" fill-opacity="0.44"/>
<path fill-rule="evenodd" clip-rule="evenodd" d="M947.121 142.158C948.705 142.158 949.989 140.874 949.989 139.291C949.989 137.708 948.705 136.424 947.121 136.424C945.537 136.424 944.253 137.708 944.253 139.291C944.253 140.874 945.537 142.158 947.121 142.158ZM947.121 140.943C948.034 140.943 948.774 140.203 948.774 139.291C948.774 138.379 948.034 137.639 947.121 137.639C946.208 137.639 945.468 138.379 945.468 139.291C945.468 140.203 946.208 140.943 947.121 140.943Z" fill="white" fill-opacity="0.44"/>
<path fill-rule="evenodd" clip-rule="evenodd" d="M858.172 126C842.061 126 829 139.054 829 155.156V489.844C829 505.946 842.061 519 858.172 519H993.828C1009.94 519 1023 505.946 1023 489.844V155.156C1023 139.054 1009.94 126 993.828 126H858.172ZM993.828 127.215H858.172C842.732 127.215 830.216 139.725 830.216 155.156V489.844C830.216 505.275 842.732 517.785 858.172 517.785H993.828C1009.27 517.785 1021.78 505.275 1021.78 489.844V155.156C1021.78 139.725 1009.27 127.215 993.828 127.215Z" fill="white" fill-opacity="0.44"/>
<path d="M1480.32 156.231C1480.89 156.231 1481.36 155.764 1481.36 155.188C1481.36 154.613 1480.89 154.146 1480.32 154.146C1479.74 154.146 1479.27 154.613 1479.27 155.188C1479.27 155.764 1479.74 156.231 1480.32 156.231Z" fill="white" fill-opacity="0.44"/>
<path d="M1476.67 156.231C1477.24 156.231 1477.71 155.764 1477.71 155.188C1477.71 154.613 1477.24 154.146 1476.67 154.146C1476.09 154.146 1475.62 154.613 1475.62 155.188C1475.62 155.764 1476.09 156.231 1476.67 156.231Z" fill="white" fill-opacity="0.44"/>
<path d="M1485.01 155.188C1485.01 155.764 1484.54 156.231 1483.97 156.231C1483.39 156.231 1482.92 155.764 1482.92 155.188C1482.92 154.613 1483.39 154.146 1483.97 154.146C1484.54 154.146 1485.01 154.613 1485.01 155.188Z" fill="white" fill-opacity="0.44"/>
<path fill-rule="evenodd" clip-rule="evenodd" d="M1362.11 135.382C1363.45 135.382 1364.54 136.47 1364.54 137.812V138.509C1364.54 144.554 1369.45 149.455 1375.49 149.455H1450.07C1456.12 149.455 1461.02 144.554 1461.02 138.509V137.812C1461.02 136.47 1462.11 135.382 1463.45 135.382H1480.32C1491.26 135.382 1500.13 144.25 1500.13 155.188V488.769C1500.13 499.708 1491.26 508.576 1480.32 508.576H1344.73C1333.78 508.576 1324.91 499.708 1324.91 488.769V155.188C1324.91 144.25 1333.78 135.382 1344.73 135.382H1362.11ZM1362.11 136.597H1344.73C1334.45 136.597 1326.12 144.921 1326.12 155.188V488.769C1326.12 499.037 1334.45 507.361 1344.73 507.361H1480.32C1490.59 507.361 1498.92 499.037 1498.92 488.769V155.188C1498.92 144.921 1490.59 136.597 1480.32 136.597H1463.45C1462.78 136.597 1462.24 137.141 1462.24 137.812V138.509C1462.24 145.225 1456.79 150.67 1450.07 150.67H1375.49C1368.77 150.67 1363.33 145.225 1363.33 138.509V137.812C1363.33 137.141 1362.78 136.597 1362.11 136.597Z" fill="white" fill-opacity="0.44"/>
<path fill-rule="evenodd" clip-rule="evenodd" d="M1399.48 139.291C1399.48 138.284 1400.3 137.467 1401.31 137.467H1421.65C1422.66 137.467 1423.47 138.284 1423.47 139.291C1423.47 140.299 1422.66 141.115 1421.65 141.115H1401.31C1400.3 141.115 1399.48 140.299 1399.48 139.291ZM1401.31 138.682H1421.65C1421.98 138.682 1422.26 138.955 1422.26 139.291C1422.26 139.628 1421.98 139.901 1421.65 139.901H1401.31C1400.97 139.901 1400.7 139.628 1400.7 139.291C1400.7 138.955 1400.97 138.682 1401.31 138.682Z" fill="white" fill-opacity="0.44"/>
<path fill-rule="evenodd" clip-rule="evenodd" d="M1433.12 142.158C1434.7 142.158 1435.99 140.874 1435.99 139.291C1435.99 137.708 1434.7 136.424 1433.12 136.424C1431.54 136.424 1430.25 137.708 1430.25 139.291C1430.25 140.874 1431.54 142.158 1433.12 142.158ZM1433.12 140.943C1434.03 140.943 1434.77 140.203 1434.77 139.291C1434.77 138.379 1434.03 137.639 1433.12 137.639C1432.21 137.639 1431.47 138.379 1431.47 139.291C1431.47 140.203 1432.21 140.943 1433.12 140.943Z" fill="white" fill-opacity="0.44"/>
<path fill-rule="evenodd" clip-rule="evenodd" d="M1344.17 126C1328.06 126 1315 139.054 1315 155.156V489.844C1315 505.946 1328.06 519 1344.17 519H1479.83C1495.94 519 1509 505.946 1509 489.844V155.156C1509 139.054 1495.94 126 1479.83 126H1344.17ZM1479.83 127.215H1344.17C1328.73 127.215 1316.22 139.725 1316.22 155.156V489.844C1316.22 505.275 1328.73 517.785 1344.17 517.785H1479.83C1495.27 517.785 1507.78 505.275 1507.78 489.844V155.156C1507.78 139.725 1495.27 127.215 1479.83 127.215Z" fill="white" fill-opacity="0.44"/>
<path d="M87.3172 156.231C87.8932 156.231 88.3602 155.764 88.3602 155.188C88.3602 154.613 87.8932 154.146 87.3172 154.146C86.7411 154.146 86.2742 154.613 86.2742 155.188C86.2742 155.764 86.7411 156.231 87.3172 156.231Z" fill="white" fill-opacity="0.44"/>
<path d="M83.6668 156.231C84.2428 156.231 84.7098 155.764 84.7098 155.188C84.7098 154.613 84.2428 154.146 83.6668 154.146C83.0907 154.146 82.6238 154.613 82.6238 155.188C82.6238 155.764 83.0907 156.231 83.6668 156.231Z" fill="white" fill-opacity="0.44"/>
<path d="M92.0107 155.188C92.0107 155.764 91.5438 156.231 90.9677 156.231C90.3917 156.231 89.9247 155.764 89.9247 155.188C89.9247 154.613 90.3917 154.146 90.9677 154.146C91.5438 154.146 92.0107 154.613 92.0107 155.188Z" fill="white" fill-opacity="0.44"/>
<path fill-rule="evenodd" clip-rule="evenodd" d="M-30.888 135.382C-29.5454 135.382 -28.457 136.47 -28.457 137.812V138.509C-28.457 144.554 -23.5538 149.455 -17.5054 149.455H57.0699C63.1183 149.455 68.0215 144.554 68.0215 138.509V137.812C68.0215 136.47 69.1099 135.382 70.4525 135.382H87.3172C98.2619 135.382 107.134 144.25 107.134 155.188V488.769C107.134 499.708 98.2619 508.576 87.3172 508.576H-48.2742C-59.2189 508.576 -68.0914 499.708 -68.0914 488.769V155.188C-68.0914 144.25 -59.2189 135.382 -48.2742 135.382H-30.888ZM-30.888 136.597H-48.2742C-58.5476 136.597 -66.8759 144.921 -66.8759 155.188V488.769C-66.8759 499.037 -58.5476 507.361 -48.2742 507.361H87.3172C97.5906 507.361 105.919 499.037 105.919 488.769V155.188C105.919 144.921 97.5906 136.597 87.3172 136.597H70.4525C69.7812 136.597 69.237 137.141 69.237 137.812V138.509C69.237 145.225 63.7896 150.67 57.0699 150.67H-17.5054C-24.2251 150.67 -29.6725 145.225 -29.6725 138.509V137.812C-29.6725 137.141 -30.2167 136.597 -30.888 136.597Z" fill="white" fill-opacity="0.44"/>
<path fill-rule="evenodd" clip-rule="evenodd" d="M6.48393 139.291C6.48393 138.284 7.30114 137.467 8.30921 137.467H28.6479C29.656 137.467 30.4732 138.284 30.4732 139.291C30.4732 140.299 29.656 141.115 28.6479 141.115H8.30921C7.30114 141.115 6.48393 140.299 6.48393 139.291ZM8.30921 138.682H28.6479C28.9847 138.682 29.2577 138.955 29.2577 139.291C29.2577 139.628 28.9847 139.901 28.6479 139.901H8.30921C7.97243 139.901 7.69944 139.628 7.69944 139.291C7.69944 138.955 7.97243 138.682 8.30921 138.682Z" fill="white" fill-opacity="0.44"/>
<path fill-rule="evenodd" clip-rule="evenodd" d="M40.1208 142.158C41.7049 142.158 42.9891 140.874 42.9891 139.291C42.9891 137.708 41.7049 136.424 40.1208 136.424C38.5367 136.424 37.2525 137.708 37.2525 139.291C37.2525 140.874 38.5367 142.158 40.1208 142.158ZM40.1208 140.943C41.0336 140.943 41.7736 140.203 41.7736 139.291C41.7736 138.379 41.0336 137.639 40.1208 137.639C39.208 137.639 38.468 138.379 38.468 139.291C38.468 140.203 39.208 140.943 40.1208 140.943Z" fill="white" fill-opacity="0.44"/>
<path fill-rule="evenodd" clip-rule="evenodd" d="M-48.8279 126C-64.9392 126 -78 139.054 -78 155.156V489.844C-78 505.946 -64.9393 519 -48.828 519H86.8279C102.939 519 116 505.946 116 489.844V155.156C116 139.054 102.939 126 86.8279 126H-48.8279ZM86.8279 127.215H-48.8279C-64.2679 127.215 -76.7845 139.725 -76.7845 155.156V489.844C-76.7845 505.275 -64.268 517.785 -48.828 517.785H86.8279C102.268 517.785 114.784 505.275 114.784 489.844V155.156C114.784 139.725 102.268 127.215 86.8279 127.215Z" fill="white" fill-opacity="0.44"/>
</g>
</svg>
