<svg width="484" height="294" viewBox="0 0 484 294" fill="none" xmlns="http://www.w3.org/2000/svg">
<g clip-path="url(#clip0)">
<path d="M169.32 290.792L475.697 113.644C486.787 107.228 486.787 91.1881 475.697 84.7723L338.165 5.22772C330.811 1.0099 321.797 1.0099 314.443 5.22772L18.7409 176.257C2.90607 185.406 2.90607 208.277 18.7409 217.426L145.597 290.792C152.951 295.01 161.966 295.01 169.32 290.792Z" fill="#F5F5F5"/>
<path d="M143.64 282.594C147.97 282.594 152.299 281.465 156.035 279.267L439.224 115.485C446.993 110.97 451.619 102.95 451.619 93.9802C451.619 85.0099 446.993 76.9901 439.224 72.4752L321.441 4.39604C317.645 2.19802 313.375 1.06931 308.987 1.06931C304.598 1.06931 300.328 2.19802 296.532 4.39604L13.4625 168.119C5.69339 172.634 1.0675 180.653 1.0675 189.624C1.0675 198.594 5.69339 206.614 13.4625 211.129L131.245 279.267C135.041 281.465 139.311 282.594 143.64 282.594Z" fill="white"/>
<path d="M12.9287 167.228L296.058 3.50495C299.972 1.18812 304.479 0 309.046 0C313.613 0 318.06 1.18812 322.034 3.50495L439.757 71.5842C447.823 76.2772 452.686 84.6535 452.686 93.9802C452.686 103.307 447.882 111.683 439.757 116.376L156.569 280.158C152.655 282.416 148.207 283.604 143.64 283.604C139.133 283.604 134.626 282.416 130.711 280.158L12.8694 212.02C4.80374 207.327 -0.0593872 198.95 -0.0593872 189.624C-6.10352e-05 180.297 4.86307 171.921 12.9287 167.228ZM320.967 5.28713C317.29 3.14851 313.138 2.07921 309.046 2.07921C304.954 2.07921 300.802 3.14851 297.125 5.28713L27.4588 161.228L20.6979 165.148L13.937 169.069C13.5811 169.248 13.2846 169.485 12.9287 169.723C12.6322 169.901 12.3357 170.079 12.0984 170.317C12.0392 170.376 11.9798 170.376 11.9798 170.436C5.2189 175.723 5.75266 186.475 13.4625 190.931L131.779 259.247C135.456 261.386 139.548 262.455 143.64 262.455C147.732 262.455 151.824 261.386 155.501 259.247L438.453 95.6436C447.052 90.6535 447.052 78.2376 438.453 73.2475L434.183 70.7525L320.967 5.28713ZM13.937 210.238L131.779 278.376C135.456 280.515 139.548 281.584 143.64 281.584C147.732 281.584 151.824 280.515 155.501 278.376L438.749 114.594C452.449 106.693 454.287 88.5148 444.324 77.8218C445.391 79.7822 445.985 82.0396 445.985 84.4158C445.985 89.4653 443.375 93.9802 438.986 96.5346L156.095 260.139C152.358 262.337 148.029 263.465 143.699 263.465C139.37 263.465 135.041 262.337 131.304 260.139L12.988 191.703C8.77728 189.267 6.28641 184.931 6.28641 180.059C6.28641 178.158 6.70157 176.317 7.41327 174.653C-1.4234 185.465 0.770935 202.634 13.937 210.238Z" fill="#B7B7B7"/>
<path d="M171.218 243.564C172.107 243.564 173.056 243.327 173.887 242.851L417.102 102.178C417.755 101.822 418.17 101.109 418.17 100.337C418.17 99.5644 417.755 98.9109 417.102 98.4951L284.078 21.6238C282.417 20.6733 280.401 20.6733 278.8 21.6238L35.5245 162.297C34.8722 162.653 34.457 163.366 34.457 164.139C34.457 164.911 34.8722 165.564 35.5245 165.98L168.608 242.851C169.379 243.327 170.328 243.564 171.218 243.564ZM173.353 241.96C172.048 242.733 170.387 242.733 169.083 241.96L36.0583 165.03C35.7025 164.851 35.5245 164.495 35.5245 164.079C35.5245 163.663 35.7025 163.366 36.0583 163.129L279.333 22.5149C280.638 21.7426 282.299 21.7426 283.603 22.5149L416.628 99.4456C416.984 99.6238 417.162 99.9802 417.162 100.396C417.162 100.812 416.984 101.109 416.628 101.347L173.353 241.96Z" fill="#B7B7B7"/>
<path d="M90.7982 222.475C93.1704 222.475 95.4834 222 97.2032 220.99L98.2115 220.396C99.9313 219.386 100.94 217.96 100.94 216.416C100.94 214.574 99.5755 212.733 97.2032 211.366L89.0782 206.673C84.7489 204.178 78.1659 203.881 74.4296 206.079L73.4214 206.673C71.7015 207.683 70.6932 209.109 70.6932 210.653C70.6932 212.495 72.0573 214.337 74.4296 215.703L82.4952 220.396C84.8675 221.762 87.8921 222.475 90.7982 222.475ZM80.8347 205.604C83.5035 205.604 86.3502 206.257 88.6038 207.564L96.7288 212.257C98.7452 213.446 99.9314 214.99 99.9314 216.416C99.9314 217.604 99.1604 218.733 97.737 219.505L96.7288 220.099C93.2297 222.119 87.1211 221.822 83.0883 219.505L74.9633 214.812C72.9469 213.624 71.7608 212.079 71.7608 210.653C71.7608 209.465 72.5317 208.337 73.9551 207.564L74.9633 206.97C76.5053 206.02 78.581 205.604 80.8347 205.604Z" fill="#B7B7B7"/>
<path d="M369.598 47.4059C368.649 47.9406 368.649 48.8317 369.598 49.3663C370.547 49.901 372.089 49.901 373.038 49.3663C373.986 48.8317 373.986 47.9406 373.038 47.4059C372.089 46.8713 370.547 46.8713 369.598 47.4059Z" fill="#B7B7B7"/>
<path d="M374.046 62.9109C374.817 62.9109 375.528 62.7327 376.122 62.4356L376.418 62.2574C377.07 61.901 377.367 61.3663 377.367 60.7723C377.367 60.1188 376.892 59.4653 376.122 58.9901L352.518 45.3267C351.153 44.5545 349.078 44.4356 347.892 45.1485L347.595 45.3267C346.943 45.6832 346.646 46.2178 346.646 46.8119C346.646 47.4653 347.121 48.1188 347.892 48.5941L371.496 62.2574C372.207 62.6733 373.156 62.9109 374.046 62.9109ZM349.967 45.6832C350.679 45.6832 351.45 45.8614 352.043 46.2178L375.647 59.8812C376.122 60.1782 376.418 60.4752 376.418 60.7723C376.418 61.0693 376.122 61.2475 375.944 61.3663L375.647 61.5446C374.757 62.0792 373.097 61.9604 372.029 61.3663L348.425 47.703C347.951 47.4059 347.654 47.1089 347.654 46.8119C347.654 46.5149 347.951 46.3366 348.129 46.2178L348.425 46.0396C348.781 45.802 349.374 45.6832 349.967 45.6832Z" fill="#B7B7B7"/>
<path d="M75.5564 239.465C75.8529 239.465 76.0901 239.406 76.3867 239.228C77.0391 238.871 77.3949 238.04 77.3949 237.03C77.3949 235.248 76.3274 233.228 74.9633 232.455L64.1103 226.158C63.3986 225.743 62.7462 225.743 62.2124 226.04C61.5601 226.396 61.2042 227.228 61.2042 228.238C61.2042 230.02 62.2718 232.04 63.6358 232.812L74.4889 239.109C74.7854 239.347 75.2005 239.465 75.5564 239.465ZM62.9834 226.931C63.2206 226.931 63.3986 227.049 63.5765 227.109L74.4296 233.406C75.4378 234 76.3274 235.663 76.3274 237.089C76.3274 237.743 76.1494 238.218 75.8529 238.396C75.5564 238.574 75.2005 238.396 74.9633 238.277L64.1103 231.98C63.102 231.386 62.2124 229.723 62.2124 228.297C62.2124 227.644 62.3904 227.168 62.6869 226.99C62.7462 226.931 62.8648 226.931 62.9834 226.931Z" fill="#C4C4C4"/>
<path d="M229.491 166.291C191.904 161.702 163.535 140.714 166.127 119.413C168.719 98.113 201.29 84.5658 238.878 89.155C276.465 93.7442 304.834 114.732 302.242 136.032C299.65 157.333 267.079 170.88 229.491 166.291Z" fill="#0072FF"/>
<path d="M215.52 143.347L210.063 99.3861L232.659 100.337L236.455 131.228L260.177 132.238L261.838 145.248L215.52 143.347Z" fill="white"/>
</g>
<defs>
<clipPath id="clip0">
<rect width="484" height="294" fill="white" transform="matrix(-1 0 0 1 484 0)"/>
</clipPath>
</defs>
</svg>
