<svg width="328" height="322" viewBox="0 0 328 322" fill="none" xmlns="http://www.w3.org/2000/svg">
<g clip-path="url(#clip0)">
<path d="M327.999 150.452C327.999 150.417 327.964 150.347 327.964 150.311L297.986 120.376C297.95 120.341 297.915 120.341 297.844 120.341H291.813C290.967 119.531 289.662 119.531 288.816 120.341H267.866L267.725 120.376L250.831 137.245L236.195 122.63L251.466 107.416H273.791C273.756 108.014 273.932 108.613 274.391 109.106L275.413 110.127C275.837 110.55 276.401 110.761 276.965 110.761C277.53 110.761 278.094 110.55 278.517 110.127C279.364 109.282 279.364 107.909 278.517 107.028L277.494 106.007C277.142 105.655 276.718 105.479 276.26 105.443L304.299 77.4448C304.334 77.4096 304.334 77.3744 304.334 77.304C304.334 77.2687 304.299 77.1983 304.299 77.1631L274.32 47.2276C274.285 47.1924 274.25 47.1924 274.179 47.1572H244.201L244.059 47.2276L214.081 77.1631V77.1983C214.081 77.1983 214.046 77.1983 214.046 77.2335C214.046 77.2687 214.046 77.2687 214.046 77.304C214.046 77.3392 214.01 77.3392 214.046 77.3744C214.046 77.3744 214.081 77.3744 214.081 77.4096V77.4448L242.084 105.408L230.516 116.924L195.6 82.0584C195.565 82.0232 195.565 82.0232 195.53 82.0232C195.459 81.9528 195.389 81.9175 195.318 81.8823C195.283 81.8471 195.247 81.8471 195.212 81.8119C195.106 81.7767 195.001 81.7415 194.895 81.7415H194.859H187.1V72.1973H192.955C193.096 72.1973 193.202 72.1621 193.308 72.0917C193.343 72.0917 193.378 72.0564 193.378 72.0212C193.413 71.986 193.449 71.986 193.449 71.986L215.456 50.0098C215.562 50.2564 215.703 50.5029 215.915 50.679L216.938 51.7003C217.361 52.1229 217.925 52.3343 218.49 52.3343C219.054 52.3343 219.618 52.1229 220.041 51.7003C220.888 50.8551 220.888 49.4816 220.041 48.6011L219.019 47.5798C218.807 47.3685 218.595 47.2276 218.349 47.122L228.894 36.5917C229.035 36.4508 229.106 36.2747 229.106 36.0634C229.106 35.8521 229.035 35.676 228.894 35.5352L193.413 0.211309C193.378 0.176091 193.378 0.176091 193.343 0.176091C193.308 0.140873 193.272 0.140873 193.272 0.105655C193.167 0.0352182 193.026 0 192.92 0C192.92 0 192.92 0 192.884 0H157.475C157.298 0 157.087 0.0704364 156.946 0.211309L121.536 35.5704C121.5 35.6056 121.5 35.6408 121.465 35.7113C121.43 35.7465 121.395 35.7817 121.359 35.8169C121.359 35.8521 121.359 35.8521 121.359 35.8873C121.324 35.9578 121.324 36.0282 121.324 36.0987C121.324 36.1691 121.324 36.2395 121.359 36.31C121.359 36.3452 121.359 36.3452 121.359 36.3804C121.395 36.4156 121.43 36.4508 121.465 36.4861C121.5 36.5213 121.5 36.5565 121.536 36.5917L156.946 71.9508C157.087 72.0917 157.263 72.1621 157.475 72.1621H179.376V81.7062H127.073C126.791 81.7062 126.509 81.8119 126.297 82.0232L119.843 88.4681L108.627 77.3392L116.986 68.9925C117.056 68.922 117.092 68.8164 117.092 68.7459C117.092 68.6403 117.056 68.5698 116.986 68.4994L110.779 62.301C111.272 62.2658 111.766 62.0897 112.154 61.7023L113.177 60.681C114.023 59.8357 114.023 58.4622 113.177 57.617C112.33 56.7717 110.955 56.7717 110.073 57.617L109.05 58.6383C108.663 59.0257 108.486 59.5188 108.451 60.0118L91.5924 43.1775C91.5924 43.1775 91.5924 43.1775 91.5571 43.1775C91.4866 43.1071 91.416 43.0719 91.3455 43.0719H65.952L65.7051 43.1775L40.3115 68.5346C40.3115 68.5346 40.2763 68.5698 40.2763 68.6051C40.2763 68.6403 40.241 68.6403 40.241 68.6755V68.7107C40.241 68.7459 40.241 68.7812 40.241 68.8164C40.241 68.8516 40.241 68.8868 40.241 68.922V68.9572C40.241 68.9925 40.2763 68.9925 40.2763 69.0277C40.2763 69.0629 40.2763 69.0629 40.3115 69.0981L65.7051 94.4552L65.952 94.5609H73.1468L73.0057 94.7017C72.1593 95.547 72.1593 96.9205 73.0057 97.7657C73.4289 98.1884 73.9932 98.3997 74.5575 98.3997C75.1218 98.3997 75.6862 98.1884 76.1094 97.7657L77.1322 96.7444C77.7317 96.1457 77.8728 95.3005 77.6612 94.5609H91.3455C91.416 94.5609 91.5219 94.5257 91.5571 94.4552H91.5924L103.407 82.6571L114.588 93.8213L75.7567 132.526L62.4956 119.284H62.4604C62.3898 119.214 62.3193 119.178 62.2487 119.178H54.5249L55.4771 118.228C56.3236 117.382 56.3236 116.009 55.4771 115.128C54.6307 114.283 53.2552 114.283 52.4087 115.128L51.3859 116.15C50.5395 116.995 50.5395 118.298 51.3507 119.178H31.2827L31.0358 119.284L0.105084 150.206C0.0698147 150.241 0.0698147 150.241 0.0698147 150.276C0.0698147 150.311 0.0345459 150.311 0.0345459 150.311V150.347C0.0345459 150.382 0.0345459 150.417 0.0345459 150.452C0.0345459 150.487 0.0345459 150.523 0.0345459 150.523V150.558C0.0345459 150.593 0.0698147 150.593 0.0698147 150.628C0.0698147 150.663 0.0698147 150.663 0.105084 150.699L31.0358 181.62L31.2827 181.726H62.2487C62.3193 181.726 62.4251 181.691 62.4956 181.62C62.4956 181.62 62.4956 181.62 62.5309 181.62L75.792 168.378L93.2853 185.846H80.9765C80.8001 185.846 80.5885 185.917 80.4474 186.058L42.8862 223.53C42.8509 223.565 42.8509 223.6 42.8156 223.636C42.7804 223.671 42.7451 223.706 42.7098 223.741C42.7098 223.776 42.7098 223.776 42.7098 223.812C42.6745 223.882 42.6745 223.953 42.6745 224.023C42.6745 224.093 42.6745 224.164 42.7098 224.234C42.7098 224.27 42.7098 224.27 42.7098 224.305C42.7451 224.34 42.7804 224.375 42.8156 224.41C42.8509 224.446 42.8509 224.481 42.8862 224.516L80.4122 262.023C80.5533 262.164 80.7296 262.235 80.9412 262.235H118.467C118.608 262.235 118.714 262.2 118.82 262.129C118.855 262.129 118.89 262.094 118.89 262.094C118.926 262.059 118.961 262.059 118.961 262.059L123.581 257.445C123.652 257.903 123.828 258.361 124.181 258.713L124.251 258.783C124.675 259.206 125.239 259.417 125.803 259.417C126.367 259.417 126.932 259.206 127.355 258.783C128.201 257.938 128.201 256.565 127.355 255.684L127.284 255.614C126.932 255.262 126.473 255.085 126.015 255.015L156.522 224.551C156.663 224.41 156.734 224.234 156.734 224.058C156.734 223.847 156.663 223.671 156.522 223.53L152.184 219.198H186.571V245.647H157.298C157.122 245.647 156.91 245.717 156.769 245.858L119.278 283.295C119.243 283.33 119.243 283.366 119.208 283.401C119.173 283.436 119.137 283.471 119.102 283.507C119.102 283.542 119.102 283.542 119.102 283.577C119.067 283.647 119.067 283.718 119.067 283.788C119.067 283.859 119.067 283.929 119.102 284C119.102 284.035 119.102 284.035 119.102 284.07C119.137 284.105 119.173 284.14 119.208 284.176C119.243 284.211 119.243 284.246 119.278 284.281L156.804 321.718C156.946 321.859 157.122 321.93 157.333 321.93H194.859C195.001 321.93 195.106 321.894 195.212 321.824C195.247 321.824 195.283 321.789 195.283 321.754C195.318 321.718 195.353 321.718 195.353 321.718L232.879 284.281C233.02 284.14 233.091 283.964 233.091 283.753C233.091 283.577 233.02 283.366 232.879 283.225L214.61 264.982C214.716 264.982 214.822 265.052 214.927 265.052C215.492 265.052 216.056 264.841 216.479 264.418L217.502 263.397C218.349 262.552 218.349 261.178 217.502 260.333C216.656 259.488 215.28 259.488 214.398 260.333L213.376 261.354C212.882 261.847 212.706 262.552 212.811 263.221L195.353 245.788C195.318 245.753 195.283 245.753 195.283 245.717C195.247 245.682 195.212 245.682 195.212 245.647C195.106 245.577 195.001 245.541 194.859 245.541H193.978V219.092H194.824C194.965 219.092 195.071 219.057 195.212 219.022C195.247 219.022 195.283 218.987 195.318 218.987C195.389 218.952 195.459 218.881 195.53 218.846C195.565 218.846 195.565 218.811 195.6 218.811L216.373 198.067L239.792 221.452L231.856 229.376C231.856 229.376 231.821 229.411 231.821 229.447C231.821 229.482 231.786 229.482 231.786 229.517V229.552C231.786 229.587 231.786 229.623 231.786 229.658C231.786 229.693 231.786 229.728 231.786 229.764V229.799C231.786 229.834 231.821 229.834 231.821 229.869C231.821 229.904 231.821 229.904 231.856 229.94L257.25 255.297L257.497 255.402H282.926C282.996 255.402 283.102 255.367 283.173 255.297C283.173 255.297 283.173 255.297 283.208 255.297L308.601 229.94C308.672 229.869 308.707 229.764 308.707 229.693C308.707 229.587 308.672 229.517 308.601 229.447L283.208 204.054C283.208 204.054 283.208 204.054 283.173 204.054C283.102 203.984 283.032 203.949 282.926 203.949H276.754C277.036 203.174 276.859 202.293 276.26 201.659C275.413 200.814 274.038 200.814 273.156 201.659L273.086 201.73C272.486 202.329 272.345 203.174 272.592 203.949H257.532L257.285 204.054L244.835 216.486L221.417 193.101L250.937 163.624L267.831 180.493L267.972 180.529H294.423L293.824 181.127C292.977 181.972 292.977 183.346 293.824 184.226C294.247 184.649 294.811 184.86 295.376 184.86C295.94 184.86 296.504 184.649 296.927 184.226L297.95 183.205C298.726 182.43 298.761 181.268 298.162 180.423L328.07 150.558C327.964 150.558 327.999 150.523 327.999 150.452ZM267.936 120.728H288.533C287.969 121.573 288.004 122.735 288.745 123.475L289.662 124.391C290.085 124.813 290.65 125.025 291.214 125.025C291.778 125.025 292.342 124.813 292.766 124.391C293.612 123.545 293.612 122.172 292.766 121.291L292.166 120.693H297.386L267.795 150.241H263.598C263.563 150.03 263.493 149.818 263.316 149.642L251.113 137.527L267.936 120.728ZM275.731 105.408C275.237 105.443 274.779 105.619 274.391 106.007C274.179 106.218 274.003 106.465 273.897 106.711L264.762 97.5896L244.447 77.304L274.144 47.6502L303.84 77.304L275.731 105.408ZM244.271 47.5798H273.721L244.095 77.1279H214.645L244.271 47.5798ZM214.645 77.48H244.095L244.553 77.9379L273.721 107.063H251.819L254.499 104.387H265.327V103.682H254.323L254.076 103.788L250.761 107.099H244.236L214.645 77.48ZM243.636 106.958L244.059 107.38L244.201 107.416H250.408L235.701 122.102L232.068 118.474L243.636 106.958ZM62.2487 180.845L31.8117 150.452L46.0956 136.189L62.2487 120.059L92.6857 150.452L62.2487 180.845ZM192.884 70.4364L158.497 36.0987L192.884 1.76091L227.272 36.0987L192.884 70.4364ZM157.792 1.44395H191.156L189.851 2.74702L157.192 35.3591H123.828L157.792 1.44395ZM157.792 70.7534L123.793 36.8382H157.157L191.121 70.7534H186.43L174.121 58.4622L173.592 58.9905L185.407 70.7886H157.792V70.7534ZM181.598 72.1973H186.324V81.7415H181.598V72.1973ZM91.3102 43.8819L108.874 61.4205C108.945 61.5262 108.98 61.5966 109.05 61.7023C109.121 61.7727 109.227 61.8079 109.333 61.8784L116.21 68.7459L91.3102 93.61L68.0328 70.366L66.4105 68.7459L91.3102 43.8819ZM66.0578 43.741H90.4285L82.5636 51.6299L65.7756 68.3938H41.4049L66.0578 43.741ZM77.2027 93.7509C77.1674 93.6804 77.1322 93.6452 77.0969 93.5748C76.2505 92.7295 74.875 92.7295 73.9933 93.5748L73.8169 93.7509H66.0225L41.3343 69.0981H65.7051L89.9348 93.293L90.3932 93.7509H77.2027ZM103.901 82.0584L107.075 78.8888L118.256 90.0529L115.081 93.2226L103.901 82.0584ZM116.139 95.3005L118.749 97.9066L109.403 107.239L109.932 107.768L119.525 98.1883C119.596 98.1179 119.631 98.0123 119.631 97.9418C119.631 97.8362 119.596 97.7657 119.525 97.6953L116.669 94.8426L127.567 83.9602H185.09L174.192 94.8426L174.721 95.3709L186.148 83.9602H192.214L126.614 149.36H93.2148H92.6505L77.3085 134.04L116.139 95.3005ZM31.4591 119.918H61.367L46.7657 134.498L31.1416 150.1H1.23369L31.4591 119.918ZM31.4591 181.022L1.23369 150.804H31.1769L61.0849 180.669L61.4023 180.986H31.4591V181.022ZM77.3085 166.864L87.7834 156.404H126.403L134.268 164.258L134.797 163.765L126.826 155.805L126.579 155.7H88.4887L92.6152 151.579H126.614L162.271 187.185L141.145 208.28L118.926 186.093C118.89 186.058 118.89 186.058 118.855 186.058C118.82 186.023 118.785 186.023 118.785 185.987C118.679 185.917 118.573 185.882 118.432 185.882H96.2479L96.2831 185.846L77.3085 166.864ZM67.398 201.096C67.398 201.659 67.6096 202.223 68.0328 202.646L69.0556 203.667C69.4788 204.089 70.0431 204.301 70.6074 204.301C71.1717 204.301 71.736 204.089 72.1593 203.667C73.0057 202.822 73.0057 201.448 72.1593 200.568L71.1365 199.546C70.7132 199.124 70.1489 198.912 69.5846 198.912L81.2234 187.29H94.696L94.7313 187.326L94.7666 187.29H116.669L80.6238 223.319H45.1786L67.398 201.096ZM81.2234 260.756L45.1786 224.763H80.6238L114.552 258.642L116.669 260.756H81.2234ZM154.935 224.023L118.432 260.474L81.964 224.023L118.432 187.607L149.998 219.128V219.198H150.068L154.935 224.023ZM149.998 217.015V217.085L147.07 214.162L165.657 195.602L172.323 202.258L172.852 201.73L165.939 194.827C165.798 194.686 165.551 194.686 165.41 194.827L146.576 213.634L142.732 209.795L163.858 188.699L192.214 217.015H149.998ZM157.616 247.091H185.654L174.404 258.326L174.933 258.854L186.712 247.091H193.096L192.567 247.619L157.016 283.084H121.536L157.616 247.091ZM157.616 320.521L121.536 284.528H156.981L188.97 316.471L193.026 320.521H157.616ZM231.292 283.824L194.824 320.239L158.356 283.824L158.321 283.788L169.713 272.413L194.789 247.373L231.292 283.824ZM191.791 245.612H187.241V219.163H191.791V245.612ZM257.638 254.733L232.95 230.081H257.321L282.009 254.733H257.638ZM282.89 254.592L270.441 242.16L257.991 229.728L274.144 213.598L282.89 204.864L307.79 229.728L282.89 254.592ZM257.638 204.723H272.98C273.015 204.759 273.05 204.829 273.086 204.864C273.509 205.287 274.073 205.498 274.638 205.498C275.202 205.498 275.766 205.287 276.189 204.864L276.26 204.794C276.295 204.759 276.295 204.723 276.33 204.723H282.079L257.391 229.376H232.985L257.638 204.723ZM244.271 217.05L241.309 220.008L217.89 196.623L220.853 193.665L244.271 217.05ZM194.824 216.557L194.718 216.451L128.625 150.452L194.824 84.3476L260.989 150.452L194.824 216.557ZM267.936 180.212L251.113 163.412L263.316 151.227C263.493 151.051 263.563 150.84 263.598 150.628H267.795L296.822 179.613C296.081 179.437 295.305 179.578 294.741 180.141L294.706 180.176H267.936V180.212ZM297.844 180.141L268.148 150.487L297.88 120.798L327.576 150.452L297.844 180.141Z" fill="#B6B6B6"/>
<path d="M126.545 47.298L127.567 46.2766C128.414 45.4314 128.414 44.0579 127.567 43.2127C126.721 42.3674 125.345 42.3674 124.499 43.2127L123.476 44.234C122.63 45.0792 122.63 46.4527 123.476 47.298C123.899 47.7206 124.464 47.9319 125.028 47.9319C125.557 47.9319 126.121 47.7206 126.545 47.298Z" fill="#B6B6B6"/>
<path d="M117.798 55.1165C118.362 55.1165 118.926 54.9052 119.35 54.4826L120.372 53.4613C121.219 52.616 121.219 51.2425 120.372 50.3621C119.526 49.5168 118.15 49.5168 117.304 50.3621L116.281 51.3834C115.435 52.2286 115.435 53.6022 116.281 54.4474C116.669 54.9052 117.233 55.1165 117.798 55.1165Z" fill="#B6B6B6"/>
<path d="M61.6851 112.064L62.7079 111.043C63.5544 110.198 63.5544 108.824 62.7079 107.979C61.8615 107.134 60.486 107.134 59.6043 107.979L58.5815 109C57.735 109.846 57.735 111.219 58.5815 112.1C59.0047 112.522 59.569 112.733 60.1333 112.733C60.6976 112.698 61.2619 112.487 61.6851 112.064Z" fill="#B6B6B6"/>
<path d="M68.88 104.88L69.9028 103.858C70.7492 103.013 70.7492 101.64 69.9028 100.794C69.0563 99.9492 67.6808 99.9492 66.7991 100.794L65.7763 101.816C64.9299 102.661 64.9299 104.035 65.7763 104.88C66.1995 105.302 66.7638 105.514 67.3281 105.514C67.8924 105.514 68.4567 105.302 68.88 104.88Z" fill="#B6B6B6"/>
<path d="M78.332 206.766C77.4855 205.921 76.1101 205.921 75.2283 206.766C74.3819 207.611 74.3819 208.985 75.2283 209.83L76.2511 210.851C76.6744 211.274 77.2387 211.485 77.803 211.485C78.3673 211.485 78.9316 211.274 79.3548 210.851C80.2012 210.006 80.2012 208.633 79.3548 207.787L78.332 206.766Z" fill="#B6B6B6"/>
<path d="M63.4133 197.116C63.9776 197.116 64.5419 196.905 64.9651 196.482C65.8116 195.637 65.8116 194.264 64.9651 193.383L63.9423 192.362C63.0959 191.517 61.7204 191.517 60.8387 192.362C59.9922 193.207 59.9922 194.581 60.8387 195.461L61.8615 196.482C62.32 196.905 62.8843 197.116 63.4133 197.116Z" fill="#B6B6B6"/>
<path d="M56.2185 189.932C56.7828 189.932 57.3471 189.72 57.7703 189.298C58.6168 188.453 58.6168 187.079 57.7703 186.199L56.7475 185.177C55.9011 184.332 54.5256 184.332 53.6439 185.177C52.7974 186.022 52.7974 187.396 53.6439 188.276L54.6667 189.298C55.1252 189.72 55.6542 189.932 56.2185 189.932Z" fill="#B6B6B6"/>
<path d="M132.963 266.566C133.528 266.566 134.092 266.355 134.515 265.933C135.362 265.087 135.362 263.714 134.515 262.833L133.492 261.812C132.646 260.967 131.27 260.967 130.389 261.812C129.542 262.657 129.542 264.031 130.389 264.911L131.412 265.933C131.835 266.355 132.399 266.566 132.963 266.566Z" fill="#B6B6B6"/>
<path d="M147.882 276.181C147.036 275.336 145.66 275.336 144.779 276.181C143.932 277.026 143.932 278.4 144.779 279.28L145.801 280.302C146.225 280.724 146.789 280.936 147.353 280.936C147.917 280.936 148.482 280.724 148.905 280.302C149.751 279.456 149.751 278.083 148.905 277.202L147.882 276.181Z" fill="#B6B6B6"/>
<path d="M140.687 268.997C139.841 268.151 138.465 268.151 137.584 268.997C136.737 269.842 136.737 271.215 137.584 272.096L138.606 273.117C139.03 273.54 139.594 273.751 140.158 273.751C140.723 273.751 141.287 273.54 141.71 273.117C142.556 272.272 142.556 270.898 141.71 270.053L140.687 268.997Z" fill="#B6B6B6"/>
<path d="M243.179 231.63L242.156 232.651C241.309 233.497 241.309 234.87 242.156 235.751C242.579 236.173 243.143 236.385 243.708 236.385C244.272 236.385 244.836 236.173 245.259 235.751L246.282 234.729C247.129 233.884 247.129 232.511 246.282 231.665C245.436 230.785 244.025 230.785 243.179 231.63Z" fill="#B6B6B6"/>
<path d="M221.594 253.184L220.571 254.205C219.725 255.05 219.725 256.424 220.571 257.304C220.994 257.727 221.559 257.938 222.123 257.938C222.687 257.938 223.252 257.727 223.675 257.304L224.698 256.283C225.544 255.438 225.544 254.064 224.698 253.184C223.816 252.338 222.44 252.338 221.594 253.184Z" fill="#B6B6B6"/>
<path d="M228.789 245.999L227.766 247.021C226.92 247.866 226.92 249.239 227.766 250.12C228.189 250.542 228.754 250.754 229.318 250.754C229.882 250.754 230.446 250.542 230.87 250.12L231.892 249.098C232.739 248.253 232.739 246.88 231.892 246.034C231.011 245.154 229.635 245.154 228.789 245.999Z" fill="#B6B6B6"/>
<path d="M235.984 238.815L234.961 239.836C234.114 240.681 234.114 242.055 234.961 242.935C235.384 243.358 235.948 243.569 236.513 243.569C237.077 243.569 237.641 243.358 238.065 242.935L239.087 241.914C239.934 241.069 239.934 239.695 239.087 238.815C238.206 237.969 236.83 237.969 235.984 238.815Z" fill="#B6B6B6"/>
<path d="M287.547 187.361L286.524 188.382C285.677 189.227 285.677 190.601 286.524 191.446C286.947 191.869 287.511 192.08 288.076 192.08C288.64 192.08 289.204 191.869 289.628 191.446L290.65 190.425C291.497 189.58 291.497 188.206 290.65 187.326C289.769 186.48 288.393 186.48 287.547 187.361Z" fill="#B6B6B6"/>
<path d="M280.317 194.545L279.294 195.567C278.447 196.412 278.447 197.785 279.294 198.631C279.717 199.053 280.281 199.265 280.846 199.265C281.41 199.265 281.974 199.053 282.397 198.631L283.42 197.609C284.267 196.764 284.267 195.391 283.42 194.545C282.574 193.7 281.198 193.7 280.317 194.545Z" fill="#B6B6B6"/>
<path d="M281.586 113.191C280.74 114.036 280.74 115.41 281.586 116.255L282.609 117.277C283.032 117.699 283.597 117.91 284.161 117.91C284.725 117.91 285.289 117.699 285.713 117.277C286.559 116.431 286.559 115.058 285.713 114.177L284.69 113.156C283.808 112.346 282.433 112.346 281.586 113.191Z" fill="#B6B6B6"/>
<path d="M233.374 61.984C232.527 61.1388 231.152 61.1388 230.27 61.984C229.424 62.8293 229.424 64.2028 230.27 65.0832L231.293 66.1046C231.716 66.5272 232.28 66.7385 232.845 66.7385C233.409 66.7385 233.973 66.5272 234.397 66.1046C235.243 65.2593 235.243 63.8858 234.397 63.0406L233.374 61.984Z" fill="#B6B6B6"/>
<path d="M223.075 54.7643C222.229 55.6095 222.229 56.983 223.075 57.8635L224.098 58.8848C224.521 59.3074 225.086 59.5188 225.65 59.5188C226.214 59.5188 226.779 59.3074 227.202 58.8848C228.048 58.0396 228.048 56.6661 227.202 55.7856L226.179 54.7643C225.297 53.9191 223.922 53.9191 223.075 54.7643Z" fill="#B6B6B6"/>
</g>
<defs>
<clipPath id="clip0">
<rect width="328" height="322" fill="white"/>
</clipPath>
</defs>
</svg>
