<svg width="162" height="204" viewBox="0 0 162 204" fill="none" xmlns="http://www.w3.org/2000/svg">
<g clip-path="url(#clip0)">
<path d="M149.292 42.3065V185.214C149.292 188.842 146.331 191.794 142.66 191.794H7.43376C3.76316 191.794 0.802002 188.842 0.802002 185.214V161.909L0.925384 149.057V6.97934C0.925384 3.35131 3.88654 0.399689 7.55714 0.399689H138.959C144.696 0.399689 149.323 5.0116 149.323 10.7304V35.6039L149.292 42.3065Z" fill="#F9F9F9"/>
<path d="M145.128 41.6916V185.368C145.128 188.934 142.259 191.794 138.743 191.794H7.187C3.67062 191.794 0.802002 188.904 0.802002 185.368V162.616L0.894538 150.071V11.499C0.894538 7.93248 3.76316 5.07309 7.27953 5.07309H139.39C142.567 5.07309 145.128 7.59427 145.128 10.7304V41.6916Z" fill="white"/>
<path d="M148.521 42.5217C148.521 48.302 148.521 54.113 148.521 59.8933C148.521 73.3908 148.521 86.8883 148.521 100.386C148.521 115.574 148.521 130.763 148.521 145.951C148.521 156.959 148.521 167.966 148.521 178.973C148.521 181.063 148.552 183.154 148.521 185.245C148.459 188.473 146.3 191.333 142.907 191.456C142.321 191.486 141.766 191.456 141.18 191.456C132.081 191.456 122.95 191.456 113.851 191.456C98.9526 191.456 84.0851 191.456 69.1868 191.456C55.183 191.456 41.1483 191.456 27.1445 191.456C20.6978 191.456 14.1894 191.671 7.74276 191.456C3.82539 191.333 1.51199 188.043 1.51199 184.384C1.51199 181.525 1.51199 178.634 1.51199 175.775C1.51199 170.733 1.48114 165.69 1.51199 160.648C1.57368 154.038 1.60452 147.427 1.60452 140.848C1.60452 129.318 1.60452 117.788 1.60452 106.258C1.60452 91.0083 1.60452 75.7275 1.60452 60.4774C1.60452 47.4411 1.60452 34.4355 1.60452 21.3992C1.60452 17.5867 1.60452 13.7742 1.60452 9.99243C1.60452 6.73335 1.32691 3.13606 4.81244 1.32204C6.72486 0.307425 9.71686 0.737869 11.8143 0.737869C16.2252 0.737869 20.6361 0.737869 25.0779 0.737869C39.02 0.737869 52.9621 0.737869 66.9042 0.737869C81.8025 0.737869 96.67 0.737869 111.568 0.737869C120.205 0.737869 128.873 0.737869 137.509 0.737869C138.527 0.737869 139.483 0.737869 140.47 0.953091C145.313 1.93696 148.49 6.27216 148.552 11.0993C148.645 17.2177 148.552 23.3055 148.552 29.4239C148.521 33.7591 148.521 38.1251 148.521 42.5217C148.521 42.8292 150.002 42.614 150.002 42.122C150.002 31.5762 150.187 21.0303 150.002 10.5151C149.94 5.53425 146.424 1.22981 141.488 0.245932C140.409 0.0307101 139.329 0.0307101 138.219 0.0307101C135.103 0.0307101 131.988 0.0307101 128.903 0.0307101C116.041 0.0307101 103.209 0.0307101 90.3467 0.0307101C74.8623 0.0307101 59.3471 0.0307101 43.8627 0.0307101C33.1594 0.0307101 22.4869 0.0307101 11.7835 0.0307101C9.22334 0.0307101 6.4781 -0.246004 4.13385 0.922345C1.60452 2.18293 0.15479 4.61187 0.123944 7.37901C0.123944 8.14767 0.123944 8.91632 0.123944 9.68497C0.123944 19.124 0.123944 28.5938 0.123944 38.0328C0.123944 53.0984 0.123944 68.1639 0.123944 83.2295C0.123944 97.6187 0.123944 112.039 0.123944 126.428C0.123944 133.868 0.123944 141.34 0.123944 148.78C0.123944 158.404 0.000562659 168.027 0.000562659 177.62C0.000562659 180.141 -0.0611281 182.662 0.000562659 185.183C0.0622534 189.18 3.11595 192.04 7.06416 192.101C8.88404 192.132 10.7348 192.101 12.5546 192.101C23.8132 192.101 35.0718 192.101 46.3303 192.101C61.8764 192.101 77.4225 192.101 92.9686 192.101C105.769 192.101 118.539 192.101 131.34 192.101C134.579 192.101 137.787 192.101 141.026 192.101C141.581 192.101 142.167 192.132 142.722 192.101C146.64 191.855 149.878 188.965 150.002 184.937C150.156 178.604 150.002 172.239 150.002 165.875C150.002 151.947 150.002 138.019 150.002 124.06C150.002 108.749 150.002 93.4064 150.002 78.0949C150.002 67.6105 150.002 57.1261 150.002 46.6417C150.002 45.1044 150.002 43.5671 150.002 42.0606C150.033 41.8146 148.521 42.0298 148.521 42.5217Z" fill="#C9C9C9"/>
<path d="M155.214 48.2405V191.148C155.214 194.776 152.253 197.728 148.582 197.728H13.3561C9.68552 197.728 6.72437 194.776 6.72437 191.148V167.843L6.84775 154.991V12.9133C6.84775 9.2853 9.80891 6.33368 13.4795 6.33368H144.881C150.618 6.33368 155.245 10.9456 155.245 16.6644V41.5379L155.214 48.2405Z" fill="#F9F9F9"/>
<path d="M151.05 47.6256V191.302C151.05 194.868 148.181 197.728 144.665 197.728H13.1094C9.59299 197.728 6.72437 194.838 6.72437 191.302V168.55L6.8169 156.005V17.433C6.8169 13.8665 9.68552 11.0071 13.2019 11.0071H145.313C148.49 11.0071 151.05 13.5282 151.05 16.6643V47.6256Z" fill="white"/>
<path d="M154.474 48.425C154.474 54.2053 154.474 60.0163 154.474 65.7965C154.474 79.294 154.474 92.7915 154.474 106.289C154.474 121.478 154.474 136.666 154.474 151.855C154.474 162.862 154.474 173.869 154.474 184.876C154.474 186.967 154.505 189.057 154.474 191.148C154.412 194.376 152.253 197.236 148.86 197.359C148.274 197.39 147.719 197.359 147.133 197.359C138.033 197.359 128.903 197.359 119.804 197.359C104.905 197.359 90.0377 197.359 75.1394 197.359C61.1356 197.359 47.1009 197.359 33.0971 197.359C26.6505 197.359 20.1421 197.574 13.6954 197.359C9.77803 197.236 7.46462 193.946 7.46462 190.287C7.46462 187.428 7.46462 184.538 7.46462 181.678C7.46462 176.636 7.43378 171.594 7.46462 166.551C7.52631 159.941 7.55716 153.33 7.55716 146.751C7.55716 135.221 7.55716 123.691 7.55716 112.162C7.55716 96.9115 7.55716 81.6307 7.55716 66.3807C7.55716 53.3444 7.55716 40.3388 7.55716 27.3025C7.55716 23.49 7.55716 19.6775 7.55716 15.8957C7.55716 12.6366 7.27955 9.03933 10.7651 7.22531C12.6775 6.21069 15.6695 6.64114 17.767 6.64114C22.1779 6.64114 26.5888 6.64114 31.0305 6.64114C44.9726 6.64114 58.9147 6.64114 72.8568 6.64114C87.7552 6.64114 102.623 6.64114 117.521 6.64114C126.158 6.64114 134.825 6.64114 143.462 6.64114C144.48 6.64114 145.436 6.64114 146.423 6.85636C151.266 7.84023 154.443 12.1754 154.505 17.0026C154.597 23.121 154.505 29.2087 154.505 35.3272C154.474 39.6624 154.474 44.0591 154.474 48.425C154.474 48.7325 155.954 48.5172 155.954 48.0253C155.954 37.4794 156.139 26.9335 155.954 16.4184C155.862 11.4375 152.345 7.13307 147.41 6.1492C146.331 5.93398 145.251 5.93398 144.141 5.93398C141.025 5.93398 137.91 5.93398 134.825 5.93398C121.963 5.93398 109.131 5.93398 96.2685 5.93398C80.7841 5.93398 65.2689 5.93398 49.7845 5.93398C39.0811 5.93398 28.4086 5.93398 17.7053 5.93398C15.176 5.93398 12.4307 5.65726 10.0865 6.82561C7.55716 8.0862 6.10743 10.5151 6.07658 13.2823C6.07658 14.0509 6.07658 14.8196 6.07658 15.5882C6.07658 25.0273 6.07658 34.497 6.07658 43.9361C6.07658 59.0016 6.07658 74.0672 6.07658 89.1328C6.07658 103.522 6.07658 117.942 6.07658 132.331C6.07658 139.771 6.07658 147.243 6.07658 154.683C6.07658 164.307 5.9532 173.93 5.9532 183.523C5.9532 186.044 5.89151 188.565 5.9532 191.087C6.01489 195.084 9.06858 197.943 13.0168 198.004C14.8367 198.035 16.6874 198.004 18.5073 198.004C29.7658 198.004 41.0244 198.004 52.283 198.004C67.8291 198.004 83.3751 198.004 98.9212 198.004C111.722 198.004 124.492 198.004 137.293 198.004C140.532 198.004 143.74 198.004 146.978 198.004C147.534 198.004 148.12 198.035 148.675 198.004C152.592 197.759 155.831 194.868 155.954 190.841C156.109 184.507 155.954 178.143 155.954 171.778C155.954 157.85 155.954 143.922 155.954 129.964C155.954 114.652 155.954 99.3097 155.954 83.9982C155.954 73.5138 155.954 63.0294 155.954 52.545C155.954 51.0077 155.954 49.4704 155.954 47.9638C155.954 47.7178 154.474 47.9638 154.474 48.425Z" fill="#C9C9C9"/>
<path d="M161.167 54.1745V197.082C161.167 200.71 158.206 203.662 154.535 203.662H19.3092C15.6386 203.662 12.6775 200.71 12.6775 197.082V173.777L12.8009 160.925V18.8473C12.8009 15.2193 15.762 12.2677 19.4326 12.2677H150.834C156.571 12.2677 161.198 16.8796 161.198 22.5983V47.4719L161.167 54.1745Z" fill="#F9F9F9"/>
<path d="M157.003 53.5596V197.236C157.003 200.802 154.134 203.662 150.618 203.662H19.0625C15.5461 203.662 12.6775 200.772 12.6775 197.236V174.484L12.77 161.939V23.367C12.77 19.8004 15.6386 16.9411 19.155 16.9411H151.266C154.443 16.9411 157.003 19.4622 157.003 22.5983V53.5596Z" fill="white"/>
<path d="M160.427 54.359C160.427 60.1393 160.427 65.9503 160.427 71.7305C160.427 85.228 160.427 98.7255 160.427 112.223C160.427 127.412 160.427 142.6 160.427 157.789C160.427 168.796 160.427 179.803 160.427 190.81C160.427 192.901 160.458 194.991 160.427 197.082C160.365 200.31 158.206 203.17 154.813 203.293C154.227 203.324 153.672 203.293 153.086 203.293C143.986 203.293 134.856 203.293 125.757 203.293C110.858 203.293 95.9909 203.293 81.0925 203.293C67.0887 203.293 53.0541 203.293 39.0503 203.293C32.6036 203.293 26.0952 203.508 19.6485 203.293C15.7312 203.17 13.4177 199.88 13.4177 196.221C13.4177 193.362 13.4177 190.472 13.4177 187.612C13.4177 182.57 13.3869 177.528 13.4177 172.485C13.4794 165.875 13.5103 159.265 13.5103 152.685C13.5103 141.155 13.5103 129.625 13.5103 118.096C13.5103 102.846 13.5103 87.5647 13.5103 72.3147C13.5103 59.2784 13.5103 46.2728 13.5103 33.2365C13.5103 29.424 13.5103 25.6114 13.5103 21.8297C13.5103 18.5706 13.2327 14.9733 16.7182 13.1593C18.6306 12.1447 21.6226 12.5751 23.7201 12.5751C28.131 12.5751 32.5419 12.5751 36.9836 12.5751C50.9257 12.5751 64.8679 12.5751 78.81 12.5751C93.7083 12.5751 108.576 12.5751 123.474 12.5751C132.111 12.5751 140.778 12.5751 149.415 12.5751C150.433 12.5751 151.389 12.5751 152.376 12.7903C157.219 13.7742 160.396 18.1094 160.458 22.9365C160.55 29.055 160.458 35.1427 160.458 41.2612C160.427 45.5964 160.427 49.9931 160.427 54.359C160.427 54.6665 161.907 54.4512 161.907 53.9593C161.907 43.4134 162.093 32.8675 161.907 22.3524C161.815 17.3715 158.299 13.0671 153.363 12.0832C152.284 11.868 151.204 11.868 150.094 11.868C146.978 11.868 143.863 11.868 140.778 11.868C127.916 11.868 115.084 11.868 102.222 11.868C86.7372 11.868 71.222 11.868 55.7376 11.868C45.0343 11.868 34.3618 11.868 23.6584 11.868C21.1291 11.868 18.3839 11.5913 16.0396 12.7596C13.5103 14.0202 12.0606 16.4491 12.0297 19.2163C12.0297 19.9849 12.0297 20.7536 12.0297 21.5222C12.0297 30.9613 12.0297 40.431 12.0297 49.8701C12.0297 64.9356 12.0297 80.0012 12.0297 95.0668C12.0297 109.456 12.0297 123.876 12.0297 138.265C12.0297 145.705 12.0297 153.177 12.0297 160.617C12.0297 170.241 11.9063 179.864 11.9063 189.457C11.9063 191.978 11.8446 194.499 11.9063 197.021C11.968 201.018 15.0217 203.877 18.9699 203.938C20.7898 203.969 22.6405 203.938 24.4604 203.938C35.719 203.938 46.9775 203.938 58.2361 203.938C73.7822 203.938 89.3282 203.938 104.874 203.938C117.675 203.938 130.445 203.938 143.246 203.938C146.485 203.938 149.693 203.938 152.931 203.938C153.487 203.938 154.073 203.969 154.628 203.938C158.545 203.693 161.784 200.802 161.907 196.775C162.062 190.441 161.907 184.077 161.907 177.712C161.907 163.784 161.907 149.856 161.907 135.897C161.907 120.586 161.907 105.244 161.907 89.9322C161.907 79.4478 161.907 68.9634 161.907 58.479C161.907 56.9417 161.907 55.4044 161.907 53.8978C161.907 53.6518 160.427 53.8671 160.427 54.359Z" fill="#C9C9C9"/>
<path d="M64.9297 171.04H35.4415C33.745 171.04 32.3569 169.657 32.3569 167.966V151.301C32.3569 149.61 33.745 148.227 35.4415 148.227H64.9297C66.6262 148.227 68.0142 149.61 68.0142 151.301V167.966C67.9834 169.657 66.6262 171.04 64.9297 171.04Z" fill="#E5E5E5"/>
<path d="M45.4971 152.593C58.6681 152.593 71.8082 152.593 84.9792 152.593C86.8299 152.593 88.6807 152.593 90.5314 152.593C91.3642 152.593 91.6727 151.547 90.6856 151.547C77.5146 151.547 64.3745 151.547 51.2035 151.547C49.3528 151.547 47.5021 151.547 45.6513 151.547C44.7877 151.547 44.4792 152.593 45.4971 152.593Z" fill="#6A79A8"/>
<path d="M33.2206 161.786C36.8295 161.786 40.4075 161.786 44.0164 161.786C52.6532 161.786 61.2899 161.786 69.9266 161.786C80.3832 161.786 90.8089 161.786 101.265 161.786C110.303 161.786 119.341 161.786 128.379 161.786C132.759 161.786 137.231 162.001 141.611 161.786C141.673 161.786 141.735 161.786 141.796 161.786C142.105 161.786 143.462 161.202 142.783 161.202C139.174 161.202 135.596 161.202 131.987 161.202C123.351 161.202 114.714 161.202 106.077 161.202C95.6208 161.202 85.195 161.202 74.7385 161.202C65.7008 161.202 56.663 161.202 47.6254 161.202C43.2453 161.202 38.7727 160.986 34.3927 161.202C34.331 161.202 34.2693 161.202 34.2076 161.202C33.8683 161.202 32.5111 161.786 33.2206 161.786Z" fill="#6A79A8"/>
<path d="M32.7579 168.304C36.3668 168.304 40.0066 168.304 43.6155 168.304C52.3139 168.304 61.0123 168.304 69.7415 168.304C80.2598 168.304 90.8089 168.304 101.327 168.304C110.427 168.304 119.557 168.304 128.656 168.304C133.067 168.304 137.54 168.488 141.981 168.304C142.043 168.304 142.105 168.304 142.167 168.304C142.506 168.304 143.863 167.658 143.123 167.658C139.514 167.658 135.874 167.658 132.265 167.658C123.567 167.658 114.868 167.658 106.139 167.658C95.6208 167.658 85.0717 167.658 74.5534 167.658C65.454 167.658 56.3238 167.658 47.2244 167.658C42.8135 167.658 38.3409 167.474 33.8992 167.658C33.8375 167.658 33.7758 167.658 33.7141 167.658C33.3748 167.658 32.0176 168.304 32.7579 168.304Z" fill="#6A79A8"/>
<path d="M32.943 174.699C40.5309 174.699 48.1189 174.699 55.7069 174.699C67.7983 174.699 79.8897 174.699 91.9502 174.699C94.7263 174.699 97.5024 174.699 100.248 174.699C100.772 174.699 101.852 173.9 100.834 173.9C93.2457 173.9 85.6577 173.9 78.0698 173.9C65.9784 173.9 53.887 173.9 41.8264 173.9C39.0504 173.9 36.2743 173.9 33.529 173.9C33.0047 173.93 31.9559 174.699 32.943 174.699Z" fill="#6A79A8"/>
<path d="M64.8371 133.284H34.8862C33.3131 133.284 32.0485 132.023 32.0485 130.455V113.33C32.0485 111.762 33.3131 110.501 34.8862 110.501H64.8371C66.4102 110.501 67.6749 111.762 67.6749 113.33V130.455C67.7057 132.023 66.4102 133.284 64.8371 133.284Z" fill="#F5F5F5"/>
<path d="M44.2941 114.775C57.3417 114.775 70.3893 114.775 83.4678 114.775C85.3185 114.775 87.1692 114.775 89.0199 114.775C89.6368 114.775 90.593 113.853 89.5751 113.853C76.5275 113.853 63.4799 113.853 50.4015 113.853C48.5508 113.853 46.7001 113.853 44.8493 113.853C44.2324 113.853 43.2762 114.775 44.2941 114.775Z" fill="#6A79A8"/>
<path d="M33.4057 124.122C37.0146 124.122 40.5926 124.122 44.2016 124.122C52.8383 124.122 61.475 124.122 70.1117 124.122C80.5683 124.122 90.994 124.122 101.451 124.122C110.488 124.122 119.526 124.122 128.564 124.122C132.944 124.122 137.416 124.398 141.796 124.122C141.858 124.122 141.92 124.122 141.981 124.122C142.506 124.122 143.585 123.322 142.567 123.322C138.959 123.322 135.381 123.322 131.772 123.322C123.135 123.322 114.498 123.322 105.861 123.322C95.4049 123.322 84.9792 123.322 74.5226 123.322C65.4849 123.322 56.4472 123.322 47.4095 123.322C43.0294 123.322 38.5568 123.046 34.1768 123.322C34.1151 123.322 34.0534 123.322 33.9917 123.322C33.4674 123.322 32.3878 124.122 33.4057 124.122Z" fill="#6A79A8"/>
<path d="M32.758 130.517C36.3669 130.517 40.0066 130.517 43.6156 130.517C52.314 130.517 61.0124 130.517 69.7416 130.517C80.2599 130.517 90.809 130.517 101.327 130.517C110.427 130.517 119.557 130.517 128.656 130.517C133.067 130.517 137.54 130.732 141.981 130.517C142.043 130.517 142.105 130.517 142.167 130.517C142.475 130.517 143.832 129.933 143.154 129.933C139.545 129.933 135.905 129.933 132.296 129.933C123.598 129.933 114.899 129.933 106.17 129.933C95.6517 129.933 85.1026 129.933 74.5843 129.933C65.4849 129.933 56.3547 129.933 47.2553 129.933C42.8444 129.933 38.3718 129.718 33.9301 129.933C33.8684 129.933 33.8067 129.933 33.745 129.933C33.4366 129.933 32.0485 130.517 32.758 130.517Z" fill="#6A79A8"/>
<path d="M32.7579 136.851C40.3459 136.851 47.9338 136.851 55.5218 136.851C67.6132 136.851 79.7046 136.851 91.7651 136.851C94.5412 136.851 97.3173 136.851 100.063 136.851C100.402 136.851 101.759 136.236 101.019 136.236C93.4308 136.236 85.8428 136.236 78.2549 136.236C66.1635 136.236 54.0721 136.236 42.0115 136.236C39.2354 136.236 36.4594 136.236 33.7141 136.236C33.3748 136.236 32.0176 136.851 32.7579 136.851Z" fill="#6A79A8"/>
<path d="M64.7446 95.528H35.3797C33.6524 95.528 32.2335 94.1136 32.2335 92.3919V75.8505C32.2335 74.1287 33.6524 72.7144 35.3797 72.7144H64.7446C66.4719 72.7144 67.8908 74.1287 67.8908 75.8505V92.3919C67.8908 94.1136 66.5027 95.528 64.7446 95.528Z" fill="#E5E5E5"/>
<path d="M43.9239 77.1111C57.3416 77.1111 70.7594 77.1111 84.208 77.1111C86.0896 77.1111 87.9711 77.1111 89.8218 77.1111C90.6855 77.1111 90.9631 76.0042 89.9452 76.0042C76.5275 76.0042 63.1097 76.0042 49.6611 76.0042C47.7796 76.0042 45.898 76.0042 44.0473 76.0042C43.1836 76.0042 42.906 77.1111 43.9239 77.1111Z" fill="#6A79A8"/>
<path d="M33.4057 86.4271C37.0146 86.4271 40.5926 86.4271 44.2015 86.4271C52.8383 86.4271 61.475 86.4271 70.1117 86.4271C80.5683 86.4271 90.994 86.4271 101.451 86.4271C110.488 86.4271 119.526 86.4271 128.564 86.4271C132.944 86.4271 137.416 86.7038 141.796 86.4271C141.858 86.4271 141.92 86.4271 141.981 86.4271C142.568 86.4271 143.555 85.5355 142.537 85.5355C138.928 85.5355 135.35 85.5355 131.741 85.5355C123.104 85.5355 114.467 85.5355 105.831 85.5355C95.3741 85.5355 84.9483 85.5355 74.4917 85.5355C65.454 85.5355 56.4163 85.5355 47.3786 85.5355C42.9986 85.5355 38.526 85.2588 34.1459 85.5355C34.0842 85.5355 34.0226 85.5355 33.9609 85.5355C33.3748 85.5047 32.4186 86.4271 33.4057 86.4271Z" fill="#6A79A8"/>
<path d="M33.1588 93.0068C36.7677 93.0068 40.4075 93.0068 44.0164 93.0068C52.7148 93.0068 61.4132 93.0068 70.1425 93.0068C80.6607 93.0068 91.2099 93.0068 101.728 93.0068C110.828 93.0068 119.958 93.0068 129.057 93.0068C132.049 93.0068 135.072 93.0068 138.064 93.0068C139.452 93.0068 140.963 93.1605 142.352 93.0068C142.413 93.0068 142.475 93.0068 142.537 93.0068C143.4 93.0068 143.678 91.8999 142.66 91.8999C139.051 91.8999 135.411 91.8999 131.802 91.8999C123.104 91.8999 114.406 91.8999 105.676 91.8999C95.1581 91.8999 84.609 91.8999 74.0907 91.8999C64.9913 91.8999 55.8611 91.8999 46.7617 91.8999C43.7697 91.8999 40.7468 91.8999 37.7548 91.8999C36.3668 91.8999 34.8553 91.7462 33.4673 91.8999C33.4056 91.8999 33.3439 91.8999 33.2822 91.8999C32.4494 91.9307 32.1718 93.0068 33.1588 93.0068Z" fill="#6A79A8"/>
<path d="M32.943 99.1867C40.5309 99.1867 48.1189 99.1867 55.7069 99.1867C67.7983 99.1867 79.8897 99.1867 91.9502 99.1867C94.7263 99.1867 97.5024 99.1867 100.248 99.1867C100.772 99.1867 101.852 98.4181 100.834 98.4181C93.2457 98.4181 85.6577 98.4181 78.0698 98.4181C65.9784 98.4181 53.887 98.4181 41.8264 98.4181C39.0504 98.4181 36.2743 98.4181 33.529 98.4181C33.0047 98.4181 31.9559 99.1867 32.943 99.1867Z" fill="#6A79A8"/>
<path d="M146.765 190.261C158.365 178.698 158.365 159.951 146.765 148.389C135.165 136.826 116.358 136.826 104.757 148.389C93.1574 159.951 93.1574 178.698 104.757 190.261C116.358 201.824 135.165 201.824 146.765 190.261Z" fill="white"/>
<path d="M144.148 187.652C154.302 177.53 154.302 161.119 144.148 150.997C133.993 140.876 117.529 140.876 107.375 150.997C97.2202 161.119 97.2202 177.53 107.375 187.652C117.529 197.774 133.993 197.774 144.148 187.652Z" fill="#0072FF"/>
<path d="M130.785 155.114V169.38H139.205C140.162 169.38 140.624 170.518 139.946 171.163L126.528 184.538C126.096 184.968 125.417 184.968 124.986 184.538L111.568 171.163C110.889 170.487 111.383 169.38 112.308 169.38H120.451V155.114C120.451 154.376 121.037 153.792 121.778 153.792H129.396C130.198 153.761 130.785 154.376 130.785 155.114Z" fill="white"/>
<path d="M51.8057 40.5566H46.689V54.4096H45.4278V40.5566H40.3213V39.48H51.8057V40.5566ZM57.2095 54.6147C56.2661 54.6147 55.4116 54.3823 54.646 53.9175C53.8872 53.4526 53.2959 52.8066 52.8721 51.9795C52.4483 51.1455 52.2364 50.2124 52.2364 49.1801V48.7392C52.2364 47.6728 52.4414 46.7124 52.8516 45.8579C53.2686 45.0034 53.8462 44.3335 54.5845 43.8481C55.3228 43.3559 56.1226 43.1098 56.9839 43.1098C58.3306 43.1098 59.397 43.5713 60.1831 44.4941C60.9761 45.4101 61.3726 46.6645 61.3726 48.2573V48.9443H53.4566V49.1801C53.4566 50.438 53.8155 51.4873 54.5332 52.3281C55.2578 53.1621 56.167 53.5791 57.2608 53.5791C57.917 53.5791 58.4947 53.4594 58.9937 53.2202C59.4995 52.9809 59.9575 52.5981 60.3677 52.0718L61.1367 52.6562C60.2344 53.9619 58.9253 54.6147 57.2095 54.6147ZM56.9839 44.1557C56.0611 44.1557 55.2818 44.4941 54.646 45.1709C54.0171 45.8476 53.6343 46.7568 53.4976 47.8984H60.1524V47.7651C60.1182 46.6987 59.814 45.8305 59.2398 45.1606C58.6656 44.4907 57.9136 44.1557 56.9839 44.1557ZM67.8633 53.5791C68.7178 53.5791 69.4322 53.3398 70.0064 52.8613C70.5874 52.3759 70.9019 51.7505 70.9497 50.9848H72.1289C72.0948 51.6616 71.8828 52.2802 71.4932 52.8408C71.1035 53.3945 70.584 53.8286 69.9346 54.143C69.292 54.4575 68.6016 54.6147 67.8633 54.6147C66.4073 54.6147 65.252 54.1089 64.3975 53.0971C63.5498 52.0854 63.126 50.7251 63.126 49.0161V48.6469C63.126 47.5532 63.3174 46.5859 63.7002 45.7451C64.083 44.9043 64.6299 44.2549 65.3408 43.7968C66.0586 43.3388 66.896 43.1098 67.8531 43.1098C69.0699 43.1098 70.0713 43.4721 70.8574 44.1968C71.6504 44.9214 72.0742 45.875 72.1289 47.0576H70.9497C70.895 46.1894 70.5806 45.4887 70.0064 44.9555C69.439 44.4223 68.7212 44.1557 67.8531 44.1557C66.7456 44.1557 65.8843 44.5556 65.2691 45.3554C64.6607 46.1552 64.3565 47.2763 64.3565 48.7187V49.0776C64.3565 50.4926 64.6607 51.5967 65.2691 52.3896C65.8843 53.1826 66.7491 53.5791 67.8633 53.5791ZM75.8101 45.1914C76.2134 44.5283 76.7295 44.0156 77.3584 43.6533C77.9873 43.291 78.6743 43.1098 79.4195 43.1098C80.6089 43.1098 81.4942 43.4448 82.0752 44.1147C82.6563 44.7846 82.9502 45.7895 82.9571 47.1294V54.4096H81.7368V47.1191C81.73 46.1279 81.5181 45.3896 81.1011 44.9043C80.6909 44.4189 80.0313 44.1762 79.1221 44.1762C78.3633 44.1762 77.69 44.4155 77.1021 44.894C76.521 45.3657 76.0904 46.0049 75.8101 46.8115V54.4096H74.5899V38.6596H75.8101V45.1914ZM95.0362 48.9751C95.0362 50.7046 94.6533 52.0786 93.8877 53.0971C93.1221 54.1089 92.0967 54.6147 90.8116 54.6147C89.294 54.6147 88.1319 54.0815 87.3252 53.0151V58.6753H86.105V43.3149H87.2432L87.3047 44.8838C88.1045 43.7011 89.2632 43.1098 90.7808 43.1098C92.107 43.1098 93.146 43.6123 93.898 44.6172C94.6568 45.622 95.0362 47.0166 95.0362 48.8008V48.9751ZM93.8057 48.7597C93.8057 47.3447 93.5152 46.227 92.9341 45.4067C92.3531 44.5864 91.543 44.1762 90.5039 44.1762C89.752 44.1762 89.106 44.3574 88.5659 44.7197C88.0259 45.082 87.6123 45.6084 87.3252 46.2988V51.6206C87.6192 52.2563 88.0396 52.7417 88.5865 53.0766C89.1333 53.4116 89.7793 53.5791 90.5244 53.5791C91.5567 53.5791 92.3599 53.1689 92.9341 52.3486C93.5152 51.5215 93.8057 50.3252 93.8057 48.7597ZM104.767 54.4096C104.644 54.061 104.565 53.5449 104.531 52.8613C104.101 53.4218 103.55 53.8559 102.88 54.1635C102.217 54.4643 101.513 54.6147 100.768 54.6147C99.7017 54.6147 98.8369 54.3174 98.1739 53.7226C97.5176 53.1279 97.1895 52.3759 97.1895 51.4668C97.1895 50.3867 97.6372 49.5322 98.5327 48.9033C99.4351 48.2744 100.689 47.9599 102.296 47.9599H104.521V46.6987C104.521 45.9057 104.275 45.2837 103.783 44.8325C103.297 44.3745 102.586 44.1455 101.65 44.1455C100.795 44.1455 100.088 44.3642 99.5274 44.8017C98.9668 45.2392 98.6866 45.7656 98.6866 46.3808L97.4561 46.3706C97.4561 45.4887 97.8662 44.7265 98.6866 44.084C99.5069 43.4345 100.515 43.1098 101.711 43.1098C102.949 43.1098 103.923 43.4209 104.634 44.0429C105.352 44.6582 105.721 45.5195 105.741 46.6269V51.8769C105.741 52.9502 105.854 53.7534 106.08 54.2866V54.4096H104.767ZM100.912 53.5278C101.732 53.5278 102.463 53.3296 103.106 52.9331C103.755 52.5366 104.227 52.0068 104.521 51.3437V48.9033H102.327C101.103 48.917 100.146 49.1426 99.4556 49.5801C98.7652 50.0107 98.42 50.6054 98.42 51.3642C98.42 51.9863 98.649 52.5024 99.107 52.9126C99.5718 53.3227 100.173 53.5278 100.912 53.5278ZM117.943 48.9751C117.943 50.7046 117.561 52.0786 116.795 53.0971C116.029 54.1089 115.004 54.6147 113.719 54.6147C112.201 54.6147 111.039 54.0815 110.232 53.0151V58.6753H109.012V43.3149H110.15L110.212 44.8838C111.012 43.7011 112.17 43.1098 113.688 43.1098C115.014 43.1098 116.053 43.6123 116.805 44.6172C117.564 45.622 117.943 47.0166 117.943 48.8008V48.9751ZM116.713 48.7597C116.713 47.3447 116.422 46.227 115.841 45.4067C115.26 44.5864 114.45 44.1762 113.411 44.1762C112.659 44.1762 112.013 44.3574 111.473 44.7197C110.933 45.082 110.52 45.6084 110.232 46.2988V51.6206C110.526 52.2563 110.947 52.7417 111.494 53.0766C112.041 53.4116 112.687 53.5791 113.432 53.5791C114.464 53.5791 115.267 53.1689 115.841 52.3486C116.422 51.5215 116.713 50.3252 116.713 48.7597ZM124.967 54.6147C124.024 54.6147 123.169 54.3823 122.404 53.9175C121.645 53.4526 121.054 52.8066 120.63 51.9795C120.206 51.1455 119.994 50.2124 119.994 49.1801V48.7392C119.994 47.6728 120.199 46.7124 120.609 45.8579C121.026 45.0034 121.604 44.3335 122.342 43.8481C123.081 43.3559 123.88 43.1098 124.742 43.1098C126.088 43.1098 127.155 43.5713 127.941 44.4941C128.734 45.4101 129.13 46.6645 129.13 48.2573V48.9443H121.214V49.1801C121.214 50.438 121.573 51.4873 122.291 52.3281C123.016 53.1621 123.925 53.5791 125.019 53.5791C125.675 53.5791 126.252 53.4594 126.751 53.2202C127.257 52.9809 127.715 52.5981 128.126 52.0718L128.895 52.6562C127.992 53.9619 126.683 54.6147 124.967 54.6147ZM124.742 44.1557C123.819 44.1557 123.04 44.4941 122.404 45.1709C121.775 45.8476 121.392 46.7568 121.255 47.8984H127.91V47.7651C127.876 46.6987 127.572 45.8305 126.998 45.1606C126.423 44.4907 125.671 44.1557 124.742 44.1557ZM136.647 44.3608C136.387 44.313 136.11 44.289 135.816 44.289C135.05 44.289 134.401 44.5044 133.868 44.935C133.341 45.3589 132.965 45.9775 132.74 46.791V54.4096H131.52V43.3149H132.719L132.74 45.0786C133.389 43.7661 134.432 43.1098 135.867 43.1098C136.209 43.1098 136.479 43.1543 136.677 43.2431L136.647 44.3608Z" fill="#A2A2A2"/>
</g>
<defs>
<clipPath id="clip0">
<rect width="162" height="204" fill="white"/>
</clipPath>
</defs>
</svg>
