<svg width="162" height="204" viewBox="0 0 162 204" fill="none" xmlns="http://www.w3.org/2000/svg">
<g clip-path="url(#clip0)">
<path d="M149.292 42.3065V185.214C149.292 188.842 146.331 191.794 142.66 191.794H7.43376C3.76316 191.794 0.802002 188.842 0.802002 185.214V161.909L0.925384 149.057V6.97935C0.925384 3.35131 3.88654 0.399693 7.55714 0.399693H138.959C144.696 0.399693 149.323 5.0116 149.323 10.7304V35.6039L149.292 42.3065Z" fill="#F9F9F9"/>
<path d="M145.128 41.6916V185.368C145.128 188.934 142.259 191.794 138.743 191.794H7.187C3.67062 191.794 0.802002 188.904 0.802002 185.368V162.616L0.894538 150.071V11.499C0.894538 7.93248 3.76316 5.0731 7.27953 5.0731H139.39C142.567 5.0731 145.128 7.59427 145.128 10.7304V41.6916Z" fill="white"/>
<path d="M148.521 42.5217C148.521 48.302 148.521 54.113 148.521 59.8933C148.521 73.3908 148.521 86.8883 148.521 100.386C148.521 115.574 148.521 130.763 148.521 145.951C148.521 156.959 148.521 167.966 148.521 178.973C148.521 181.063 148.552 183.154 148.521 185.245C148.459 188.473 146.3 191.333 142.907 191.456C142.321 191.486 141.766 191.456 141.18 191.456C132.08 191.456 122.95 191.456 113.851 191.456C98.9525 191.456 84.085 191.456 69.1867 191.456C55.1829 191.456 41.1483 191.456 27.1444 191.456C20.6978 191.456 14.1894 191.671 7.74269 191.456C3.82533 191.333 1.51193 188.043 1.51193 184.384C1.51193 181.525 1.51193 178.634 1.51193 175.775C1.51193 170.733 1.48108 165.69 1.51193 160.648C1.57362 154.038 1.60446 147.427 1.60446 140.848C1.60446 129.318 1.60446 117.788 1.60446 106.258C1.60446 91.0083 1.60446 75.7275 1.60446 60.4774C1.60446 47.4411 1.60446 34.4355 1.60446 21.3992C1.60446 17.5867 1.60446 13.7742 1.60446 9.99243C1.60446 6.73335 1.32685 3.13606 4.81238 1.32205C6.7248 0.307428 9.7168 0.737873 11.8143 0.737873C16.2252 0.737873 20.6361 0.737873 25.0778 0.737873C39.0199 0.737873 52.962 0.737873 66.9042 0.737873C81.8025 0.737873 96.67 0.737873 111.568 0.737873C120.205 0.737873 128.873 0.737873 137.509 0.737873C138.527 0.737873 139.483 0.737873 140.47 0.953095C145.313 1.93697 148.49 6.27216 148.552 11.0993C148.644 17.2178 148.552 23.3055 148.552 29.4239C148.521 33.7591 148.521 38.1251 148.521 42.5217C148.521 42.8292 150.002 42.614 150.002 42.122C150.002 31.5762 150.187 21.0303 150.002 10.5151C149.94 5.53426 146.424 1.22981 141.488 0.245936C140.409 0.0307139 139.329 0.0307139 138.219 0.0307139C135.103 0.0307139 131.988 0.0307139 128.903 0.0307139C116.041 0.0307139 103.209 0.0307139 90.3467 0.0307139C74.8623 0.0307139 59.347 0.0307139 43.8626 0.0307139C33.1593 0.0307139 22.4868 0.0307139 11.7834 0.0307139C9.22327 0.0307139 6.47803 -0.246 4.13378 0.922349C1.60446 2.18294 0.154729 4.61187 0.123883 7.37902C0.123883 8.14767 0.123883 8.91632 0.123883 9.68497C0.123883 19.124 0.123883 28.5938 0.123883 38.0328C0.123883 53.0984 0.123883 68.164 0.123883 83.2295C0.123883 97.6187 0.123883 112.039 0.123883 126.428C0.123883 133.868 0.123883 141.34 0.123883 148.78C0.123883 158.404 0.000501623 168.027 0.000501623 177.62C0.000501623 180.141 -0.0611892 182.662 0.000501623 185.183C0.0621924 189.18 3.11589 192.04 7.0641 192.101C8.88397 192.132 10.7347 192.101 12.5546 192.101C23.8131 192.101 35.0717 192.101 46.3303 192.101C61.8764 192.101 77.4224 192.101 92.9685 192.101C105.769 192.101 118.539 192.101 131.34 192.101C134.579 192.101 137.787 192.101 141.026 192.101C141.581 192.101 142.167 192.132 142.722 192.101C146.639 191.855 149.878 188.965 150.002 184.937C150.156 178.604 150.002 172.239 150.002 165.875C150.002 151.947 150.002 138.019 150.002 124.06C150.002 108.749 150.002 93.4065 150.002 78.0949C150.002 67.6105 150.002 57.1261 150.002 46.6417C150.002 45.1044 150.002 43.5671 150.002 42.0606C150.032 41.8146 148.521 42.0298 148.521 42.5217Z" fill="#C9C9C9"/>
<path d="M155.214 48.2405V191.148C155.214 194.776 152.253 197.728 148.582 197.728H13.356C9.6854 197.728 6.72424 194.776 6.72424 191.148V167.843L6.84763 154.991V12.9133C6.84763 9.2853 9.80878 6.33368 13.4794 6.33368H144.881C150.618 6.33368 155.245 10.9456 155.245 16.6644V41.5379L155.214 48.2405Z" fill="#F9F9F9"/>
<path d="M151.05 47.6256V191.302C151.05 194.868 148.181 197.728 144.665 197.728H13.1092C9.59287 197.728 6.72424 194.838 6.72424 191.302V168.55L6.81678 156.005V17.433C6.81678 13.8665 9.6854 11.0071 13.2018 11.0071H145.313C148.49 11.0071 151.05 13.5283 151.05 16.6643V47.6256Z" fill="white"/>
<path d="M154.474 48.425C154.474 54.2053 154.474 60.0163 154.474 65.7965C154.474 79.294 154.474 92.7916 154.474 106.289C154.474 121.478 154.474 136.666 154.474 151.855C154.474 162.862 154.474 173.869 154.474 184.876C154.474 186.967 154.505 189.057 154.474 191.148C154.412 194.376 152.253 197.236 148.86 197.359C148.274 197.39 147.719 197.359 147.132 197.359C138.033 197.359 128.903 197.359 119.803 197.359C104.905 197.359 90.0377 197.359 75.1394 197.359C61.1355 197.359 47.1009 197.359 33.0971 197.359C26.6504 197.359 20.142 197.574 13.6953 197.359C9.77797 197.236 7.46456 193.946 7.46456 190.287C7.46456 187.428 7.46456 184.538 7.46456 181.678C7.46456 176.636 7.43372 171.594 7.46456 166.551C7.52625 159.941 7.5571 153.331 7.5571 146.751C7.5571 135.221 7.5571 123.691 7.5571 112.162C7.5571 96.9115 7.5571 81.6307 7.5571 66.3807C7.5571 53.3444 7.5571 40.3388 7.5571 27.3025C7.5571 23.49 7.5571 19.6775 7.5571 15.8957C7.5571 12.6366 7.27949 9.03933 10.765 7.22531C12.6774 6.2107 15.6694 6.64114 17.7669 6.64114C22.1778 6.64114 26.5887 6.64114 31.0304 6.64114C44.9726 6.64114 58.9147 6.64114 72.8568 6.64114C87.7551 6.64114 102.623 6.64114 117.521 6.64114C126.158 6.64114 134.825 6.64114 143.462 6.64114C144.48 6.64114 145.436 6.64114 146.423 6.85636C151.266 7.84024 154.443 12.1754 154.505 17.0026C154.597 23.121 154.505 29.2087 154.505 35.3272C154.474 39.6624 154.474 44.0591 154.474 48.425C154.474 48.7325 155.954 48.5172 155.954 48.0253C155.954 37.4794 156.139 26.9335 155.954 16.4184C155.862 11.4375 152.345 7.13308 147.41 6.1492C146.331 5.93398 145.251 5.93398 144.14 5.93398C141.025 5.93398 137.91 5.93398 134.825 5.93398C121.963 5.93398 109.131 5.93398 96.2684 5.93398C80.7841 5.93398 65.2688 5.93398 49.7844 5.93398C39.0811 5.93398 28.4086 5.93398 17.7052 5.93398C15.1759 5.93398 12.4307 5.65727 10.0864 6.82562C7.5571 8.0862 6.10737 10.5151 6.07652 13.2823C6.07652 14.0509 6.07652 14.8196 6.07652 15.5882C6.07652 25.0273 6.07652 34.497 6.07652 43.9361C6.07652 59.0016 6.07652 74.0672 6.07652 89.1328C6.07652 103.522 6.07652 117.942 6.07652 132.331C6.07652 139.771 6.07652 147.243 6.07652 154.683C6.07652 164.307 5.95314 173.93 5.95314 183.523C5.95314 186.044 5.89145 188.565 5.95314 191.087C6.01483 195.084 9.06852 197.943 13.0167 198.004C14.8366 198.035 16.6873 198.004 18.5072 198.004C29.7658 198.004 41.0243 198.004 52.2829 198.004C67.829 198.004 83.3751 198.004 98.9212 198.004C111.722 198.004 124.492 198.004 137.293 198.004C140.532 198.004 143.74 198.004 146.978 198.004C147.533 198.004 148.12 198.035 148.675 198.004C152.592 197.759 155.831 194.868 155.954 190.841C156.109 184.507 155.954 178.143 155.954 171.778C155.954 157.85 155.954 143.922 155.954 129.964C155.954 114.652 155.954 99.3097 155.954 83.9982C155.954 73.5138 155.954 63.0294 155.954 52.545C155.954 51.0077 155.954 49.4704 155.954 47.9638C155.954 47.7178 154.474 47.9638 154.474 48.425Z" fill="#C9C9C9"/>
<path d="M161.167 54.1745V197.082C161.167 200.71 158.206 203.662 154.535 203.662H19.3092C15.6386 203.662 12.6774 200.71 12.6774 197.082V173.777L12.8008 160.925V18.8473C12.8008 15.2193 15.762 12.2677 19.4326 12.2677H150.834C156.571 12.2677 161.198 16.8796 161.198 22.5983V47.4719L161.167 54.1745Z" fill="#F9F9F9"/>
<path d="M157.003 53.5596V197.236C157.003 200.802 154.134 203.662 150.618 203.662H19.0624C15.5461 203.662 12.6774 200.772 12.6774 197.236V174.484L12.77 161.939V23.367C12.77 19.8005 15.6386 16.9411 19.155 16.9411H151.266C154.443 16.9411 157.003 19.4622 157.003 22.5983V53.5596Z" fill="white"/>
<path d="M160.427 54.359C160.427 60.1393 160.427 65.9503 160.427 71.7305C160.427 85.228 160.427 98.7255 160.427 112.223C160.427 127.412 160.427 142.6 160.427 157.789C160.427 168.796 160.427 179.803 160.427 190.81C160.427 192.901 160.458 194.991 160.427 197.082C160.365 200.31 158.206 203.17 154.813 203.293C154.227 203.324 153.672 203.293 153.086 203.293C143.986 203.293 134.856 203.293 125.757 203.293C110.858 203.293 95.9909 203.293 81.0925 203.293C67.0887 203.293 53.0541 203.293 39.0503 203.293C32.6036 203.293 26.0952 203.508 19.6485 203.293C15.7312 203.17 13.4177 199.88 13.4177 196.221C13.4177 193.362 13.4177 190.472 13.4177 187.612C13.4177 182.57 13.3869 177.528 13.4177 172.485C13.4794 165.875 13.5103 159.265 13.5103 152.685C13.5103 141.155 13.5103 129.625 13.5103 118.096C13.5103 102.846 13.5103 87.5647 13.5103 72.3147C13.5103 59.2784 13.5103 46.2728 13.5103 33.2365C13.5103 29.424 13.5103 25.6115 13.5103 21.8297C13.5103 18.5706 13.2327 14.9733 16.7182 13.1593C18.6306 12.1447 21.6226 12.5751 23.7201 12.5751C28.131 12.5751 32.5419 12.5751 36.9836 12.5751C50.9257 12.5751 64.8679 12.5751 78.81 12.5751C93.7083 12.5751 108.576 12.5751 123.474 12.5751C132.111 12.5751 140.778 12.5751 149.415 12.5751C150.433 12.5751 151.389 12.5751 152.376 12.7904C157.219 13.7742 160.396 18.1094 160.458 22.9366C160.55 29.055 160.458 35.1427 160.458 41.2612C160.427 45.5964 160.427 49.9931 160.427 54.359C160.427 54.6665 161.907 54.4512 161.907 53.9593C161.907 43.4134 162.093 32.8675 161.907 22.3524C161.815 17.3715 158.299 13.0671 153.363 12.0832C152.284 11.868 151.204 11.868 150.094 11.868C146.978 11.868 143.863 11.868 140.778 11.868C127.916 11.868 115.084 11.868 102.222 11.868C86.7372 11.868 71.222 11.868 55.7376 11.868C45.0343 11.868 34.3618 11.868 23.6584 11.868C21.1291 11.868 18.3839 11.5913 16.0396 12.7596C13.5103 14.0202 12.0606 16.4491 12.0297 19.2163C12.0297 19.9849 12.0297 20.7536 12.0297 21.5222C12.0297 30.9613 12.0297 40.431 12.0297 49.8701C12.0297 64.9356 12.0297 80.0012 12.0297 95.0668C12.0297 109.456 12.0297 123.876 12.0297 138.265C12.0297 145.706 12.0297 153.177 12.0297 160.617C12.0297 170.241 11.9063 179.864 11.9063 189.457C11.9063 191.978 11.8446 194.499 11.9063 197.021C11.968 201.018 15.0217 203.877 18.9699 203.938C20.7898 203.969 22.6405 203.938 24.4604 203.938C35.719 203.938 46.9775 203.938 58.2361 203.938C73.7822 203.938 89.3282 203.938 104.874 203.938C117.675 203.938 130.445 203.938 143.246 203.938C146.485 203.938 149.693 203.938 152.931 203.938C153.487 203.938 154.073 203.969 154.628 203.938C158.545 203.693 161.784 200.802 161.907 196.775C162.062 190.441 161.907 184.077 161.907 177.712C161.907 163.784 161.907 149.856 161.907 135.898C161.907 120.586 161.907 105.244 161.907 89.9322C161.907 79.4478 161.907 68.9634 161.907 58.479C161.907 56.9417 161.907 55.4044 161.907 53.8978C161.907 53.6518 160.427 53.8671 160.427 54.359Z" fill="#C9C9C9"/>
<path d="M64.9295 171.04H35.4414C33.7449 171.04 32.3568 169.657 32.3568 167.966V151.301C32.3568 149.61 33.7449 148.227 35.4414 148.227H64.9295C66.626 148.227 68.0141 149.61 68.0141 151.301V167.966C67.9832 169.657 66.626 171.04 64.9295 171.04Z" fill="#E5E5E5"/>
<path d="M45.4969 152.593C58.6679 152.593 71.8081 152.593 84.979 152.593C86.8298 152.593 88.6805 152.593 90.5312 152.593C91.364 152.593 91.6725 151.547 90.6854 151.547C77.5145 151.547 64.3743 151.547 51.2033 151.547C49.3526 151.547 47.5019 151.547 45.6512 151.547C44.7875 151.547 44.479 152.593 45.4969 152.593Z" fill="#6A79A8"/>
<path d="M33.2204 161.786C36.8293 161.786 40.4074 161.786 44.0163 161.786C52.653 161.786 61.2897 161.786 69.9264 161.786C80.383 161.786 90.8088 161.786 101.265 161.786C110.303 161.786 119.341 161.786 128.378 161.786C132.758 161.786 137.231 162.001 141.611 161.786C141.673 161.786 141.735 161.786 141.796 161.786C142.105 161.786 143.462 161.202 142.783 161.202C139.174 161.202 135.596 161.202 131.987 161.202C123.351 161.202 114.714 161.202 106.077 161.202C95.6207 161.202 85.1949 161.202 74.7383 161.202C65.7006 161.202 56.6629 161.202 47.6252 161.202C43.2452 161.202 38.7726 160.986 34.3926 161.202C34.3309 161.202 34.2692 161.202 34.2075 161.202C33.8682 161.202 32.511 161.786 33.2204 161.786Z" fill="#6A79A8"/>
<path d="M32.7578 168.304C36.3667 168.304 40.0064 168.304 43.6154 168.304C52.3138 168.304 61.0122 168.304 69.7414 168.304C80.2597 168.304 90.8088 168.304 101.327 168.304C110.426 168.304 119.557 168.304 128.656 168.304C133.067 168.304 137.54 168.488 141.981 168.304C142.043 168.304 142.105 168.304 142.166 168.304C142.506 168.304 143.863 167.658 143.123 167.658C139.514 167.658 135.874 167.658 132.265 167.658C123.567 167.658 114.868 167.658 106.139 167.658C95.6207 167.658 85.0716 167.658 74.5533 167.658C65.4539 167.658 56.3237 167.658 47.2243 167.658C42.8134 167.658 38.3408 167.474 33.8991 167.658C33.8374 167.658 33.7757 167.658 33.714 167.658C33.3747 167.658 32.0175 168.304 32.7578 168.304Z" fill="#6A79A8"/>
<path d="M32.9429 174.699C40.5308 174.699 48.1188 174.699 55.7068 174.699C67.7981 174.699 79.8895 174.699 91.9501 174.699C94.7262 174.699 97.5023 174.699 100.247 174.699C100.772 174.699 101.851 173.9 100.834 173.9C93.2456 173.9 85.6576 173.9 78.0697 173.9C65.9783 173.9 53.8869 173.9 41.8263 173.9C39.0502 173.9 36.2742 173.9 33.5289 173.9C33.0045 173.93 31.9558 174.699 32.9429 174.699Z" fill="#6A79A8"/>
<path d="M64.837 133.284H34.8861C33.313 133.284 32.0483 132.023 32.0483 130.455V113.33C32.0483 111.762 33.313 110.501 34.8861 110.501H64.837C66.4101 110.501 67.6748 111.762 67.6748 113.33V130.455C67.7056 132.023 66.4101 133.284 64.837 133.284Z" fill="#F5F5F5"/>
<path d="M44.294 114.775C57.3416 114.775 70.3892 114.775 83.4676 114.775C85.3184 114.775 87.1691 114.775 89.0198 114.775C89.6367 114.775 90.5929 113.853 89.575 113.853C76.5274 113.853 63.4798 113.853 50.4014 113.853C48.5507 113.853 46.6999 113.853 44.8492 113.853C44.2323 113.853 43.2761 114.775 44.294 114.775Z" fill="#6A79A8"/>
<path d="M33.4055 124.122C37.0145 124.122 40.5925 124.122 44.2014 124.122C52.8381 124.122 61.4748 124.122 70.1116 124.122C80.5681 124.122 90.9939 124.122 101.45 124.122C110.488 124.122 119.526 124.122 128.564 124.122C132.944 124.122 137.416 124.398 141.796 124.122C141.858 124.122 141.92 124.122 141.981 124.122C142.506 124.122 143.585 123.322 142.567 123.322C138.958 123.322 135.38 123.322 131.771 123.322C123.135 123.322 114.498 123.322 105.861 123.322C95.4048 123.322 84.979 123.322 74.5225 123.322C65.4848 123.322 56.447 123.322 47.4093 123.322C43.0293 123.322 38.5567 123.046 34.1767 123.322C34.115 123.322 34.0533 123.322 33.9916 123.322C33.4672 123.322 32.3876 124.122 33.4055 124.122Z" fill="#6A79A8"/>
<path d="M32.7578 130.517C36.3667 130.517 40.0065 130.517 43.6154 130.517C52.3138 130.517 61.0122 130.517 69.7414 130.517C80.2597 130.517 90.8088 130.517 101.327 130.517C110.427 130.517 119.557 130.517 128.656 130.517C133.067 130.517 137.54 130.732 141.981 130.517C142.043 130.517 142.105 130.517 142.166 130.517C142.475 130.517 143.832 129.933 143.153 129.933C139.545 129.933 135.905 129.933 132.296 129.933C123.597 129.933 114.899 129.933 106.17 129.933C95.6516 129.933 85.1024 129.933 74.5842 129.933C65.4848 129.933 56.3545 129.933 47.2551 129.933C42.8442 129.933 38.3717 129.718 33.9299 129.933C33.8682 129.933 33.8065 129.933 33.7449 129.933C33.4364 129.933 32.0484 130.517 32.7578 130.517Z" fill="#6A79A8"/>
<path d="M32.7578 136.851C40.3457 136.851 47.9337 136.851 55.5217 136.851C67.6131 136.851 79.7045 136.851 91.765 136.851C94.5411 136.851 97.3172 136.851 100.062 136.851C100.402 136.851 101.759 136.236 101.019 136.236C93.4307 136.236 85.8427 136.236 78.2547 136.236C66.1633 136.236 54.0719 136.236 42.0114 136.236C39.2353 136.236 36.4592 136.236 33.714 136.236C33.3747 136.236 32.0175 136.851 32.7578 136.851Z" fill="#6A79A8"/>
<path d="M64.7444 95.528H35.3796C33.6523 95.528 32.2334 94.1136 32.2334 92.3919V75.8505C32.2334 74.1287 33.6523 72.7144 35.3796 72.7144H64.7444C66.4718 72.7144 67.8907 74.1287 67.8907 75.8505V92.3919C67.8907 94.1136 66.5026 95.528 64.7444 95.528Z" fill="#E5E5E5"/>
<path d="M43.9238 77.1111C57.3416 77.1111 70.7593 77.1111 84.2079 77.1111C86.0895 77.1111 87.9711 77.1111 89.8218 77.1111C90.6855 77.1111 90.9631 76.0042 89.9452 76.0042C76.5274 76.0042 63.1097 76.0042 49.6611 76.0042C47.7795 76.0042 45.8979 76.0042 44.0472 76.0042C43.1836 76.0042 42.9059 77.1111 43.9238 77.1111Z" fill="#6A79A8"/>
<path d="M33.4055 86.4271C37.0144 86.4271 40.5925 86.4271 44.2014 86.4271C52.8381 86.4271 61.4748 86.4271 70.1115 86.4271C80.5681 86.4271 90.9939 86.4271 101.45 86.4271C110.488 86.4271 119.526 86.4271 128.564 86.4271C132.944 86.4271 137.416 86.7038 141.796 86.4271C141.858 86.4271 141.92 86.4271 141.981 86.4271C142.567 86.4271 143.554 85.5355 142.537 85.5355C138.928 85.5355 135.35 85.5355 131.741 85.5355C123.104 85.5355 114.467 85.5355 105.831 85.5355C95.3739 85.5355 84.9482 85.5355 74.4916 85.5355C65.4539 85.5355 56.4162 85.5355 47.3785 85.5355C42.9984 85.5355 38.5259 85.2588 34.1458 85.5355C34.0841 85.5355 34.0224 85.5355 33.9607 85.5355C33.3747 85.5048 32.4185 86.4271 33.4055 86.4271Z" fill="#6A79A8"/>
<path d="M33.1588 93.0068C36.7677 93.0068 40.4074 93.0068 44.0164 93.0068C52.7148 93.0068 61.4132 93.0068 70.1424 93.0068C80.6607 93.0068 91.2098 93.0068 101.728 93.0068C110.827 93.0068 119.958 93.0068 129.057 93.0068C132.049 93.0068 135.072 93.0068 138.064 93.0068C139.452 93.0068 140.963 93.1605 142.351 93.0068C142.413 93.0068 142.475 93.0068 142.537 93.0068C143.4 93.0068 143.678 91.8999 142.66 91.8999C139.051 91.8999 135.411 91.8999 131.802 91.8999C123.104 91.8999 114.406 91.8999 105.676 91.8999C95.158 91.8999 84.6089 91.8999 74.0906 91.8999C64.9912 91.8999 55.861 91.8999 46.7616 91.8999C43.7696 91.8999 40.7467 91.8999 37.7547 91.8999C36.3667 91.8999 34.8553 91.7462 33.4672 91.8999C33.4055 91.8999 33.3439 91.8999 33.2822 91.8999C32.4493 91.9307 32.1717 93.0068 33.1588 93.0068Z" fill="#6A79A8"/>
<path d="M32.9429 99.1867C40.5308 99.1867 48.1188 99.1867 55.7068 99.1867C67.7981 99.1867 79.8895 99.1867 91.9501 99.1867C94.7262 99.1867 97.5023 99.1867 100.247 99.1867C100.772 99.1867 101.851 98.4181 100.834 98.4181C93.2456 98.4181 85.6576 98.4181 78.0697 98.4181C65.9783 98.4181 53.8869 98.4181 41.8263 98.4181C39.0502 98.4181 36.2742 98.4181 33.5289 98.4181C33.0045 98.4181 31.9558 99.1867 32.9429 99.1867Z" fill="#6A79A8"/>
<path d="M146.765 190.261C158.365 178.698 158.365 159.951 146.765 148.389C135.165 136.826 116.357 136.826 104.757 148.389C93.1573 159.951 93.1573 178.698 104.757 190.261C116.357 201.824 135.165 201.824 146.765 190.261Z" fill="white"/>
<path d="M144.148 187.652C154.302 177.53 154.302 161.119 144.148 150.997C133.993 140.876 117.529 140.876 107.375 150.997C97.2201 161.119 97.2201 177.53 107.375 187.652C117.529 197.774 133.993 197.774 144.148 187.652Z" fill="#0072FF"/>
<path d="M130.784 155.114V169.38H139.205C140.161 169.38 140.624 170.518 139.945 171.163L126.528 184.538C126.096 184.968 125.417 184.968 124.985 184.538L111.568 171.163C110.889 170.487 111.383 169.38 112.308 169.38H120.451V155.114C120.451 154.376 121.037 153.792 121.778 153.792H129.396C130.198 153.761 130.784 154.376 130.784 155.114Z" fill="white"/>
<path d="M40.4649 50.3799L40.9263 52.6972L41.4903 50.4824L44.7305 39.48H45.8687L49.0679 50.4824L49.6216 52.7177L50.1138 50.3799L52.8106 39.48H54.1026L50.2779 54.4096H49.0679L45.6841 42.7304L45.3047 41.2539L44.9356 42.7304L41.4698 54.4096H40.2598L36.4453 39.48H37.7373L40.4649 50.3799ZM57.4658 45.1914C57.8692 44.5283 58.3853 44.0156 59.0142 43.6533C59.6431 43.291 60.3301 43.1098 61.0752 43.1098C62.2647 43.1098 63.1499 43.4448 63.731 44.1147C64.312 44.7846 64.606 45.7895 64.6128 47.1294V54.4096H63.3926V47.1191C63.3858 46.1279 63.1739 45.3896 62.7569 44.9043C62.3467 44.4189 61.687 44.1762 60.7779 44.1762C60.0191 44.1762 59.3457 44.4155 58.7578 44.894C58.1768 45.3657 57.7461 46.0049 57.4658 46.8115V54.4096H56.2456V38.6596H57.4658V45.1914ZM69.145 54.4096H67.9146V43.3149H69.145V54.4096ZM67.6992 40.1054C67.6992 39.873 67.7744 39.6782 67.9248 39.521C68.0752 39.3569 68.2803 39.2749 68.5401 39.2749C68.7998 39.2749 69.0049 39.3569 69.1553 39.521C69.3125 39.6782 69.3911 39.873 69.3911 40.1054C69.3911 40.3379 69.3125 40.5327 69.1553 40.6899C69.0049 40.8471 68.7998 40.9258 68.5401 40.9258C68.2803 40.9258 68.0752 40.8471 67.9248 40.6899C67.7744 40.5327 67.6992 40.3379 67.6992 40.1054ZM74.395 40.4746V43.3149H76.6919V44.3198H74.395V51.7129C74.395 52.3281 74.5044 52.7861 74.7232 53.0869C74.9488 53.3877 75.3213 53.5381 75.8408 53.5381C76.0459 53.5381 76.3775 53.5039 76.8355 53.4355L76.8867 54.4404C76.5655 54.5566 76.128 54.6147 75.5742 54.6147C74.7334 54.6147 74.1216 54.372 73.7388 53.8867C73.356 53.3945 73.1646 52.6733 73.1646 51.7231V44.3198H71.1241V43.3149H73.1646V40.4746H74.395ZM83.5313 54.6147C82.5879 54.6147 81.7334 54.3823 80.9678 53.9175C80.209 53.4526 79.6177 52.8066 79.1939 51.9795C78.77 51.1455 78.5581 50.2124 78.5581 49.1801V48.7392C78.5581 47.6728 78.7632 46.7124 79.1734 45.8579C79.5904 45.0034 80.168 44.3335 80.9063 43.8481C81.6446 43.3559 82.4444 43.1098 83.3057 43.1098C84.6524 43.1098 85.7188 43.5713 86.5049 44.4941C87.2979 45.4101 87.6944 46.6645 87.6944 48.2573V48.9443H79.7783V49.1801C79.7783 50.438 80.1372 51.4873 80.855 52.3281C81.5796 53.1621 82.4888 53.5791 83.5825 53.5791C84.2388 53.5791 84.8164 53.4594 85.3155 53.2202C85.8213 52.9809 86.2793 52.5981 86.6895 52.0718L87.4585 52.6562C86.5562 53.9619 85.2471 54.6147 83.5313 54.6147ZM83.3057 44.1557C82.3828 44.1557 81.6035 44.4941 80.9678 45.1709C80.3389 45.8476 79.9561 46.7568 79.8194 47.8984H86.4741V47.7651C86.44 46.6987 86.1358 45.8305 85.5616 45.1606C84.9873 44.4907 84.2354 44.1557 83.3057 44.1557ZM99.0044 48.9751C99.0044 50.7046 98.6216 52.0786 97.856 53.0971C97.0904 54.1089 96.065 54.6147 94.7798 54.6147C93.2622 54.6147 92.1001 54.0815 91.2935 53.0151V58.6753H90.0733V43.3149H91.2115L91.273 44.8838C92.0728 43.7011 93.2315 43.1098 94.7491 43.1098C96.0752 43.1098 97.1143 43.6123 97.8662 44.6172C98.625 45.622 99.0044 47.0166 99.0044 48.8008V48.9751ZM97.774 48.7597C97.774 47.3447 97.4834 46.227 96.9024 45.4067C96.3213 44.5864 95.5113 44.1762 94.4722 44.1762C93.7202 44.1762 93.0742 44.3574 92.5342 44.7197C91.9942 45.082 91.5806 45.6084 91.2935 46.2988V51.6206C91.5874 52.2563 92.0078 52.7417 92.5547 53.0766C93.1016 53.4116 93.7476 53.5791 94.4927 53.5791C95.5249 53.5791 96.3282 53.1689 96.9024 52.3486C97.4834 51.5215 97.774 50.3252 97.774 48.7597ZM108.735 54.4096C108.612 54.061 108.534 53.5449 108.5 52.8613C108.069 53.4218 107.519 53.8559 106.849 54.1635C106.186 54.4643 105.481 54.6147 104.736 54.6147C103.67 54.6147 102.805 54.3174 102.142 53.7226C101.486 53.1279 101.158 52.3759 101.158 51.4668C101.158 50.3867 101.605 49.5322 102.501 48.9033C103.403 48.2744 104.658 47.9599 106.264 47.9599H108.489V46.6987C108.489 45.9057 108.243 45.2837 107.751 44.8325C107.266 44.3745 106.555 44.1455 105.618 44.1455C104.764 44.1455 104.056 44.3642 103.496 44.8017C102.935 45.2392 102.655 45.7656 102.655 46.3808L101.424 46.3706C101.424 45.4887 101.835 44.7265 102.655 44.084C103.475 43.4345 104.483 43.1098 105.68 43.1098C106.917 43.1098 107.891 43.4209 108.602 44.0429C109.32 44.6582 109.689 45.5195 109.71 46.6269V51.8769C109.71 52.9502 109.822 53.7534 110.048 54.2866V54.4096H108.735ZM104.88 53.5278C105.7 53.5278 106.432 53.3296 107.074 52.9331C107.724 52.5366 108.195 52.0068 108.489 51.3437V48.9033H106.295C105.071 48.917 104.114 49.1426 103.424 49.5801C102.733 50.0107 102.388 50.6054 102.388 51.3642C102.388 51.9863 102.617 52.5024 103.075 52.9126C103.54 53.3227 104.142 53.5278 104.88 53.5278ZM121.912 48.9751C121.912 50.7046 121.529 52.0786 120.763 53.0971C119.998 54.1089 118.972 54.6147 117.687 54.6147C116.169 54.6147 115.007 54.0815 114.201 53.0151V58.6753H112.98V43.3149H114.119L114.18 44.8838C114.98 43.7011 116.139 43.1098 117.656 43.1098C118.982 43.1098 120.022 43.6123 120.773 44.6172C121.532 45.622 121.912 47.0166 121.912 48.8008V48.9751ZM120.681 48.7597C120.681 47.3447 120.391 46.227 119.81 45.4067C119.229 44.5864 118.418 44.1762 117.379 44.1762C116.627 44.1762 115.981 44.3574 115.441 44.7197C114.901 45.082 114.488 45.6084 114.201 46.2988V51.6206C114.495 52.2563 114.915 52.7417 115.462 53.0766C116.009 53.4116 116.655 53.5791 117.4 53.5791C118.432 53.5791 119.235 53.1689 119.81 52.3486C120.391 51.5215 120.681 50.3252 120.681 48.7597ZM128.936 54.6147C127.992 54.6147 127.138 54.3823 126.372 53.9175C125.613 53.4526 125.022 52.8066 124.598 51.9795C124.174 51.1455 123.962 50.2124 123.962 49.1801V48.7392C123.962 47.6728 124.168 46.7124 124.578 45.8579C124.995 45.0034 125.572 44.3335 126.311 43.8481C127.049 43.3559 127.849 43.1098 128.71 43.1098C130.057 43.1098 131.123 43.5713 131.909 44.4941C132.702 45.4101 133.099 46.6645 133.099 48.2573V48.9443H125.183V49.1801C125.183 50.438 125.542 51.4873 126.259 52.3281C126.984 53.1621 127.893 53.5791 128.987 53.5791C129.643 53.5791 130.221 53.4594 130.72 53.2202C131.226 52.9809 131.684 52.5981 132.094 52.0718L132.863 52.6562C131.96 53.9619 130.651 54.6147 128.936 54.6147ZM128.71 44.1557C127.787 44.1557 127.008 44.4941 126.372 45.1709C125.743 45.8476 125.36 46.7568 125.224 47.8984H131.878V47.7651C131.844 46.6987 131.54 45.8305 130.966 45.1606C130.392 44.4907 129.64 44.1557 128.71 44.1557ZM140.615 44.3608C140.355 44.313 140.078 44.289 139.784 44.289C139.019 44.289 138.369 44.5044 137.836 44.935C137.31 45.3589 136.934 45.9775 136.708 46.791V54.4096H135.488V43.3149H136.688L136.708 45.0786C137.357 43.7661 138.4 43.1098 139.835 43.1098C140.177 43.1098 140.447 43.1543 140.646 43.2431L140.615 44.3608Z" fill="#898989"/>
</g>
<defs>
<clipPath id="clip0">
<rect width="162" height="204" fill="white"/>
</clipPath>
</defs>
</svg>
