<svg width="37" height="37" viewBox="0 0 37 37" fill="none" xmlns="http://www.w3.org/2000/svg">
<path fill-rule="evenodd" clip-rule="evenodd" d="M13.5667 0.616667C13.5667 0.27565 13.8429 0 14.1833 0C14.5237 0 14.8 0.27565 14.8 0.616667V1.85C14.8 2.19102 14.5237 2.46667 14.1833 2.46667C13.8429 2.46667 13.5667 2.19102 13.5667 1.85V0.616667ZM24.6667 8.63334C24.6667 8.68144 24.6494 8.76222 24.6389 8.80724C26.0085 10.2718 26.8595 12.2661 26.8731 14.4245C26.9027 18.981 23.2193 22.8167 18.6628 22.8167H18.6091C14.0773 22.8167 10.376 19.0692 10.347 14.5311C10.3298 11.8554 11.5983 9.39616 13.5667 7.87237V4.31667C13.5667 3.97566 13.8429 3.70001 14.1833 3.70001C14.5237 3.70001 14.8 3.97566 14.8 4.31667V7.07872C15.9266 6.49042 17.2013 6.16667 18.5573 6.16667H18.611C20.4104 6.16667 22.0736 6.72476 23.4333 7.70649V4.93334C23.4333 4.59232 23.709 4.31667 24.05 4.31667C24.391 4.31667 24.6667 4.59232 24.6667 4.93334V8.63334ZM18.6091 21.5833H18.6548C22.5311 21.5833 25.6644 18.3224 25.6391 14.4467C25.6145 10.5857 22.4658 7.4 18.6104 7.4H18.5647C14.689 7.4 11.5551 10.6609 11.5804 14.5367C11.605 18.3976 14.7537 21.5833 18.6091 21.5833ZM24.05 0.616667C23.709 0.616667 23.4333 0.892317 23.4333 1.23333V2.46667C23.4333 2.80768 23.709 3.08333 24.05 3.08333C24.391 3.08333 24.6667 2.80768 24.6667 2.46667V1.23333C24.6667 0.892317 24.391 0.616667 24.05 0.616667ZM6.78333 14.8C6.78333 14.459 7.0596 14.1833 7.4 14.1833C7.7404 14.1833 8.01667 14.459 8.01667 14.8V19.7333C8.01667 20.0743 7.7404 20.35 7.4 20.35C7.0596 20.35 6.78333 20.0743 6.78333 19.7333V14.8ZM7.4 10.4833C7.0596 10.4833 6.78333 10.759 6.78333 11.1V12.3333C6.78333 12.6743 7.0596 12.95 7.4 12.95C7.7404 12.95 8.01667 12.6743 8.01667 12.3333V11.1C8.01667 10.759 7.7404 10.4833 7.4 10.4833ZM30.2167 9.24999C30.2167 8.90897 30.4923 8.63332 30.8333 8.63332C31.1743 8.63332 31.45 8.90897 31.45 9.24999V14.1833C31.45 14.5243 31.1743 14.8 30.8333 14.8C30.4923 14.8 30.2167 14.5243 30.2167 14.1833V9.24999ZM30.8333 4.93333C30.4923 4.93333 30.2167 5.20898 30.2167 5.55V6.78333C30.2167 7.12435 30.4923 7.4 30.8333 7.4C31.1743 7.4 31.45 7.12435 31.45 6.78333V5.55C31.45 5.20898 31.1743 4.93333 30.8333 4.93333ZM20.9543 15.3895L20.9587 16.0056C20.9648 17.0261 20.1403 17.8605 19.1204 17.8673L19.1241 18.4957C19.1265 18.8367 18.8515 19.1142 18.5111 19.1166H18.5074C18.1688 19.1166 17.8926 18.8435 17.8907 18.5043L17.887 17.8753L16.6537 17.8833H16.65C16.3114 17.8833 16.0352 17.6101 16.0333 17.271C16.0315 16.9306 16.3059 16.6531 16.6463 16.6506L19.113 16.6352C19.4534 16.6333 19.7284 16.3558 19.7259 16.0154L19.7216 15.4012C19.7204 15.236 19.655 15.0855 19.5385 14.9696C19.4213 14.8555 19.2678 14.8 19.105 14.8H19.1013H17.8679H17.8562C16.8412 14.8 16.0124 13.9761 16.0056 12.9599L16.0019 12.3413C15.9957 11.3208 16.8202 10.4833 17.8402 10.4833H17.887L17.8833 9.87467C17.8815 9.53427 18.1559 9.25246 18.4963 9.24999H18.5C18.8386 9.24999 19.1148 9.52934 19.1167 9.86851L19.1204 10.479L20.3062 10.4833H20.3099C20.6491 10.4833 20.9241 10.7448 20.9266 11.0846C20.9291 11.425 20.6546 11.6908 20.3136 11.6932L18.5709 11.7043C18.5617 11.7052 18.5531 11.7077 18.5444 11.7103C18.5338 11.7135 18.5232 11.7167 18.5117 11.7167H18.508C18.4967 11.7167 18.4864 11.7139 18.4762 11.7113C18.4676 11.709 18.4591 11.7067 18.4501 11.7062L17.8482 11.7105C17.5078 11.7123 17.2334 11.9917 17.2352 12.3321L17.2389 12.95C17.2408 13.2885 17.5176 13.5667 17.8556 13.5667H17.8593L19.0926 13.5549C19.5675 13.5383 20.0522 13.7381 20.4043 14.0847C20.7564 14.4318 20.9513 14.895 20.9543 15.3895ZM14.1833 15.4167C14.5239 15.4167 14.8 15.1406 14.8 14.8C14.8 14.4594 14.5239 14.1833 14.1833 14.1833C13.8428 14.1833 13.5667 14.4594 13.5667 14.8C13.5667 15.1406 13.8428 15.4167 14.1833 15.4167ZM23.4333 14.8C23.4333 15.1406 23.1572 15.4167 22.8167 15.4167C22.4761 15.4167 22.2 15.1406 22.2 14.8C22.2 14.4594 22.4761 14.1833 22.8167 14.1833C23.1572 14.1833 23.4333 14.4594 23.4333 14.8ZM36.3833 24.05H29.6C28.7971 24.05 28.1188 24.5674 27.8635 25.2833H24.7764C24.4428 25.2833 24.1746 25.5491 24.1635 25.8803L19.0186 24.7129C18.6474 24.629 18.262 24.658 17.9074 24.7992L13.0789 26.7146C12.4554 26.9619 11.9985 27.4639 11.8104 28.0707L2.38095 25.3049C1.80622 25.1378 1.20312 25.2445 0.72705 25.6009C0.265167 25.9475 0 26.4729 0 27.0433V28.3808C0 28.9926 0.3108 29.5587 0.83065 29.8948L7.6812 34.328C7.74163 34.3668 7.80885 34.3952 7.87915 34.4112L18.0788 36.7404C18.2169 36.7724 18.3588 36.7879 18.5 36.7879C18.6418 36.7879 18.783 36.7724 18.9212 36.7404L24.2893 35.5089C24.4009 35.6612 24.5729 35.7667 24.777 35.7667H27.8641C28.1194 36.4826 28.7977 37 29.6006 37H36.3839C36.725 37 37.0006 36.7243 37.0006 36.3833V24.6667C37 24.3256 36.7243 24.05 36.3833 24.05ZM24.0111 34.3076L18.6449 35.5385C18.5506 35.5607 18.45 35.5607 18.3545 35.5385L8.26025 33.2334L1.50035 28.8588C1.33323 28.7502 1.23333 28.572 1.23333 28.3802V27.0427C1.23333 26.7985 1.37887 26.6536 1.46582 26.5888C1.62862 26.4673 1.83458 26.4291 2.03315 26.4889L11.824 29.3644C12.1113 30.2142 12.9333 30.8333 13.8997 30.8333H18.5C18.8404 30.8333 19.1167 30.5577 19.1167 30.2167C19.1167 29.8756 18.8404 29.6 18.5 29.6H13.8997C13.3761 29.6 12.95 29.1948 12.95 28.6997C12.95 28.3334 13.1794 28.0047 13.5346 27.8635L18.3631 25.9469C18.4852 25.8981 18.6184 25.8877 18.7467 25.9166L24.0475 27.1191L24.0111 34.3076ZM27.75 34.5333H25.2833V26.5167H27.75V34.5333ZM35.7667 35.7667H29.6C29.2596 35.7667 28.9833 35.4904 28.9833 35.15V25.9C28.9833 25.5596 29.2596 25.2833 29.6 25.2833H35.7667V35.7667ZM31.5604 33.3H33.4104C33.7514 33.3 34.0271 33.5756 34.0271 33.9167C34.0271 34.2577 33.7514 34.5333 33.4104 34.5333H31.5604C31.2194 34.5333 30.9437 34.2577 30.9437 33.9167C30.9437 33.5756 31.2194 33.3 31.5604 33.3Z" fill="#0057FF"/>
</svg>
