<svg width="34" height="37" viewBox="0 0 34 37" fill="none" xmlns="http://www.w3.org/2000/svg">
<path fill-rule="evenodd" clip-rule="evenodd" d="M20.81 5.87606C20.81 8.15937 18.9525 10.017 16.6691 10.017C14.3857 10.017 12.5281 8.15944 12.5281 5.8757V4.47324V4.14053C12.5281 4.06321 12.531 3.98617 12.5353 3.90928L12.5358 3.89978L12.5375 3.87033C12.5426 3.79192 12.5497 3.71373 12.5592 3.6359L12.5597 3.63207C12.5905 3.38138 12.6435 3.1343 12.7195 2.89344C12.7219 2.88579 12.7247 2.87849 12.7276 2.87116L12.7307 2.86324C12.805 2.63336 12.8985 2.40984 13.0121 2.19659C13.1529 1.93238 13.4811 1.83222 13.7453 1.973C14.0096 2.1137 14.1096 2.44193 13.9689 2.70613C13.7993 3.02468 13.6879 3.37394 13.6397 3.73317L13.6382 3.7443C13.6307 3.80204 13.6247 3.85992 13.6204 3.9181L13.6199 3.92735C13.6163 3.97866 13.6143 4.03004 13.6133 4.08149L13.6129 4.10295C13.9952 4.23115 14.3939 4.29597 14.8022 4.29597C15.862 4.29597 16.8779 3.84381 17.5895 3.05539C17.7023 2.9303 17.8675 2.86483 18.0347 2.8782C18.2026 2.89156 18.3547 2.98219 18.4464 3.12346C18.7565 3.60129 19.206 3.95524 19.7261 4.14321V4.1406C19.7261 4.08612 19.7245 4.03177 19.7216 3.97764C19.7213 3.97309 19.721 3.96856 19.7206 3.96403C19.7204 3.9618 19.7202 3.95956 19.7201 3.95732L19.72 3.95729L19.7188 3.94093C19.7159 3.8988 19.7129 3.85674 19.7084 3.8149L19.7071 3.80363L19.7057 3.79334L19.7037 3.77776C19.6987 3.73628 19.6933 3.6948 19.6867 3.65361L19.6859 3.64892L19.6829 3.63239L19.6802 3.61776C19.6731 3.5765 19.6654 3.53545 19.6566 3.49462C19.654 3.48263 19.6511 3.47085 19.6484 3.45892C19.6391 3.4186 19.6292 3.37835 19.6184 3.33845C19.6161 3.32994 19.6136 3.3215 19.6112 3.31307L19.608 3.30189C19.5968 3.26287 19.585 3.22413 19.5723 3.18569L19.5593 3.14717C19.5465 3.11017 19.533 3.07346 19.5189 3.03696L19.5025 2.99548C19.4884 2.96087 19.4736 2.92661 19.4584 2.89258L19.4547 2.88429L19.4546 2.88408C19.4491 2.87186 19.4437 2.85964 19.438 2.84755C19.423 2.81561 19.4072 2.78403 19.3912 2.7526L19.3821 2.73476C19.3769 2.72452 19.3717 2.71428 19.3663 2.70418C19.3507 2.67474 19.334 2.6458 19.3173 2.61686L19.3173 2.61674L19.3078 2.60006C19.3013 2.58854 19.2947 2.57702 19.2879 2.56572C19.2732 2.54134 19.2577 2.51741 19.2422 2.49348L19.2357 2.48355C19.2195 2.45862 19.2033 2.43376 19.1865 2.40934C19.1638 2.37646 19.1409 2.34379 19.1169 2.31178C19.1044 2.29504 19.0913 2.27874 19.0783 2.26243L19.0648 2.24544L19.0527 2.23012C19.0421 2.21669 19.0315 2.20327 19.0206 2.19008C19.0054 2.17178 18.9897 2.15391 18.9739 2.13605L18.966 2.12699L18.9595 2.11966C18.9456 2.10374 18.9316 2.08782 18.9173 2.07222C18.8992 2.05264 18.8806 2.03349 18.8621 2.01435L18.8621 2.01433C18.8438 1.99554 18.8254 1.97683 18.8066 1.9584C18.7888 1.94084 18.7706 1.92364 18.7523 1.90651C18.7311 1.88678 18.7096 1.86734 18.6879 1.84819L18.6772 1.83875L18.6771 1.83871C18.6574 1.82133 18.6377 1.80396 18.6174 1.7872L18.6071 1.77882L18.5991 1.77231C18.5697 1.74832 18.5398 1.72476 18.5095 1.70186C18.4978 1.69297 18.4858 1.68429 18.474 1.67562C18.4493 1.65756 18.4245 1.63985 18.3993 1.62251C18.3824 1.61087 18.3654 1.59945 18.3483 1.58818C18.3284 1.57503 18.3081 1.56209 18.2878 1.54938C18.2659 1.53572 18.244 1.52213 18.2218 1.50905C18.208 1.5009 18.1941 1.49299 18.1803 1.4851L18.1761 1.48275C18.1489 1.46735 18.1216 1.45203 18.094 1.43744L18.0673 1.42378C17.8391 1.3062 17.597 1.2176 17.3468 1.16051L17.3295 1.15654C17.2943 1.14873 17.259 1.1418 17.2235 1.13522L17.1859 1.1285C17.1547 1.12315 17.1235 1.11831 17.0921 1.1139C17.0735 1.11137 17.055 1.10906 17.0364 1.10682C17.0095 1.10357 16.9826 1.10039 16.9555 1.09786C16.9292 1.0954 16.9027 1.0936 16.8762 1.09179L16.8558 1.09035C16.8421 1.08935 16.8283 1.08835 16.8145 1.08767C16.7663 1.08543 16.7179 1.08398 16.6691 1.08398C16.1762 1.08398 15.7058 1.19751 15.2712 1.42146C15.0049 1.55862 14.6783 1.45398 14.5411 1.1879C14.404 0.92182 14.5086 0.594963 14.7746 0.457875C15.356 0.158334 16.0112 0 16.6691 0C16.7351 0 16.801 0.00187891 16.8669 0.00491406C16.8854 0.00580678 16.9037 0.00715774 16.922 0.00851009L16.922 0.00851112L16.9516 0.010623L16.9697 0.0118851C16.9996 0.0139596 17.0295 0.0160352 17.0592 0.0188613C17.0938 0.0220517 17.1281 0.0261986 17.1624 0.0303436L17.169 0.0311465L17.1841 0.032998C17.2048 0.0355335 17.2255 0.0380669 17.246 0.0409746C17.2882 0.0469004 17.3301 0.0536211 17.3719 0.0607754C17.3904 0.0639551 17.4088 0.067207 17.4272 0.0706758C17.474 0.0793477 17.5206 0.0887422 17.5668 0.0990039C17.5782 0.101518 17.5895 0.104174 17.6007 0.106831L17.6008 0.106837L17.6009 0.106881C17.6528 0.118877 17.7044 0.131523 17.7556 0.145471L17.7626 0.147422C18.0416 0.223951 18.3087 0.328953 18.5611 0.459176L18.58 0.468822C18.592 0.474916 18.6041 0.481013 18.616 0.487359C18.6425 0.501503 18.6687 0.516327 18.6948 0.531178L18.7049 0.536934L18.7107 0.540205L18.7107 0.540214C18.7374 0.555303 18.7641 0.570379 18.7904 0.586146C18.8081 0.596756 18.8256 0.607644 18.843 0.61855L18.856 0.626615C18.8916 0.648801 18.9271 0.67142 18.9621 0.694762C18.9775 0.705023 18.9928 0.71543 19.008 0.725908C19.0493 0.754236 19.0902 0.783287 19.1305 0.813133L19.1586 0.83409C19.2047 0.868777 19.2502 0.904549 19.2949 0.94126L19.3065 0.950727L19.3286 0.968675C19.3404 0.978153 19.3521 0.987627 19.3636 0.997482C19.3694 1.00247 19.3751 1.00753 19.3807 1.01273C19.3897 1.02053 19.3983 1.02864 19.407 1.03674C19.4137 1.04304 19.4205 1.04935 19.4274 1.05551C19.4462 1.07242 19.4649 1.08955 19.4835 1.10682C19.5171 1.13811 19.5505 1.16962 19.5831 1.20185C19.5928 1.21138 19.6022 1.22112 19.6117 1.23088L19.6247 1.2442C19.6602 1.2804 19.6955 1.31682 19.7295 1.35419L19.7396 1.3656L19.7496 1.37702C19.9095 1.55501 20.0527 1.7455 20.1784 1.94626L20.1926 1.96862C20.2006 1.98113 20.2086 1.99362 20.2162 2.00631C20.2337 2.03533 20.2504 2.06478 20.267 2.09429L20.267 2.09435L20.2672 2.09459L20.2744 2.10741L20.2777 2.11323C20.2928 2.13984 20.3079 2.16647 20.3224 2.19348C20.3376 2.22186 20.3521 2.25065 20.3665 2.27939L20.3682 2.28273C20.3857 2.31756 20.403 2.35239 20.4196 2.38773C20.4319 2.41403 20.4438 2.44048 20.4555 2.467C20.4733 2.50711 20.4905 2.54744 20.507 2.58819C20.5165 2.61161 20.5258 2.63509 20.5349 2.65865C20.5521 2.70346 20.5685 2.7487 20.5841 2.79422L20.5881 2.80567L20.5881 2.80578C20.5939 2.82279 20.5998 2.8398 20.6054 2.85695C20.6214 2.90573 20.6362 2.95501 20.6503 3.00459L20.6559 3.02389C20.6594 3.03626 20.663 3.04864 20.6664 3.0611C20.6804 3.11306 20.6931 3.16552 20.7052 3.21821L20.71 3.23872L20.71 3.23883C20.7125 3.24939 20.715 3.25993 20.7173 3.27053C20.7288 3.32451 20.7389 3.379 20.7484 3.4337L20.7524 3.45609C20.7542 3.46552 20.7559 3.47494 20.7574 3.48443C20.7663 3.53928 20.7734 3.59464 20.78 3.65021L20.7827 3.67096L20.7827 3.67109C20.7841 3.68127 20.7855 3.69144 20.7866 3.70166C20.7925 3.75788 20.7967 3.81469 20.8004 3.87156L20.802 3.89295C20.8028 3.90225 20.8036 3.91155 20.8041 3.92092C20.8079 3.99376 20.81 4.06711 20.81 4.14089V4.82026V5.87606ZM14.8021 5.38032C14.3967 5.38032 13.9989 5.32966 13.6121 5.23131V5.87613C13.6121 7.56173 14.9835 8.93312 16.6691 8.93312C18.3547 8.93312 19.7261 7.56173 19.7261 5.87613V5.2746C19.039 5.10622 18.4195 4.74243 17.937 4.2258C17.067 4.96552 15.9547 5.38032 14.8021 5.38032ZM12.249 17.8334C12.5483 17.8334 12.7909 17.5908 12.7909 17.2914V13.997C12.7909 12.5574 13.9621 11.3862 15.4017 11.3862H15.5683L14.7321 14.2285C14.6767 14.4165 14.7273 14.6198 14.8642 14.76L16.2813 16.2114C16.3833 16.3158 16.5231 16.3747 16.6691 16.3747C16.8151 16.3747 16.9549 16.3158 17.0569 16.2114L18.4739 14.76C18.6109 14.6198 18.6614 14.4165 18.6061 14.2285L17.7699 11.3862H17.9365C19.3761 11.3862 20.5472 12.5574 20.5472 13.997V17.2914C20.5472 17.5908 20.7898 17.8334 21.0892 17.8334C21.3886 17.8334 21.6312 17.5908 21.6312 17.2914V13.997C21.6312 11.9597 19.9737 10.3022 17.9365 10.3022H17.0455H16.2926H15.4017C13.3644 10.3022 11.707 11.9597 11.707 13.997V17.2914C11.707 17.5908 11.9496 17.8334 12.249 17.8334ZM16.6691 15.0569L15.8615 14.2298L16.6691 11.485L17.4766 14.2299L16.6691 15.0569ZM25.2518 19.0434C25.088 19.0434 24.9262 18.9694 24.8196 18.8288C24.2208 18.0389 23.5121 17.341 22.7135 16.7543C22.4723 16.5771 22.4203 16.2378 22.5976 15.9966C22.7748 15.7554 23.1139 15.7035 23.3552 15.8807C24.238 16.5292 25.0213 17.3007 25.6833 18.1739C25.8642 18.4124 25.8174 18.7524 25.5788 18.9332C25.4809 19.0074 25.3659 19.0434 25.2518 19.0434ZM16.6691 35.2184C18.3709 35.2184 20.0554 34.7919 21.5406 33.9851C21.8038 33.8422 22.1326 33.9395 22.2756 34.2027C22.4184 34.4656 22.3211 34.7947 22.0581 34.9376C20.4145 35.8304 18.551 36.3024 16.6691 36.3024C14.7735 36.3024 12.8983 35.824 11.2458 34.919C10.9833 34.7752 10.887 34.4458 11.0308 34.1832C11.1746 33.9206 11.504 33.8245 11.7665 33.9682C13.2598 34.7861 14.9551 35.2184 16.6691 35.2184ZM9.98278 15.8807C9.10714 16.524 8.32935 17.2884 7.67101 18.1527C7.48955 18.3908 7.53558 18.7309 7.7737 18.9123C7.87176 18.987 7.98724 19.0231 8.10171 19.0231C8.2651 19.0231 8.42662 18.9495 8.53328 18.8095C9.12882 18.0277 9.83254 17.3362 10.6246 16.7543C10.8658 16.577 10.9178 16.2379 10.7405 15.9966C10.5632 15.7555 10.2241 15.7035 9.98278 15.8807ZM18.9635 22.8977H21.4453C21.9794 22.8977 22.4141 23.3323 22.4141 23.8665V26.5176C22.4141 27.0518 21.9795 27.4865 21.4453 27.4865H18.9635V29.9682C18.9635 30.5024 18.5289 30.9371 17.9946 30.9371H15.3435C14.8093 30.9371 14.3746 30.5025 14.3746 29.9682V27.4865H11.8929C11.3587 27.4865 10.924 27.0518 10.924 26.5176V23.8665C10.924 23.3323 11.3586 22.8977 11.8929 22.8977H14.3746V22.7025C14.3746 22.4031 14.6172 22.1605 14.9166 22.1605C15.216 22.1605 15.4586 22.4031 15.4586 22.7025V23.0127C15.4586 23.547 15.024 23.9816 14.4898 23.9816H12.008V26.4025H14.4898C15.024 26.4025 15.4586 26.8371 15.4586 27.3714V29.8531H17.8795V27.3714C17.8795 26.8372 18.3141 26.4025 18.8484 26.4025H21.3301V23.9816H18.8484C18.3142 23.9816 17.8795 23.547 17.8795 23.0127V20.531H15.4586V20.5345C15.4586 20.8338 15.216 21.0765 14.9166 21.0765C14.6172 21.0765 14.3746 20.8338 14.3746 20.5345V20.416C14.3746 19.8817 14.8092 19.447 15.3435 19.447H17.9946C18.5288 19.447 18.9635 19.8817 18.9635 20.416V22.8977ZM6.22944 29.4688H5.33855H4.58569H3.69472C1.65748 29.4688 0 31.1263 0 33.1636V36.458C0 36.7573 0.242596 37 0.541992 37C0.841389 37 1.08398 36.7573 1.08398 36.458V33.1636C1.08398 31.724 2.25512 30.5528 3.69472 30.5528H3.8613L3.02511 33.3951C2.96976 33.5831 3.02034 33.7864 3.15729 33.9267L4.57434 35.3781C4.67631 35.4825 4.81614 35.5414 4.96212 35.5414C5.1081 35.5414 5.24793 35.4825 5.3499 35.3781L6.76695 33.9267C6.90397 33.7864 6.95448 33.5831 6.89913 33.3951L6.06294 30.5528H6.22944C7.66904 30.5528 8.84025 31.724 8.84025 33.1636V36.458C8.84025 36.7573 9.08285 37 9.38225 37C9.68164 37 9.92424 36.7573 9.92424 36.458V33.1636C9.92424 31.1263 8.26675 29.4688 6.22944 29.4688ZM4.96212 34.2236L4.15455 33.3965L4.96212 30.6516L5.76969 33.3965L4.96212 34.2236ZM9.10307 25.0426C9.10307 27.3259 7.24548 29.1836 4.96211 29.1836C2.67873 29.1836 0.821142 27.326 0.821503 25.0426V23.6401V23.3074C0.821503 23.2299 0.824394 23.1528 0.828658 23.0759L0.829336 23.0632L0.830826 23.0374C0.835956 22.9586 0.843038 22.8801 0.852577 22.802L0.852794 22.8005C0.883507 22.549 0.936622 22.3014 1.01279 22.0601C1.01547 22.0517 1.01862 22.0437 1.02178 22.0357L1.02457 22.0285C1.09879 21.7992 1.19208 21.5761 1.30539 21.3634C1.4461 21.0992 1.77447 20.9991 2.0386 21.1397C2.30288 21.2804 2.40289 21.6087 2.26226 21.8729C2.09244 22.1917 1.98108 22.5412 1.93288 22.9007L1.93158 22.9104C1.92399 22.9685 1.91799 23.0267 1.91373 23.0851L1.91322 23.0937C1.90961 23.1452 1.90766 23.1968 1.90664 23.2484L1.90621 23.2698C2.28857 23.3979 2.68718 23.4628 3.09549 23.4628C4.15533 23.4628 5.17124 23.0106 5.8827 22.2222C5.99558 22.0971 6.15998 22.0316 6.328 22.045C6.49587 22.0584 6.64799 22.149 6.7397 22.2903C7.04986 22.7681 7.49928 23.1221 8.01938 23.31V23.3074C8.01938 23.2529 8.01779 23.1986 8.0149 23.1444C8.01454 23.1376 8.01395 23.1309 8.01337 23.1241L8.01337 23.1241L8.01208 23.1077C8.00926 23.0656 8.00622 23.0235 8.00174 22.9817C8.00095 22.9745 7.99998 22.9673 7.99901 22.9602L7.99697 22.9446C7.99199 22.9031 7.98664 22.8616 7.97999 22.8204C7.97884 22.8133 7.97753 22.8062 7.97622 22.7992L7.97621 22.7991L7.97356 22.7846C7.96641 22.7434 7.95875 22.7022 7.94993 22.6614C7.94733 22.6494 7.94444 22.6376 7.94169 22.6257C7.93244 22.5854 7.92254 22.5451 7.9117 22.5053L7.90758 22.4905L7.90129 22.4688C7.89017 22.4298 7.87831 22.391 7.86567 22.3526C7.86148 22.3397 7.85707 22.3269 7.85266 22.3141C7.83987 22.2771 7.82635 22.2403 7.81219 22.2038C7.80677 22.19 7.80142 22.1762 7.79586 22.1625C7.78177 22.1279 7.76695 22.0935 7.75163 22.0594C7.74498 22.0444 7.73834 22.0295 7.7314 22.0146C7.71637 21.9826 7.70047 21.9508 7.68435 21.9192L7.67652 21.9038L7.67649 21.9037L7.66877 21.8885L7.65978 21.8713C7.64438 21.8424 7.6281 21.8141 7.6118 21.7858L7.61179 21.7858L7.61178 21.7858L7.61177 21.7857L7.61176 21.7857L7.61021 21.783L7.59954 21.7644L7.58813 21.7444L7.5813 21.7329C7.56611 21.7076 7.55006 21.6829 7.53401 21.6581L7.5279 21.6487L7.5156 21.6295C7.5083 21.618 7.50101 21.6066 7.49335 21.5954C7.46647 21.5558 7.43872 21.5168 7.41003 21.4784C7.39865 21.4632 7.38679 21.4484 7.37492 21.4336L7.37487 21.4335L7.36017 21.4151L7.35051 21.4027C7.33838 21.3872 7.32625 21.3717 7.31363 21.3566C7.3002 21.3405 7.28633 21.3247 7.27247 21.3089L7.2608 21.2956C7.24404 21.2765 7.22742 21.2573 7.21015 21.2386C7.19388 21.2209 7.17718 21.2037 7.1605 21.1864L7.15674 21.1826C7.13774 21.163 7.11859 21.1435 7.099 21.1243C7.08187 21.1076 7.06446 21.0911 7.04697 21.0748C7.02478 21.0541 7.00231 21.0337 6.97947 21.0136L6.9707 21.0059L6.97056 21.0058L6.97047 21.0057L6.97043 21.0056C6.95105 20.9886 6.93165 20.9714 6.91176 20.9549L6.89979 20.9452L6.88994 20.9373C6.86161 20.9142 6.83292 20.8916 6.80372 20.8695L6.78807 20.8578L6.77169 20.8458L6.76557 20.8413C6.74179 20.8239 6.7178 20.8069 6.69359 20.7901C6.67603 20.778 6.65833 20.7661 6.64055 20.7544C6.62118 20.7417 6.6016 20.7292 6.58194 20.7168C6.55954 20.7028 6.53706 20.6889 6.51437 20.6756C6.5011 20.6677 6.48771 20.6601 6.47437 20.6525L6.47015 20.6501C6.44247 20.6344 6.41479 20.6188 6.38668 20.604L6.37276 20.5969L6.3616 20.5912C6.13288 20.4733 5.89036 20.3845 5.63974 20.3273L5.62276 20.3234C5.58749 20.3156 5.55208 20.3086 5.51653 20.302L5.47909 20.2953C5.44788 20.2899 5.41659 20.285 5.38522 20.2806C5.36672 20.2781 5.34815 20.2758 5.32958 20.2735C5.30269 20.2702 5.27574 20.2671 5.24864 20.2645C5.22241 20.2621 5.19596 20.2603 5.16951 20.2585L5.14901 20.2571C5.13524 20.2561 5.12146 20.2551 5.10765 20.2544C5.05945 20.2522 5.01103 20.2507 4.96225 20.2507C4.46925 20.2507 3.99895 20.3642 3.56434 20.5882C3.29826 20.7253 2.97141 20.6209 2.83425 20.3547C2.69709 20.0885 2.80165 19.7617 3.06774 19.6246C3.64911 19.3251 4.3042 19.1667 4.96218 19.1667C5.02823 19.1667 5.09406 19.1685 5.15983 19.1717C5.17825 19.1726 5.19655 19.174 5.21487 19.1753L5.24445 19.1774L5.2625 19.1787C5.29241 19.1808 5.32234 19.1828 5.35212 19.1857C5.38667 19.1888 5.42096 19.193 5.45523 19.1971L5.4619 19.1979L5.47688 19.1998C5.4976 19.2023 5.51831 19.2049 5.53893 19.2078C5.58106 19.2137 5.62298 19.2204 5.66475 19.2276C5.68325 19.2307 5.70167 19.234 5.7201 19.2375C5.76693 19.2461 5.81347 19.2555 5.85972 19.2658C5.87114 19.2683 5.88248 19.271 5.89383 19.2737C5.94571 19.2857 5.99731 19.2983 6.04848 19.3123L6.05549 19.3142C6.33494 19.3908 6.60239 19.496 6.85503 19.6265L6.87627 19.6373C6.88711 19.6428 6.89795 19.6483 6.90865 19.654C6.93789 19.6696 6.96659 19.6859 6.99533 19.7023L6.99862 19.7042C7.02688 19.7201 7.05514 19.7361 7.08303 19.7527C7.10214 19.7641 7.121 19.7759 7.13985 19.7877L7.13989 19.7877L7.13996 19.7878L7.14006 19.7878L7.14019 19.7879L7.14959 19.7938C7.18493 19.8157 7.21997 19.8381 7.25466 19.8612C7.27023 19.8716 7.28573 19.8822 7.30123 19.8928L7.30156 19.8931C7.34239 19.9211 7.38286 19.9498 7.42275 19.9793L7.45216 20.0013C7.49776 20.0356 7.54264 20.071 7.58687 20.1073L7.60009 20.1181L7.62328 20.137L7.62333 20.137C7.63448 20.146 7.64563 20.155 7.65653 20.1644C7.66238 20.1693 7.66809 20.1745 7.67366 20.1797C7.68248 20.1873 7.69099 20.1953 7.69949 20.2032L7.69956 20.2033C7.70615 20.2094 7.71274 20.2156 7.71947 20.2216C7.73899 20.239 7.75821 20.2568 7.77743 20.2746C7.8106 20.3054 7.84348 20.3364 7.87549 20.3681C7.88559 20.3781 7.89549 20.3883 7.90536 20.3985L7.91878 20.4122C7.95383 20.4479 7.98859 20.4838 8.02219 20.5206L8.03371 20.5337L8.04416 20.5456C8.20336 20.723 8.34594 20.9127 8.47125 21.1128L8.48417 21.1331L8.49769 21.1543L8.50926 21.1731C8.52681 21.2022 8.54347 21.2317 8.56016 21.2613L8.56744 21.2742L8.57198 21.2822L8.57203 21.2823C8.5867 21.3081 8.60135 21.334 8.61535 21.3602C8.63118 21.3898 8.64621 21.4197 8.66124 21.4496C8.67873 21.4843 8.696 21.5191 8.71255 21.5544C8.72491 21.5807 8.73676 21.6072 8.74854 21.6338C8.76631 21.6738 8.78344 21.7141 8.79999 21.7548C8.80953 21.7782 8.81885 21.8017 8.82788 21.8254C8.84508 21.87 8.86141 21.9151 8.8771 21.9606L8.88011 21.9694L8.88013 21.9694C8.88635 21.9875 8.89258 22.0056 8.89849 22.0237C8.91439 22.0725 8.92913 22.1215 8.94329 22.1709L8.94841 22.1887L8.95567 22.2141L8.95948 22.2279C8.9735 22.2796 8.98615 22.3319 8.99814 22.3844L9.00262 22.4035C9.00529 22.4147 9.00795 22.4259 9.01035 22.4372C9.02192 22.4911 9.03196 22.5455 9.04143 22.6001L9.04519 22.6208C9.04705 22.6309 9.04891 22.6409 9.05054 22.651C9.05928 22.7059 9.06643 22.7611 9.07301 22.8166L9.07602 22.84L9.07603 22.8401L9.07822 22.8567L9.07959 22.8682C9.08558 22.9245 9.0897 22.9812 9.09339 23.0381L9.09437 23.0511L9.09507 23.0595C9.09586 23.0688 9.09665 23.0781 9.09715 23.0875C9.10098 23.1603 9.10307 23.2337 9.10307 23.3075V23.9868V25.0426ZM3.09512 24.5469C2.68971 24.5469 2.29196 24.4962 1.90513 24.3979V25.0427C1.90513 26.7283 3.27651 28.0997 4.96211 28.0997C6.6477 28.0997 8.01909 26.7283 8.01909 25.0427V24.4412C7.33199 24.2728 6.71252 23.909 6.23001 23.3924C5.36 24.1322 4.24776 24.5469 3.09512 24.5469ZM29.6434 29.4688H28.7525H27.9996H27.1087C25.0714 29.4688 23.4139 31.1263 23.4139 33.1636V36.458C23.4139 36.7573 23.6565 37 23.9559 37C24.2553 37 24.4979 36.7573 24.4979 36.458V33.1636C24.4979 31.724 25.6691 30.5528 27.1087 30.5528H27.2752L26.439 33.3951C26.3837 33.5831 26.4343 33.7864 26.5712 33.9267L27.9883 35.3781C28.0902 35.4825 28.2301 35.5414 28.376 35.5414C28.522 35.5414 28.6618 35.4825 28.7638 35.3781L30.1809 33.9267C30.3179 33.7864 30.3684 33.5831 30.313 33.3951L29.4769 30.5528H29.6434C31.083 30.5528 32.2542 31.724 32.2542 33.1636V36.458C32.2542 36.7573 32.4968 37 32.7962 37C33.0956 37 33.3382 36.7573 33.3382 36.458V33.1636C33.3382 31.1263 31.6807 29.4688 29.6434 29.4688ZM28.376 34.2236L27.5685 33.3965L28.376 30.6516L29.1836 33.3965L28.376 34.2236ZM28.376 20.2506C27.883 20.2506 27.4128 20.3642 26.9781 20.5881C26.7118 20.7253 26.3851 20.6206 26.2477 20.3547C26.1106 20.0886 26.2152 19.7618 26.4812 19.6247C27.0627 19.3251 27.7178 19.1668 28.3757 19.1668C28.4417 19.1668 28.5076 19.1686 28.5733 19.1718C28.5917 19.1727 28.61 19.174 28.6283 19.1754C28.6382 19.1761 28.6481 19.1768 28.6579 19.1775C28.664 19.1779 28.67 19.1783 28.676 19.1787C28.7059 19.1808 28.7358 19.1829 28.7656 19.1857C28.8002 19.1889 28.8345 19.1931 28.8687 19.1972L28.8754 19.198C28.9011 19.2012 28.9268 19.2042 28.9524 19.2078C28.9946 19.2138 29.0365 19.2205 29.0782 19.2276C29.0967 19.2308 29.1152 19.2341 29.1336 19.2375C29.1804 19.2462 29.227 19.2556 29.2732 19.2659C29.2846 19.2684 29.296 19.2711 29.3073 19.2737C29.3592 19.2857 29.4108 19.2984 29.462 19.3123L29.469 19.3143C29.7484 19.3909 30.0159 19.4961 30.2685 19.6265C30.2756 19.6302 30.2827 19.6338 30.2897 19.6374C30.3006 19.6429 30.3114 19.6484 30.3221 19.6541C30.3525 19.6703 30.3823 19.6873 30.4121 19.7042C30.4404 19.7201 30.4686 19.7362 30.4965 19.7528C30.5158 19.7643 30.5348 19.7762 30.5538 19.788L30.5631 19.7938C30.5984 19.8158 30.6335 19.8382 30.6682 19.8613C30.6837 19.8716 30.6991 19.8822 30.7145 19.8928L30.7151 19.8931C30.7559 19.9212 30.7964 19.9499 30.8362 19.9794L30.8657 20.0014C30.9113 20.0357 30.9561 20.0711 31.0004 20.1073L31.0136 20.1182C31.0213 20.1245 31.029 20.1308 31.0368 20.1371C31.048 20.1461 31.0591 20.1551 31.07 20.1644C31.073 20.1669 31.0759 20.1695 31.0787 20.172C31.0812 20.1743 31.0837 20.1765 31.0861 20.1788C31.0954 20.1869 31.1044 20.1952 31.1133 20.2035C31.1199 20.2097 31.1266 20.2159 31.1333 20.2219C31.1523 20.2389 31.1711 20.2561 31.1897 20.2735C31.2234 20.3048 31.2568 20.3363 31.2894 20.3686C31.299 20.3781 31.3085 20.3878 31.3179 20.3975C31.3222 20.4019 31.3265 20.4064 31.3308 20.4108C31.3665 20.4471 31.4019 20.4836 31.4361 20.5211C31.4396 20.525 31.443 20.529 31.4465 20.533C31.4496 20.5365 31.4527 20.5401 31.4559 20.5436C31.617 20.723 31.7612 20.915 31.8876 21.1174C31.8991 21.1356 31.9109 21.1536 31.9221 21.172C31.9405 21.2026 31.9581 21.2338 31.9757 21.2649L31.9823 21.2767C31.9978 21.3041 32.0135 21.3313 32.0283 21.3591C32.0446 21.3895 32.0601 21.4203 32.0755 21.451C32.0926 21.4849 32.1094 21.5188 32.1255 21.5531C32.1383 21.5802 32.1505 21.6076 32.1626 21.635C32.18 21.6742 32.1969 21.7137 32.2131 21.7535C32.2229 21.7777 32.2325 21.8019 32.2418 21.8262C32.2587 21.8703 32.2748 21.9147 32.2902 21.9594C32.2977 21.981 32.3052 22.0026 32.3123 22.0244C32.328 22.0724 32.3426 22.1209 32.3565 22.1696C32.3621 22.1892 32.368 22.2087 32.3733 22.2285C32.3871 22.2797 32.3996 22.3314 32.4115 22.3833C32.4137 22.3928 32.4159 22.4022 32.4182 22.4116C32.4202 22.4203 32.4222 22.4289 32.4241 22.4377C32.4356 22.4911 32.4455 22.545 32.4549 22.5991C32.458 22.6165 32.4614 22.6338 32.4642 22.6513C32.473 22.7059 32.4801 22.761 32.4866 22.8163C32.4875 22.8236 32.4885 22.831 32.4895 22.8383C32.4909 22.8483 32.4922 22.8583 32.4933 22.8684C32.4993 22.9245 32.5034 22.9812 32.5071 23.038C32.5081 23.0545 32.51 23.071 32.5109 23.0876C32.5147 23.1605 32.5168 23.2338 32.5168 23.3076V23.987V25.0428C32.5168 27.3261 30.6592 29.1838 28.3758 29.1838C26.0924 29.1838 24.2349 27.3261 24.2349 25.0428V23.6403V23.3076C24.2349 23.2303 24.2377 23.1533 24.242 23.0764L24.2426 23.0664C24.2431 23.0568 24.2436 23.0471 24.2443 23.0375C24.2494 22.959 24.2565 22.8807 24.2659 22.8029L24.2664 22.7994C24.2971 22.5485 24.3503 22.3014 24.4262 22.0605C24.4287 22.0525 24.4317 22.0448 24.4347 22.0371C24.4357 22.0346 24.4367 22.0322 24.4376 22.0297C24.5119 21.7999 24.6054 21.5766 24.7188 21.3636C24.8595 21.0994 25.1878 20.9993 25.452 21.1399C25.7163 21.2806 25.8163 21.6089 25.6757 21.8731C25.506 22.1918 25.3946 22.5411 25.3464 22.9004L25.345 22.9112C25.3375 22.969 25.3315 23.027 25.3272 23.0852L25.3267 23.0942C25.3231 23.1455 25.3212 23.197 25.3201 23.2485L25.3197 23.27C25.7021 23.3981 26.1007 23.4629 26.509 23.4629C27.5688 23.4629 28.5847 23.0107 29.2963 22.2223C29.4091 22.0972 29.5744 22.0318 29.7416 22.0451C29.9094 22.0585 30.0616 22.1491 30.1533 22.2904C30.4634 22.7682 30.9128 23.1223 31.4329 23.3101V23.3075C31.4329 23.2531 31.4313 23.1987 31.4284 23.1446C31.428 23.1377 31.4275 23.131 31.4269 23.1242C31.4264 23.1187 31.4259 23.1132 31.4256 23.1077C31.4228 23.0657 31.4198 23.0238 31.4153 22.982C31.4145 22.9744 31.4135 22.9669 31.4125 22.9594C31.4118 22.9544 31.4111 22.9494 31.4105 22.9443C31.4056 22.9029 31.4003 22.8616 31.3936 22.8205C31.3922 22.8119 31.3906 22.8034 31.389 22.7948C31.3884 22.7915 31.3878 22.7881 31.3872 22.7847C31.38 22.7434 31.3724 22.7024 31.3636 22.6616C31.3623 22.6555 31.3609 22.6495 31.3595 22.6436C31.3581 22.6377 31.3567 22.6318 31.3553 22.6259C31.3461 22.5855 31.3363 22.5453 31.3253 22.5054C31.322 22.4932 31.3184 22.481 31.3149 22.4688C31.3038 22.4299 31.292 22.3911 31.2794 22.3528C31.2771 22.3457 31.2747 22.3387 31.2724 22.3317C31.2703 22.3258 31.2683 22.3198 31.2662 22.3139C31.2536 22.277 31.2401 22.2405 31.2261 22.2041C31.2206 22.19 31.2151 22.1761 31.2095 22.1621C31.1956 22.1277 31.1808 22.0936 31.1656 22.0597C31.1588 22.0446 31.1521 22.0293 31.145 22.0143C31.1302 21.9825 31.1145 21.9511 31.0985 21.9199C31.0942 21.9115 31.09 21.9032 31.0858 21.8948C31.0817 21.8868 31.0776 21.8788 31.0734 21.8708C31.0578 21.8417 31.0413 21.813 31.0248 21.7844C31.0211 21.7781 31.0175 21.7717 31.0139 21.7654C31.0076 21.7543 31.0014 21.7432 30.9948 21.7324C30.9808 21.7092 30.9661 21.6864 30.9513 21.6637L30.9439 21.6522C30.9233 21.6204 30.9022 21.5888 30.8803 21.5577L30.8727 21.5467C30.8568 21.524 30.8409 21.5012 30.8243 21.4789C30.8113 21.4616 30.7978 21.4447 30.7843 21.4279C30.7797 21.4221 30.775 21.4162 30.7703 21.4104C30.7659 21.4047 30.7614 21.399 30.7569 21.3934C30.7474 21.3812 30.7378 21.3691 30.728 21.3572C30.7117 21.3376 30.6948 21.3185 30.6779 21.2993L30.6722 21.2929L30.6656 21.2853C30.6521 21.27 30.6386 21.2546 30.6248 21.2395C30.6075 21.2207 30.5897 21.2024 30.572 21.1841L30.5684 21.1804C30.5506 21.162 30.5327 21.1437 30.5143 21.1257C30.496 21.1078 30.4775 21.0902 30.4588 21.0728C30.4381 21.0534 30.417 21.0344 30.3956 21.0156L30.3892 21.0099C30.3682 20.9914 30.3473 20.9729 30.3258 20.9551C30.3185 20.9489 30.3109 20.943 30.3035 20.937C30.2753 20.914 30.2467 20.8916 30.2177 20.8696C30.2051 20.8601 30.1924 20.8507 30.1796 20.8414C30.1558 20.824 30.1318 20.8069 30.1075 20.7902C30.09 20.7781 30.0724 20.7663 30.0546 20.7546C30.0353 20.7418 30.0157 20.7293 29.9959 20.717C29.9736 20.7029 29.9511 20.6891 29.9284 20.6757C29.9139 20.667 29.8992 20.6587 29.8844 20.6503C29.8568 20.6347 29.829 20.619 29.8009 20.6042C29.7927 20.5999 29.7843 20.5958 29.776 20.5915C29.5473 20.4735 29.3048 20.3846 29.0541 20.3274L29.0366 20.3233C29.0014 20.3155 28.966 20.3085 28.9305 20.3019L28.893 20.2952C28.8618 20.2898 28.8305 20.285 28.7991 20.2806C28.7807 20.278 28.7621 20.2757 28.7435 20.2735C28.7166 20.2701 28.6896 20.267 28.6625 20.2644C28.6363 20.2621 28.6099 20.2602 28.5834 20.2584C28.5702 20.2576 28.557 20.2565 28.5438 20.2556C28.5363 20.2551 28.5289 20.2547 28.5214 20.2543C28.4732 20.2521 28.4248 20.2506 28.376 20.2506ZM25.3191 25.0426C25.3191 26.7282 26.6904 28.0996 28.376 28.0996C30.0616 28.0996 31.433 26.7283 31.433 25.0426V24.4411C30.7459 24.2727 30.1265 23.9089 29.644 23.3923C28.7739 24.1321 27.6617 24.5468 26.5091 24.5468C26.1036 24.5468 25.7059 24.4962 25.3191 24.3978V25.0426Z" fill="#0057FF"/>
</svg>
