<svg width="37" height="37" viewBox="0 0 37 37" fill="none" xmlns="http://www.w3.org/2000/svg">
<path fill-rule="evenodd" clip-rule="evenodd" d="M6.78333 0H0.616667C0.276112 0 0 0.276112 0 0.616667V5.55C0 5.89055 0.276112 6.16667 0.616667 6.16667H3.08333V7.4H0.616667V8.63333H6.78333V7.4H4.31667V6.16667H6.78333C7.12389 6.16667 7.4 5.89055 7.4 5.55V0.616667C7.4 0.276112 7.12389 0 6.78333 0ZM6.16667 4.93333H1.23333V1.23333H6.16667V4.93333ZM18.5 9.86667C13.7319 9.86667 9.86667 13.7319 9.86667 18.5C9.86667 23.2681 13.7319 27.1333 18.5 27.1333C23.2659 27.1282 27.1282 23.2659 27.1333 18.5C27.1333 13.7319 23.2681 9.86667 18.5 9.86667ZM24.917 14.8302C25.4552 15.7654 25.7801 16.8079 25.8686 17.8833H22.8019C22.7744 16.9836 22.6734 16.0878 22.4997 15.2045C23.363 15.1102 24.177 14.9844 24.917 14.8302ZM24.1437 13.7252C23.5357 13.8349 22.8833 13.9268 22.1963 13.9983C21.9531 13.1437 21.5853 12.3296 21.1048 11.5822C22.2832 12.0269 23.3291 12.7645 24.1437 13.7252ZM15.4309 17.8833C15.4588 17.0214 15.5603 16.1634 15.7343 15.3186C16.6266 15.3834 17.5559 15.4167 18.5 15.4167C19.4441 15.4167 20.3734 15.3834 21.2658 15.3186C21.4397 16.1634 21.5412 17.0214 21.5692 17.8833H15.4309ZM21.5692 19.1167C21.5411 19.9786 21.4397 20.8366 21.2658 21.6814C20.3734 21.6166 19.4441 21.5833 18.5 21.5833C17.5559 21.5833 16.6266 21.6166 15.7343 21.6814C15.5603 20.8366 15.4588 19.9786 15.4309 19.1167H21.5692ZM18.5 11.1C19.3892 11.1 20.3377 12.2334 20.9451 14.1032C20.1539 14.1544 19.335 14.1833 18.5 14.1833C17.665 14.1833 16.8461 14.1544 16.0549 14.1032C16.6623 12.2334 17.6108 11.1 18.5 11.1ZM15.8952 11.5822C15.4147 12.3296 15.0469 13.1437 14.8037 13.9983C14.1167 13.9268 13.4643 13.8349 12.8563 13.7252C13.6709 12.7645 14.7167 12.0269 15.8952 11.5822ZM12.083 14.8302C12.823 14.9844 13.6357 15.1102 14.5003 15.2045C14.3266 16.0878 14.2256 16.9836 14.1981 17.8833H11.1315C11.2199 16.8079 11.5448 15.7654 12.083 14.8302ZM12.083 22.1698C11.5448 21.2346 11.2199 20.1921 11.1315 19.1167H14.1981C14.2256 20.0164 14.3266 20.9122 14.5003 21.7955C13.637 21.8898 12.823 22.0156 12.083 22.1698ZM12.8563 23.2749C13.4643 23.1651 14.1167 23.0732 14.8037 23.0017C15.0469 23.8563 15.4147 24.6704 15.8952 25.4178C14.7167 24.973 13.6709 24.2355 12.8563 23.2749ZM18.5 25.9C17.6108 25.9 16.6623 24.7666 16.0549 22.8968C16.8461 22.8457 17.665 22.8167 18.5 22.8167C19.335 22.8167 20.1539 22.8457 20.9451 22.8968C20.3377 24.7666 19.3892 25.9 18.5 25.9ZM21.1048 25.4178C21.5853 24.6704 21.9531 23.8563 22.1963 23.0017C22.8833 23.0732 23.5357 23.1651 24.1437 23.2749C23.3291 24.2355 22.2832 24.973 21.1048 25.4178ZM24.917 22.1698C24.177 22.0156 23.3643 21.8898 22.4997 21.7955C22.6734 20.9122 22.7744 20.0163 22.8019 19.1167H25.8686C25.7801 20.1921 25.4552 21.2346 24.917 22.1698ZM30.2167 0H36.3833C36.7239 0 37 0.276112 37 0.616667V5.55C37 5.89055 36.7239 6.16667 36.3833 6.16667H33.9167V7.4H36.3833V8.63333H30.2167V7.4H32.6833V6.16667H30.2167C29.8761 6.16667 29.6 5.89055 29.6 5.55V0.616667C29.6 0.276112 29.8761 0 30.2167 0ZM30.8333 4.93333H35.7667V1.23333H30.8333V4.93333ZM6.78333 34.5333C7.12389 34.5333 7.4 34.2572 7.4 33.9167V28.9833C7.4 28.6428 7.12389 28.3667 6.78333 28.3667H0.616667C0.276112 28.3667 0 28.6428 0 28.9833V33.9167C0 34.2572 0.276112 34.5333 0.616667 34.5333H3.08333V35.7667H0V37H7.4V35.7667H4.31667V34.5333H6.78333ZM1.23333 33.3V29.6H6.16667V33.3H1.23333ZM37 33.9167C37 34.2572 36.7239 34.5333 36.3833 34.5333H33.9167V35.7667H37V37H29.6V35.7667H32.6833V34.5333H30.2167C29.8761 34.5333 29.6 34.2572 29.6 33.9167V28.9833C29.6 28.6428 29.8761 28.3667 30.2167 28.3667H36.3833C36.7239 28.3667 37 28.6428 37 28.9833V33.9167ZM30.8333 29.6V33.3H35.7667V29.6H30.8333ZM9.77725 8.90282L10.6807 8.60127L10.2885 7.43207L8.43847 8.04873C8.25401 8.10924 8.10924 8.25393 8.04873 8.43847L7.43207 10.2885L8.60373 10.6782L8.90528 9.77478L10.6665 11.536L11.5385 10.664L9.77725 8.90282ZM28.5615 8.04873C28.7475 8.10909 28.8934 8.25493 28.9537 8.44093L29.5704 10.2909L28.3987 10.6807L28.0972 9.77725L26.336 11.5385L25.464 10.6665L27.2252 8.90528L26.3218 8.60373L26.7115 7.43207L28.5615 8.04873ZM11.5335 26.3335L10.664 25.464L8.90282 27.2252L8.60127 26.3218L7.4296 26.7115L8.04627 28.5615C8.10678 28.746 8.25146 28.8908 8.436 28.9513L10.286 29.5679L10.6757 28.3963L9.77232 28.0947L11.5335 26.3335ZM28.0947 27.2252L28.3963 26.3218L29.5679 26.7115L28.9513 28.5615C28.8908 28.7461 28.746 28.8908 28.5615 28.9513L26.7115 29.5679L26.3193 28.3987L27.2227 28.0972L25.4616 26.336L26.3335 25.464L28.0947 27.2252ZM19.1167 2.46667H17.8833V7.4H19.1167V2.46667ZM17.8833 0H19.1167V1.23333H17.8833V0ZM21.7635 6.96392L20.5304 8.19706L21.4025 9.06915L22.6356 7.83602L21.7635 6.96392ZM14.3643 7.83597L15.2363 6.96388L16.4695 8.19702L15.5974 9.06911L14.3643 7.83597ZM19.1167 29.6H17.8833V34.5333H19.1167V29.6ZM17.8833 37V35.7667H19.1167V37H17.8833ZM21.4028 27.9309L20.5307 28.803L21.7638 30.0361L22.6359 29.164L21.4028 27.9309ZM14.6725 28.8551L15.5974 27.9303L16.4694 28.8024L15.5446 29.7272L14.6725 28.8551ZM34.5333 17.8833H29.6V19.1167H34.5333V17.8833ZM35.7667 17.8833H37V19.1167H35.7667V17.8833ZM29.1638 14.364L27.9307 15.5971L28.8028 16.4692L30.0359 15.2361L29.1638 14.364ZM27.9307 21.3995L28.8027 20.5274L30.0359 21.7606L29.1638 22.6327L27.9307 21.3995ZM7.4 17.8833H2.46667V19.1167H7.4V17.8833ZM0 19.1167V17.8833H1.23333V19.1167H0ZM7.83636 14.3641L6.96427 15.2362L8.1974 16.4694L9.0695 15.5973L7.83636 14.3641ZM6.96369 21.7639L8.19682 20.5308L9.06891 21.4029L7.83578 22.636L6.96369 21.7639Z" fill="#0057FF"/>
</svg>
