<svg width="22" height="37" viewBox="0 0 22 37" fill="none" xmlns="http://www.w3.org/2000/svg">
<path fill-rule="evenodd" clip-rule="evenodd" d="M17.3053 4.63405H19.0793C20.6563 4.63405 21.9393 5.9171 21.9393 7.49413V34.1399C21.9393 35.7169 20.6563 37 19.0793 37H2.86008C1.28305 37 0 35.7169 0 34.1399V7.49413C0 5.9171 1.28305 4.63405 2.86008 4.63405H4.63405V2.86008C4.63405 1.28305 5.9171 0 7.49413 0H14.4452C16.0222 0 17.3053 1.28305 17.3053 2.86008V4.63405ZM19.0793 35.9139C20.0574 35.9139 20.8532 35.1181 20.8532 34.1399V7.49413C20.8532 6.51598 20.0574 5.72015 19.0793 5.72015H16.7622H15.0245C14.7246 5.72015 14.4814 5.47702 14.4814 5.17711C14.4814 4.8772 14.7246 4.63405 15.0245 4.63405H16.2192V2.86008C16.2192 1.88193 15.4234 1.08611 14.4452 1.08611H7.49413C6.51598 1.08611 5.72016 1.88193 5.72016 2.86008V4.63405H12.7074C13.0073 4.63405 13.2505 4.8772 13.2505 5.17711C13.2505 5.47702 13.0073 5.72015 12.7074 5.72015H5.1771H2.86008C1.88193 5.72015 1.08611 6.51598 1.08611 7.49413V34.1399C1.08611 35.1181 1.88193 35.9139 2.86008 35.9139H19.0793ZM11.9357 18.5362H16.1107C16.6147 18.5362 17.0109 18.7413 17.1975 19.0991C17.3841 19.4568 17.3259 19.8991 17.0378 20.3126L10.6464 29.4849C10.3834 29.8624 10.1118 30.0522 9.83628 30.0522C9.75613 30.0522 9.67569 30.0361 9.59495 30.004C9.23893 29.862 9.10193 29.4954 9.18766 28.9145L9.97574 21.9393H6.40788C5.90385 21.9393 5.50772 21.7342 5.32098 21.3765C5.13431 21.0188 5.19253 20.5764 5.48071 20.1629L11.1994 12.1443C11.5355 11.6619 11.8892 11.4872 12.2474 11.6301C12.604 11.7722 12.741 12.1398 12.6544 12.7225L11.9357 18.5362ZM10.3893 27.9544L16.1468 19.6917C16.1638 19.6672 16.177 19.6453 16.1873 19.6264C16.1659 19.6239 16.1404 19.6223 16.1107 19.6223H11.3213C11.1657 19.6223 11.0175 19.5555 10.9144 19.4389C10.8113 19.3223 10.7632 19.1671 10.7824 19.0126L11.4423 13.6741L6.36842 20.7887C6.36037 20.8002 6.35321 20.8112 6.34684 20.8216C6.34089 20.8313 6.33563 20.8405 6.33098 20.8491C6.35249 20.8516 6.37805 20.8532 6.40795 20.8532H10.5837C10.7383 20.8532 10.8858 20.9192 10.9887 21.0345C11.0917 21.1499 11.1407 21.3036 11.1233 21.4573L10.3893 27.9544ZM19.0793 6.95108C18.7793 6.95108 18.5362 7.19423 18.5362 7.49414V8.65265C18.5362 8.95256 18.7793 9.19569 19.0793 9.19569C19.3792 9.19569 19.6223 8.95256 19.6223 8.65265V7.49414C19.6223 7.19423 19.3792 6.95108 19.0793 6.95108ZM18.5362 10.9697C18.5362 10.6698 18.7793 10.4266 19.0793 10.4266C19.3792 10.4266 19.6223 10.6698 19.6223 10.9697V17.3415C19.6223 17.6414 19.3792 17.8846 19.0793 17.8846C18.7793 17.8846 18.5362 17.6414 18.5362 17.3415V10.9697Z" fill="#0057FF"/>
</svg>
