<svg width="33" height="37" viewBox="0 0 33 37" fill="none" xmlns="http://www.w3.org/2000/svg">
<path fill-rule="evenodd" clip-rule="evenodd" d="M32.0666 20.9667C32.4072 20.9667 32.6833 21.2428 32.6833 21.5834H32.6834V26.8824C32.6834 26.9064 32.6827 26.981 32.6766 27.0988C32.6769 27.1047 32.6784 27.11 32.68 27.1153C32.6817 27.1211 32.6834 27.1269 32.6834 27.1334C32.68 27.1556 32.6756 27.1776 32.6698 27.1993C32.5797 28.5308 31.8632 33.649 26.2084 36.9174C26.0176 37.0275 25.7825 37.0275 25.5917 36.9174C24.4598 36.2709 23.4245 35.4684 22.5164 34.5334H1.85C0.828309 34.5334 0 33.705 0 32.6834V1.85C0 0.828236 0.828309 0 1.85 0H26.5166C27.5383 0 28.3666 0.828309 28.3666 1.85V20.9667H32.0666ZM1.23336 32.6834C1.23336 33.0239 1.50941 33.3 1.85 33.3V33.2999H21.4698C20.137 31.524 19.3266 29.411 19.1302 27.1993C19.1245 27.1775 19.1199 27.1555 19.1166 27.1333C19.1166 27.1271 19.1183 27.1216 19.12 27.116C19.1217 27.1105 19.1234 27.1049 19.1234 27.0987C19.1166 26.9809 19.1166 26.9064 19.1166 26.8823V21.5833C19.1166 21.2427 19.3927 20.9666 19.7333 20.9666H27.1333V1.85C27.1333 1.50941 26.8572 1.23336 26.5166 1.23336H1.85C1.50941 1.23336 1.23336 1.50941 1.23336 1.85V32.6834ZM25.2833 26.5166V22.2H20.3499V26.5166H25.2833ZM23.339 33.6084C24.0985 34.4037 24.9596 35.0954 25.9 35.6655C28.819 33.9823 30.8267 31.0759 31.368 27.75H26.5166V32.6834C26.5166 33.0239 26.2406 33.3001 25.9 33.3001C25.5594 33.3001 25.2834 33.024 25.2834 32.6834V27.7501H20.432C20.7705 29.8758 21.7295 31.8543 23.1885 33.4369C23.2494 33.4837 23.3005 33.5419 23.339 33.6084ZM26.5166 26.5166H31.45V22.2H26.5166V26.5166ZM22.4238 9.13156C21.2986 5.53425 17.9696 3.08271 14.2003 3.0757C10.4311 3.06869 7.09302 5.50765 5.95425 9.10077C4.81549 12.6939 6.1394 16.6104 9.22464 18.7757V18.7726C9.24523 18.7904 9.26706 18.8067 9.29004 18.8213C12.2471 20.8695 16.1672 20.8587 19.1129 18.7942H19.1172C22.2106 16.6405 23.5491 12.7289 22.4238 9.13156ZM10.4784 18.1152V18.1121C10.5451 18.041 10.6217 17.9799 10.7059 17.9308L12.6891 16.9583C13.0959 16.7548 13.354 16.3401 13.357 15.8853V15.6509C13.3557 15.3051 13.1579 14.9901 12.847 14.8388C12.1154 14.4768 11.581 13.81 11.3868 13.0172C11.3318 12.814 11.1769 12.6528 10.9761 12.5898C10.8277 12.5246 10.7383 12.3712 10.7547 12.2099V11.6981C10.738 11.5608 10.7965 11.4251 10.9076 11.3429C11.0902 11.2461 11.2122 11.0644 11.2326 10.8588C11.2751 10.3957 11.3871 9.94165 11.565 9.51196C11.733 9.13951 11.833 8.73995 11.8603 8.3323C12.5011 8.65272 13.2191 8.78656 13.9323 8.71834C13.9909 8.71343 14.0557 8.71343 14.1173 8.71343C16.5285 8.72947 16.9706 9.8592 17.0871 10.8687C17.1104 11.0704 17.2315 11.2478 17.4109 11.3429C17.5417 11.4118 17.6206 11.5504 17.6132 11.6981V12.2099C17.6205 12.3826 17.5102 12.5385 17.3449 12.5892C17.1416 12.6519 16.9849 12.8151 16.9305 13.0208C16.752 13.8066 16.2347 14.4729 15.5177 14.8406C15.2084 14.9922 15.0118 15.3064 15.0109 15.6509V15.9099C15.011 16.3582 15.2632 16.7683 15.6633 16.9706L17.5583 17.9449C17.6607 17.998 17.7548 18.0658 17.8377 18.146C15.5563 19.4555 12.7487 19.4437 10.4784 18.1152ZM18.87 17.4399C18.662 17.1916 18.4059 16.9878 18.1171 16.8411L16.243 15.91V15.8484C17.1025 15.3614 17.7438 14.5651 18.0363 13.6216C18.5395 13.33 18.8481 12.7915 18.8454 12.21V11.6981C18.8519 11.2142 18.6403 10.7529 18.2694 10.442C18.0228 9.02865 17.0823 7.48202 14.1587 7.48202C14.0508 7.48202 13.9429 7.48202 13.8387 7.49004C13.2818 7.55053 12.7207 7.42385 12.244 7.12994C12.0758 7.01916 11.923 6.88662 11.7895 6.73588C11.586 6.48931 11.2437 6.40758 10.9508 6.53549C10.6643 6.65364 10.489 6.94545 10.5192 7.25388C10.5357 7.44726 10.5633 7.63963 10.6018 7.82984C10.6671 8.23553 10.6075 8.65142 10.431 9.02243C10.2381 9.48082 10.1056 9.96239 10.0369 10.455C9.6914 10.7749 9.50214 11.2294 9.51825 11.7V12.2119C9.50243 12.7847 9.7925 13.3226 10.2799 13.624C10.5951 14.574 11.2553 15.371 12.1299 15.8576L10.1374 16.835C9.87654 16.9787 9.64609 17.1718 9.45907 17.4036C7.06064 15.4132 6.16744 12.1327 7.2257 9.20122C8.28395 6.26962 11.0666 4.31614 14.1834 4.31671C17.3115 4.31411 20.1029 6.27959 21.155 9.2255C22.207 12.1714 21.2921 15.4604 18.87 17.4399ZM17.2666 22.2H10.4833C10.1427 22.2 9.86664 22.4761 9.86664 22.8166C9.86664 23.1572 10.1427 23.4333 10.4833 23.4333H17.2666C17.6072 23.4333 17.8833 23.1572 17.8833 22.8166C17.8833 22.4761 17.6072 22.2 17.2666 22.2ZM10.4833 28.3666H17.2666C17.6072 28.3666 17.8833 28.6427 17.8833 28.9833C17.8833 29.3239 17.6072 29.5999 17.2666 29.5999H10.4833C10.1427 29.5999 9.86664 29.3238 9.86664 28.9833C9.86664 28.6428 10.1427 28.3666 10.4833 28.3666ZM17.2666 25.2834H4.93329C4.5927 25.2834 4.31664 25.5594 4.31664 25.9C4.31664 26.2406 4.5927 26.5166 4.93329 26.5166H17.2666C17.6072 26.5166 17.8833 26.2406 17.8833 25.9C17.8833 25.5594 17.6072 25.2834 17.2666 25.2834Z" fill="#0057FF"/>
</svg>
