<svg width="296" height="141" viewBox="0 0 296 141" fill="none" xmlns="http://www.w3.org/2000/svg">
<path d="M85.4888 100.503H97.2639V139.672H103.304V100.503H115.39V94.72H85.4888V100.503Z" fill="white"/>
<path d="M154.748 114.243H131.08V94.72H125.022V139.672H131.08V119.964H154.748V139.672H160.743V94.72H154.748V114.243Z" fill="white"/>
<path d="M237.045 118.425C235.946 117.431 234.713 116.599 233.343 115.935C231.974 115.272 230.584 114.668 229.172 114.13C227.554 113.509 226 112.842 224.505 112.139C223.013 111.432 221.805 110.592 220.894 109.618C219.98 108.644 219.525 107.45 219.525 106.038C219.525 104.169 220.239 102.677 221.672 101.555C223.104 100.435 225.02 99.874 227.426 99.874C229.169 99.874 230.951 100.165 232.777 100.746C234.602 101.327 236.282 102.013 237.817 102.799L240.12 98.1936C238.417 97.1568 236.458 96.2852 234.237 95.5788C232.019 94.8725 229.457 94.5193 226.552 94.5193C223.981 94.6019 221.7 95.1516 219.707 96.1684C217.714 97.1853 216.15 98.5752 215.009 100.338C213.867 102.104 213.297 104.166 213.297 106.533C213.297 108.484 213.67 110.145 214.416 111.512C215.162 112.882 216.159 114.033 217.403 114.967C218.648 115.901 219.994 116.69 221.45 117.334C222.902 117.978 224.334 118.57 225.743 119.108C227.236 119.689 228.648 120.345 229.975 121.071C231.302 121.797 232.369 122.669 233.178 123.686C233.987 124.702 234.391 125.978 234.391 127.514C234.391 129.299 233.936 130.729 233.022 131.809C232.108 132.888 230.957 133.686 229.568 134.204C228.175 134.723 226.777 134.982 225.365 134.982C224.038 134.982 222.668 134.785 221.259 134.392C219.846 133.999 218.5 133.478 217.212 132.837C215.925 132.193 214.786 131.521 213.79 130.815L211.113 135.546C212.318 136.335 213.684 137.092 215.222 137.816C216.757 138.542 218.425 139.135 220.231 139.59C222.036 140.046 223.932 140.274 225.926 140.274C228.953 140.274 231.566 139.713 233.768 138.593C235.966 137.474 237.657 135.939 238.839 133.988C240.021 132.037 240.613 129.878 240.613 127.514C240.613 125.355 240.291 123.552 239.648 122.096C239.015 120.646 238.144 119.422 237.045 118.425Z" fill="white"/>
<path d="M256.868 94.72H250.847V139.672H256.868V94.72Z" fill="white"/>
<path d="M295.043 122.099C294.4 120.646 293.528 119.422 292.429 118.425C291.33 117.431 290.097 116.599 288.727 115.935C287.358 115.272 285.968 114.668 284.556 114.13C282.939 113.509 281.384 112.842 279.889 112.139C278.397 111.432 277.19 110.592 276.278 109.618C275.364 108.644 274.909 107.45 274.909 106.038C274.909 104.169 275.624 102.677 277.056 101.555C278.488 100.435 280.404 99.874 282.81 99.874C284.553 99.874 286.336 100.165 288.164 100.746C289.989 101.327 291.669 102.013 293.204 102.799L295.507 98.1936C293.804 97.1568 291.845 96.2852 289.624 95.5788C287.406 94.8725 284.844 94.5193 281.939 94.5193C279.368 94.6019 277.087 95.1516 275.094 96.1684C273.101 97.1853 271.537 98.5752 270.396 100.338C269.254 102.104 268.684 104.166 268.684 106.533C268.684 108.484 269.057 110.145 269.803 111.512C270.549 112.882 271.546 114.033 272.79 114.967C274.035 115.901 275.384 116.69 276.837 117.334C278.289 117.978 279.721 118.57 281.13 119.108C282.623 119.689 284.035 120.345 285.362 121.071C286.689 121.797 287.756 122.669 288.565 123.686C289.374 124.702 289.778 125.978 289.778 127.514C289.778 129.299 289.323 130.729 288.409 131.809C287.495 132.888 286.344 133.686 284.955 134.204C283.562 134.723 282.164 134.982 280.752 134.982C279.425 134.982 278.055 134.785 276.646 134.392C275.233 133.999 273.887 133.478 272.6 132.837C271.313 132.193 270.174 131.521 269.177 130.815L266.5 135.546C267.705 136.335 269.072 137.092 270.609 137.816C272.144 138.542 273.813 139.135 275.618 139.59C277.423 140.046 279.32 140.274 281.313 140.274C284.34 140.274 286.954 139.713 289.155 138.593C291.353 137.474 293.044 135.939 294.226 133.988C295.408 132.037 296 129.878 296 127.514C296.008 125.357 295.687 123.552 295.043 122.099Z" fill="white"/>
<path d="M20.0869 92.9139H19.713L0 139.672H5.92503L10.7684 127.872L12.9118 122.656L19.6359 106.273L26.1004 122.656L28.1581 127.872L32.8103 139.672H39.7342L20.0869 92.9139Z" fill="white"/>
<path d="M68.7988 121.546C70.4318 120.741 71.7945 119.734 72.8585 118.505C74.0591 117.116 74.9211 115.571 75.4389 113.873C75.9567 112.174 76.2156 110.433 76.2156 108.649C76.2156 106.37 75.8116 104.37 75.0036 102.649C74.1957 100.931 73.0747 99.4797 71.6466 98.2962C70.2156 97.1155 68.537 96.225 66.611 95.6219C64.6849 95.0216 62.5797 94.72 60.3009 94.72H48.3634V100.504H54.3947H61.3592C62.9353 100.504 64.2724 100.774 65.3706 101.312C66.4687 101.853 67.3621 102.535 68.0448 103.363C68.7305 104.194 69.2255 105.093 69.5356 106.069C69.8486 107.042 70.0022 107.986 70.0022 108.897C70.0022 109.767 69.8571 110.701 69.5669 111.694C69.2767 112.689 68.8016 113.611 68.1359 114.459C67.473 115.31 66.5512 116.004 65.3677 116.542C64.1871 117.082 62.7049 117.35 60.9239 117.35H54.3947H48.3634V139.672H54.3947V123.131H61.0462C61.5583 123.131 62.0391 123.102 62.5199 123.074L73.106 139.672H80.0705L68.7988 121.546Z" fill="white"/>
<path d="M203.086 100.54V94.72H173.787V100.54H179.834H203.086Z" fill="white"/>
<path d="M179.82 133.89V119.968H200.531V114.186H179.82H173.787V139.672H203.889V133.89H179.82Z" fill="white"/>
<path d="M149.505 47.5635V75.0536C159.183 74.6867 167.921 70.6909 174.389 64.3857L166.72 47.5607H149.505V47.5635Z" fill="white"/>
<path d="M166.362 8.22778H151.913L166.362 39.7342V8.22778Z" fill="white"/>
<path d="M149.505 44.5505H165.359L149.505 9.63257V44.5505Z" fill="white"/>
<path d="M146.495 9.63257L130.641 44.5505H146.495V9.63257Z" fill="white"/>
<path d="M129.638 39.7342L144.087 8.22778H129.638V39.7342Z" fill="white"/>
<path d="M146.495 75.0535V47.5607H129.28L121.611 64.3875C128.079 70.6904 136.82 74.6895 146.495 75.0535Z" fill="white"/>
<path d="M169.172 46.0109L176.452 62.0095C182.163 55.4261 185.627 46.8485 185.627 37.459C185.627 24.5598 179.104 13.1847 169.172 6.42175V46.0109Z" fill="white"/>
<path d="M148.301 0L150.672 5.21763H167.165C161.636 1.93782 155.192 0.0397209 148.301 0Z" fill="white"/>
<path d="M126.828 46.0138V6.42175C116.896 13.1847 110.373 24.5598 110.373 37.459C110.373 46.8485 113.837 55.4261 119.548 62.0095L126.828 46.0138Z" fill="white"/>
<path d="M145.328 5.21763L147.699 0C140.811 0.0397209 134.367 1.93782 128.835 5.21763H145.328Z" fill="white"/>
</svg>
