<svg width="2875" height="509" viewBox="0 0 2875 509" fill="none" xmlns="http://www.w3.org/2000/svg">
<path d="M430.312 321.84H410.758L400.965 304.922H420.519H420.551L430.312 321.84Z" fill="#005D5C"/>
<path d="M391.206 321.873L371.62 321.84L361.859 304.922H381.413L391.206 321.873Z" fill="#005D5C"/>
<path d="M352.062 321.84H332.508L322.715 304.922H342.268H342.301L352.062 321.84Z" fill="#005D5C"/>
<path d="M136.911 84.7236L117.358 84.6911L107.564 67.7728L127.118 67.7402L127.151 67.7728L136.911 84.7236Z" fill="#E37D1E"/>
<path d="M264.058 203.279H244.504L234.711 186.328H254.265H254.297L264.058 203.279Z" fill="#DE5822"/>
<path d="M410.759 287.972H391.205L381.412 271.054V271.021H400.966L410.759 287.972Z" fill="#005D5C"/>
<path d="M371.621 287.972H352.1H352.067L342.307 271.054V271.021H361.86L371.621 287.972Z" fill="#005D5C"/>
<path d="M567.22 287.972H547.666L537.873 271.021H557.427L557.459 271.054L567.22 287.972Z" fill="#DE5822"/>
<path d="M528.114 287.972H508.528L498.768 271.054V271.021H518.321L528.114 287.972Z" fill="#DE5822"/>
<path d="M332.509 287.972H312.955L303.162 271.021H322.716L332.509 287.972Z" fill="#005D5C"/>
<path d="M283.612 237.147H264.059L254.266 220.229H273.852L283.612 237.147Z" fill="#DE5822"/>
<path d="M224.946 203.279H205.36L195.6 186.328L215.153 186.361L224.946 203.279Z" fill="#DE5822"/>
<path d="M244.505 237.148H224.919L215.158 220.23L234.712 220.197L244.505 237.148Z" fill="#DE5822"/>
<path d="M185.808 203.279H166.255V203.246L156.494 186.328H176.048L185.808 203.279Z" fill="#DE5822"/>
<path d="M205.394 237.147H185.807L176.047 220.229H195.601L205.394 237.147Z" fill="#DE5822"/>
<path d="M156.463 50.82H136.909L127.148 33.8691L146.702 33.9017L156.463 50.82Z" fill="#E37D1E"/>
<path d="M176.048 84.6898L156.462 84.7223L146.701 67.7715H166.255L176.048 84.6898Z" fill="#E37D1E"/>
<path d="M58.6925 220.232H39.1063L29.3457 203.281H48.8994L58.6925 220.232Z" fill="#077B7E"/>
<path d="M78.2452 254.101L58.6915 254.069L48.8984 237.183V237.15H68.4521L78.2452 254.101Z" fill="#077B7E"/>
<path d="M39.1072 254.101H19.5535L9.79297 237.15H29.3466L39.1072 254.101Z" fill="#077B7E"/>
<path d="M469.417 457.344H449.863L440.07 440.426H459.657L469.417 457.344Z" fill="#005D5C"/>
<path d="M430.312 457.345H410.758L400.965 440.427H420.519V440.395L420.551 440.427L430.312 457.345Z" fill="#005D5C"/>
<path d="M449.864 491.248H430.311L420.518 474.297H440.071L449.864 491.248Z" fill="#005D5C"/>
<path d="M449.864 491.251L440.104 508.17H420.518V508.202V508.17H400.964H381.41H361.857H342.303H322.749H322.717H303.163H283.609H264.056H244.502H224.916H205.395H205.362H185.808H166.255H146.701L156.462 491.251H156.494H176.015H195.602H215.155H234.709H254.263H273.849H293.402H312.956V491.219V491.251H332.51H352.063H371.617H391.171H410.757H430.311H449.864Z" fill="#077B7E"/>
<path d="M469.417 457.348L459.656 474.298H440.103H440.07H420.517H400.963H381.409H361.856H342.269H322.748H322.716H303.195H303.162H283.608H264.055H244.501H224.947H205.361H185.808H166.254L176.014 457.348H195.601H215.154H234.708V457.38V457.348H254.262H273.815H293.402L312.955 457.38V457.348H332.509H352.062H371.616V457.38V457.348H391.17H391.202H410.756H430.31L449.863 457.38V457.348H469.417Z" fill="#077B7E"/>
<path d="M489.002 423.479L479.209 440.429H459.656H440.069H420.548L420.516 440.397V440.429H400.962H381.408H381.376H361.855H342.268H322.747H303.194L283.607 440.397V440.429H264.054H244.5H244.468H224.946L205.393 440.397L205.36 440.429H185.807L195.6 423.479H215.153H234.707H254.261H273.814H273.847H293.401H312.954H332.508H352.062H371.615H391.169H410.755H430.309H449.862H469.416H489.002Z" fill="#077B7E"/>
<path d="M547.667 321.84H528.113L518.32 304.922H537.874L547.667 321.84Z" fill="#DE5822"/>
<path d="M489.004 423.48H469.418L459.657 406.562V406.529L449.864 389.611L440.071 372.693V372.66L430.311 355.742L430.278 355.709L420.518 338.791H440.104L449.864 355.709V355.742L459.657 372.66L469.418 389.611L479.211 406.562L489.004 423.48Z" fill="#005D5C"/>
<path d="M430.312 423.48L420.519 406.529L410.759 389.611L400.966 372.66L391.173 355.709L381.412 338.791H400.966L410.759 355.709V355.742L430.312 389.611L440.073 406.529L449.866 423.48H430.312Z" fill="#005D5C"/>
<path d="M410.761 423.48H391.175L381.414 406.529L371.653 389.611H371.621V389.578L361.86 372.66L352.067 355.742L342.307 338.791H361.86L371.653 355.709L381.414 372.66V372.693L391.207 389.611L400.968 406.562L410.761 423.48Z" fill="#005D5C"/>
<path d="M547.667 321.838L537.874 338.789H518.32H498.767H479.213H459.659H459.627H440.106H420.519H400.966H381.412H361.858H342.305H322.719H303.197H303.165H283.611H264.058H244.504L254.264 321.838H254.297H273.818H273.851H293.404H312.925L312.958 321.87V321.838H332.512H352.065H352.098H371.619L391.205 321.87L410.759 321.838H430.312H449.866H469.42H488.973H489.006H508.56L528.113 321.87V321.838H547.667Z" fill="#E37D1E"/>
<path d="M567.22 287.969L557.459 304.92H537.873H518.319H498.766H479.212H459.658H440.072H420.551H420.518H400.965H381.411H361.857H342.304V304.887L342.271 304.92H322.718H303.164H283.61H264.057L273.817 287.969H293.371H312.957H332.511H352.064H352.097H371.618H391.204H410.758H430.279H430.312H449.865H469.419H489.005H508.526H528.112H547.666H567.22Z" fill="#E37D1E"/>
<path d="M586.772 254.099L577.012 271.017H576.979H557.458H557.426H537.872H518.318H498.765V271.05V271.017H479.211H459.657V271.05L440.071 271.017H420.55L420.518 271.05V271.017H400.964H381.41V271.05L381.378 271.017H361.857H342.303H342.27H322.717H303.163H283.609L293.37 254.099L312.956 254.066L332.51 254.099H352.063H352.096H371.617H391.171L410.724 254.066L410.757 254.099H430.311V254.066H449.864L469.418 254.099L488.972 254.066V254.099H489.004H508.525H508.558V254.066H528.112L547.665 254.099H567.219V254.066H586.772V254.099Z" fill="#E37D1E"/>
<path d="M312.957 254.069L293.371 254.101L303.164 237.15L312.957 254.069Z" fill="#005D5C"/>
<path d="M293.371 254.1L283.61 271.018L273.85 254.1H293.371Z" fill="#DE5822"/>
<path d="M273.818 287.969L264.058 304.92L254.265 287.969H254.297H254.265L244.504 271.05L244.472 271.018L234.711 254.1H254.265L264.058 271.018V271.05L273.818 287.969Z" fill="#DE5822"/>
<path d="M254.261 321.838L244.5 338.789L234.707 321.838L224.946 304.92L215.153 287.969L205.36 271.018L195.6 254.1H215.153L224.946 271.018L234.707 287.969L244.5 304.92L254.261 321.838Z" fill="#DE5822"/>
<path d="M156.462 491.25L146.701 508.169L136.941 491.25L127.148 474.3L117.355 457.349L107.594 440.43H107.561L107.594 440.398L97.8008 423.48L88.0077 406.529L78.2472 389.61L68.4541 372.66L58.6935 355.741V355.709L48.9004 338.79L39.1399 321.872L39.1073 321.84H39.1399L29.3468 304.921L19.5537 287.97H19.5862L9.7931 271.02L0 254.101L9.7931 237.15L19.5537 254.101L29.3468 271.02V271.052L39.1073 287.97L48.9004 304.921L58.6935 321.84L68.4541 338.79L78.2472 355.709L88.0077 372.66L97.8008 389.61L107.594 406.529V406.561L117.355 423.48L127.148 440.43L136.908 457.349L146.701 474.3L156.462 491.25Z" fill="#005D5C"/>
<path d="M303.167 237.15L293.374 254.101H273.853H273.82H254.267H234.713V254.069L215.159 254.101H195.606L176.052 254.069V254.101H156.466H136.912H117.358L97.8048 254.069L88.0117 237.15H107.565H107.598H127.152H146.705H166.259H185.813H205.399H224.92H244.506H264.06H283.613H303.167Z" fill="#077B7E"/>
<path d="M176.015 457.349L166.254 474.3L156.461 457.381L156.493 457.349H156.461L146.7 440.43L136.907 423.48L127.147 406.529L117.354 389.61L107.56 372.692L107.593 372.66H107.56L97.7999 355.741L88.0068 338.79L78.2463 321.84L68.4532 304.921L58.6926 287.97L48.8995 271.02L39.1389 254.101H39.1064L29.3458 237.15L19.5527 220.232L29.3458 203.281L39.1064 220.232L48.8995 237.15V237.183L58.6926 254.069L58.6601 254.101L68.4532 271.02L78.2137 287.97H78.2463L88.0068 304.921L97.7999 321.84L107.56 338.79L117.354 355.709V355.741L127.114 372.66H127.147L136.907 389.61L156.461 423.48L166.254 440.43L176.015 457.349Z" fill="#005D5C"/>
<path d="M352.062 254.101H332.509L322.716 237.15H322.748L312.955 220.232V220.2L322.716 203.281H322.748L332.509 220.232L342.302 237.15H342.269L352.062 254.101Z" fill="#005D5C"/>
<path d="M322.714 203.281L312.953 220.232H293.4H273.846H254.26L234.706 220.2L215.152 220.232H195.599H176.045V220.2L176.013 220.232H156.491H156.459H136.938H136.905H117.352L97.7979 220.2V220.232H78.2443V220.2L68.4512 203.281H88.0048H88.0374H107.558H107.591H127.145H146.698H166.252H185.806H185.838H205.392H224.946H244.467H244.499H264.053H283.607H303.16H322.714Z" fill="#077B7E"/>
<path d="M391.169 254.101H371.615L361.855 237.15L352.061 220.232V220.2L332.508 186.33L342.268 169.412L352.061 186.33L361.855 203.281L371.615 220.232L381.408 237.15L391.169 254.101Z" fill="#005D5C"/>
<path d="M195.602 423.481L185.809 440.432L176.048 423.481L166.255 406.53L156.462 389.612L146.701 372.661L136.908 355.743V355.71L127.148 338.792L117.355 321.841L107.594 304.923H107.562V304.89L97.8009 287.972L88.0078 271.053L88.0404 271.021H88.0078L78.2473 254.103L68.4542 237.152L58.6936 220.233L48.9005 203.283L39.1074 186.332L48.9005 169.381L58.6936 186.332L68.4867 203.283L78.2473 220.201V220.233L88.0078 237.152L97.8009 254.07V254.103L107.562 271.021L107.594 271.053L117.355 287.972L127.148 304.923L136.941 321.841L136.908 321.873L146.701 338.792L156.462 355.71L166.255 372.661L176.048 389.612L185.809 406.563L195.602 423.481Z" fill="#005D5C"/>
<path d="M342.268 169.413L332.508 186.332H312.954H293.401H273.847H273.814H254.293H254.261H234.707H215.153V186.364L195.6 186.332H176.046H176.014H156.492H136.906H117.353H97.7989H78.2452V186.364L58.6915 186.332L48.8984 169.381L68.4521 169.413L88.0058 169.381L88.0383 169.413H107.559L127.146 169.381L146.699 169.413H166.253V169.381H185.807L205.36 169.413L224.914 169.381L224.946 169.413H244.468H244.5V169.381H264.054V169.413H283.607L303.161 169.381H322.715L322.747 169.413H342.268Z" fill="#077B7E"/>
<path d="M508.528 254.101H489.007L488.975 254.068L479.214 237.15L469.421 220.231L459.66 203.281L449.867 186.33L440.074 169.379L430.314 152.461L420.521 135.542L420.553 135.51H420.521L410.76 118.591L400.967 101.641L391.174 84.6898L400.967 67.7715L410.76 84.7223L420.521 101.641L430.314 118.591L440.074 135.51L449.867 152.461L459.66 169.411L469.421 186.33V186.362L479.214 203.281L488.975 220.199L498.768 237.15L508.528 254.101Z" fill="#DE5822"/>
<path d="M400.962 67.7728L391.169 84.6911H371.648L371.615 84.7236H352.062L332.508 84.6911V84.7236L312.954 84.6911H293.401V84.7236H273.847L254.261 84.6911L234.707 84.7236H215.153H195.6L185.807 67.7728H205.393H224.946H244.468H264.054H283.607V67.7402H303.161V67.7728H303.194H322.715H342.301H361.855H381.408H400.962Z" fill="#E37D1E"/>
<path d="M547.666 254.1L528.112 254.067L518.319 237.149L508.559 220.231L498.798 203.28H498.766L489.005 186.329H488.972L479.212 169.411L469.419 152.46L459.658 135.509L449.865 118.591L440.105 101.64L430.311 84.7217L420.518 67.7383L410.758 50.82L420.518 33.8691L430.311 50.82L440.105 67.7708L449.865 84.7217L459.658 101.64L469.419 118.591L479.212 135.509L488.972 152.46L498.766 169.411L508.559 186.329H508.526L528.112 220.231L537.873 237.149L547.666 254.1Z" fill="#DE5822"/>
<path d="M420.517 33.9017L410.756 50.82L391.202 50.8525L371.616 50.82H352.062H332.509H312.955V50.8525L293.402 50.82L273.815 50.8525L254.262 50.82H234.708H215.154H195.601H176.014L166.254 33.9017H185.808H205.361V33.8691L205.394 33.9017H224.947H244.501V33.8691H264.055L283.608 33.9017H303.162H322.716H342.269V33.8691L342.302 33.9017H361.856H381.409H400.963H420.517Z" fill="#E37D1E"/>
<path d="M586.772 254.067H567.219V254.1L557.458 237.149L547.665 220.231L537.872 203.28L528.111 186.329L518.318 169.411V169.378L508.525 152.46L498.765 135.542V135.509L488.972 118.591L479.211 101.64L469.418 84.6892L459.657 67.7708H459.625L449.864 50.8525V50.82L440.071 33.9017L430.311 16.9508L440.071 0L459.657 33.8692V33.9017L469.418 50.82L479.211 67.7708L488.972 84.7217L498.765 101.64V101.673L508.525 118.591H508.558L518.318 135.509L528.111 152.46L537.872 169.378V169.411L547.665 186.362L557.426 203.28L567.219 220.231L576.979 237.149H577.012L586.772 254.067Z" fill="#DE5822"/>
<path d="M244.47 169.378H224.948H224.916L215.155 152.46L205.362 135.542L195.602 118.591L185.809 101.64L176.048 84.6892L166.255 67.7708L156.462 50.8525L156.494 50.82H156.462L146.701 33.9017L136.908 16.9508L146.701 0L156.462 16.9508L166.255 33.9017L176.016 50.82L185.809 67.7708L195.602 84.7217L205.395 101.64L215.155 118.558V118.591L224.948 135.509L234.709 152.46L244.47 169.378Z" fill="#DE5822"/>
<path d="M205.363 169.411L185.81 169.378L176.049 152.46H176.016L166.256 135.542V135.509L156.463 118.591L146.702 101.64L136.909 84.7217L127.149 67.7708L127.116 67.7383L117.355 50.82L127.149 33.8691L136.909 50.82L146.702 67.7708L156.463 84.7217L166.256 101.64L176.049 118.591H176.016L185.81 135.509V135.542L195.603 152.46L205.363 169.411Z" fill="#DE5822"/>
<path d="M166.257 169.379V169.411H146.703L136.91 152.461L127.15 135.51L117.356 118.591L107.596 101.641L97.8027 84.7223L107.563 67.7715L117.356 84.6898L127.15 101.641L136.91 118.591H136.943L146.703 135.51L156.464 152.461L166.257 169.379Z" fill="#DE5822"/>
<path d="M440.071 0.0325352L430.311 16.9508H410.757H391.203H391.171H371.617H352.096H352.063H332.51H312.956H293.402H293.37H273.816H254.263H234.709H215.155H195.602H176.048H156.462L146.701 0L166.255 0.0325352V0H185.808H205.362L224.916 0.0325352L244.502 0H264.056V0.0325352V0H283.609V0.0325352H303.163L322.749 0H342.27L342.303 0.0325352H361.857V0H381.41L400.964 0.0325352V0H420.518V0.0325352H440.071Z" fill="#E37D1E"/>
<path d="M910.728 166.095C926.838 165.666 942.771 169.528 956.896 177.287C969.32 184.182 979.488 194.52 986.177 207.057C992.75 219.7 996.102 233.77 995.938 248.018V431.061H928.72V327.925H790.608V431.061H723.293V248.018C723.128 233.77 726.481 219.7 733.053 207.057C739.743 194.52 749.911 184.182 762.335 177.287C776.46 169.528 792.393 165.666 808.503 166.095H910.728ZM790.608 268.808H928.883V244.017C929.145 238.954 927.39 233.993 924.003 230.222C922.266 228.522 920.195 227.202 917.921 226.345C915.647 225.488 913.22 225.113 910.793 225.244H808.438C806.011 225.109 803.582 225.482 801.308 226.339C799.033 227.196 796.963 228.519 795.228 230.222C791.935 234.034 790.275 238.99 790.608 244.017V268.808Z" fill="#4D4D4D"/>
<path d="M1043.8 166.093H1236.34C1252.45 165.675 1268.38 169.537 1282.51 177.285C1294.94 184.167 1305.11 194.508 1311.79 207.055C1318.38 219.693 1321.73 233.766 1321.55 248.017C1321.83 266.057 1316 283.662 1304.99 297.958C1293.93 312.339 1278.4 321.536 1258.4 325.548L1327.15 431.06H1251.21L1185.68 327.923H1110.85V431.06H1043.8V166.093ZM1236.34 268.807C1238.76 268.935 1241.19 268.555 1243.46 267.692C1245.73 266.83 1247.79 265.503 1249.52 263.796C1251.14 262.053 1252.4 260.005 1253.23 257.771C1254.05 255.538 1254.43 253.162 1254.33 250.782V243.234C1254.55 240.818 1254.23 238.384 1253.4 236.104C1252.57 233.824 1251.25 231.753 1249.54 230.037C1247.82 228.322 1245.75 227.004 1243.47 226.175C1241.19 225.347 1238.76 225.028 1236.34 225.242L1110.85 224.819V268.807H1236.34Z" fill="#4D4D4D"/>
<path d="M1615.7 166.096V225.245L1512.99 224.854V431.062H1445.83V224.854L1343.12 225.245V166.096H1615.7Z" fill="#4D4D4D"/>
<path d="M1655.66 166.095H1848.26C1864.37 165.666 1880.31 169.528 1894.43 177.287C1906.86 184.182 1917.02 194.52 1923.71 207.057C1930.29 219.7 1933.64 233.769 1933.47 248.018C1933.77 266.061 1927.93 283.671 1916.91 297.96C1905.85 312.34 1890.33 321.537 1870.36 325.55L1939.1 431.061H1863.07L1797.51 327.925H1722.68V431.061H1655.66V166.095ZM1848.26 268.808C1850.66 268.914 1853.06 268.523 1855.29 267.661C1857.53 266.799 1859.57 265.484 1861.28 263.798C1862.91 262.059 1864.17 260.011 1865 257.777C1865.83 255.542 1866.2 253.164 1866.09 250.784V243.236C1866.31 240.819 1865.99 238.385 1865.16 236.105C1864.33 233.825 1863.01 231.754 1861.3 230.039C1859.58 228.324 1857.51 227.005 1855.23 226.177C1852.95 225.348 1850.52 225.03 1848.1 225.244L1722.61 224.821V268.808H1848.26Z" fill="#4D4D4D"/>
<path d="M2158.38 166.095C2174.49 165.677 2190.42 169.539 2204.55 177.287C2216.98 184.178 2227.15 194.517 2233.83 207.057C2240.42 219.694 2243.77 233.768 2243.59 248.018V431.062H2176.34V327.925H2038.1V431.062H1970.95V248.018C1970.77 233.768 1974.12 219.694 1980.71 207.057C1987.38 194.51 1997.56 184.169 2009.99 177.287C2024.14 169.528 2040.09 165.665 2056.22 166.095H2158.38ZM2038 268.808H2176.25V244.017C2176.53 238.967 2174.81 234.009 2171.46 230.222C2169.73 228.523 2167.67 227.203 2165.4 226.346C2163.13 225.489 2160.71 225.114 2158.29 225.244H2056.22C2053.8 225.107 2051.37 225.479 2049.09 226.336C2046.82 227.194 2044.75 228.517 2043.01 230.222C2039.61 233.988 2037.85 238.949 2038.1 244.017L2038 268.808Z" fill="#4D4D4D"/>
<path d="M2368.17 371.909H2470.49C2472.94 372.031 2475.38 371.668 2477.68 370.842C2479.98 370.015 2482.09 368.741 2483.9 367.093C2485.58 365.384 2486.89 363.346 2487.75 361.106C2488.6 358.867 2488.99 356.474 2488.88 354.079V336.738H2555.61V348.711C2555.77 363.022 2552.42 377.155 2545.85 389.868C2539.22 402.511 2529.04 412.939 2516.56 419.866C2502.45 427.624 2486.53 431.487 2470.43 431.058H2368.17C2352.13 431.501 2336.27 427.636 2322.23 419.866C2309.89 412.861 2299.82 402.446 2293.24 389.868C2286.69 377.149 2283.33 363.02 2283.48 348.711V248.015C2283.32 233.766 2286.67 219.698 2293.24 207.053C2299.87 194.567 2309.93 184.238 2322.23 177.283C2336.27 169.512 2352.13 165.647 2368.17 166.091H2470.49C2486.59 165.662 2502.52 169.524 2516.63 177.283C2529.07 184.159 2539.24 194.502 2545.91 207.053C2552.5 219.692 2555.85 233.764 2555.67 248.015V259.988H2488.94V243.232C2489.07 240.805 2488.7 238.378 2487.84 236.104C2486.98 233.83 2485.66 231.759 2483.96 230.023C2480.31 226.715 2475.48 224.995 2470.56 225.24H2368.17C2365.79 225.087 2363.4 225.434 2361.16 226.257C2358.92 227.081 2356.87 228.363 2355.16 230.023C2351.95 233.649 2350.3 238.396 2350.57 243.232V353.852C2350.34 358.623 2351.98 363.295 2355.16 366.866C2356.87 368.536 2358.91 369.828 2361.15 370.657C2363.39 371.487 2365.79 371.836 2368.17 371.681" fill="#4D4D4D"/>
<path d="M2788.2 431.062L2712.69 341.916L2637.92 431.062H2555.61L2671.92 293.959L2563.61 166.096H2648.73L2716.27 245.612L2783.39 166.096H2867.33L2757.03 293.178L2874.52 431.062H2788.2Z" fill="#4D4D4D"/>
</svg>
