<svg xmlns="http://www.w3.org/2000/svg" xmlns:xlink="http://www.w3.org/1999/xlink" viewBox="0 0 400 47.5"><defs><style>.cls-1{fill:url(#linear-gradient);}.cls-2{fill:url(#linear-gradient-2);}.cls-3{fill:url(#linear-gradient-3);}.cls-4{fill:url(#linear-gradient-4);}.cls-5{fill:url(#linear-gradient-5);}.cls-6{fill:url(#linear-gradient-6);}.cls-7{fill:url(#linear-gradient-7);}</style><linearGradient id="linear-gradient" x1="16.94" y1="46.17" x2="16.94" gradientUnits="userSpaceOnUse"><stop offset="0" stop-color="#747895"/><stop offset="1" stop-color="#747895"/></linearGradient><linearGradient id="linear-gradient-2" x1="44.48" y1="46.17" x2="44.48" y2="0" xlink:href="#linear-gradient"/><linearGradient id="linear-gradient-3" x1="184.5" y1="46.17" x2="184.5" y2="0" xlink:href="#linear-gradient"/><linearGradient id="linear-gradient-4" x1="215.7" y1="46.17" x2="215.7" y2="0" xlink:href="#linear-gradient"/><linearGradient id="linear-gradient-5" x1="131.99" y1="47.5" x2="131.99" y2="0" xlink:href="#linear-gradient"/><linearGradient id="linear-gradient-6" x1="72.72" y1="46.17" x2="72.72" y2="0" xlink:href="#linear-gradient"/><linearGradient id="linear-gradient-7" x1="319.61" y1="46.17" x2="319.61" y2="0" xlink:href="#linear-gradient"/></defs><g id="Layer_2" data-name="Layer 2"><g id="Layer_1-2" data-name="Layer 1"><path class="cls-1" d="M25,22.5A10.49,10.49,0,0,0,32.83,12c0-7.3-5.59-12-15-12H0V46.17H18.55c9.74,0,15.33-4.93,15.33-12.56A11.19,11.19,0,0,0,25,22.5ZM9.21,7.19h8.27c4.22,0,6.64,2.11,6.64,5.78s-2.42,5.71-6.64,5.71H9.21ZM18.4,38.92H9.21v-12h9.07c4.29,0,7,2.34,7,6.11S22.74,38.92,18.4,38.92Z"/><path class="cls-2" d="M39.91,0H49V46.17H39.91Z"/><path class="cls-3" d="M179.93,0h9.14V46.17h-9.14Z"/><path class="cls-4" d="M225.05,0V28.61l-.08-.13L206.43.27,206.24,0h-9V46.17h9V17.69l.19.28L225,46l.08.13h9V0Z"/><path class="cls-5" d="M174.92,23.75A23.75,23.75,0,0,1,151.17,47.5,23.49,23.49,0,0,1,138.72,44a32.92,32.92,0,0,0,4.58-7.91,14.6,14.6,0,1,0-6.74-12.3,23.54,23.54,0,0,1-4.57,14A23.27,23.27,0,0,1,125.26,44a23.51,23.51,0,0,1-12.45,3.54,23.75,23.75,0,1,1,12.45-44,33.31,33.31,0,0,0-4.58,7.91,14.6,14.6,0,1,0,6.74,12.31,23.75,23.75,0,0,1,47.5,0Z"/><polygon class="cls-6" points="90.37 0 90.37 9.13 77.29 9.13 77.29 46.17 68.16 46.17 68.16 9.13 55.08 9.13 55.08 0 90.37 0"/><path class="cls-7" d="M284.79,0h26.32V9h-17v9.33h15.07V27H294.07V37.17h17v9H284.79ZM400,23.09c0,13.67-9.47,23.08-24.2,23.08H360.61V0H375.8C390.53,0,400,9.34,400,23.09Zm-8.53,0c0-9.44-5.87-15.32-15.3-15.32H369V38.26h7.15C385.75,38.26,391.47,32.59,391.47,23.09Zm-46.3,7.51-18.82-29L325.29,0h-8.07V46.17h9.1V17.69l0,.06V15.69l18.82,29,1,1.51h8.15V0h-9.13ZM266.8,14.33l-6.29,19.06-.14-.37L250.68,6.4,248.35,0h-9.13l16.71,45.92.09.25h9l.1-.25L280.87,0h-9.14Z"/></g></g></svg>