<svg width="400" height="80" viewBox="0 0 400 80" fill="none" xmlns="http://www.w3.org/2000/svg">
<path d="M37.31 26.51C36.91 34.49 30.64 35.35 25.19 35.35C23.67 35.35 22.21 35.3 1.35999 35.3C0.599985 35.3 0 34.69 0 33.94V1.51997C0 0.759974 0.609985 0.159988 1.35999 0.159988H5.69998H19.79C22.87 0.159988 29.08 -0.0400081 32.16 1.31999C35.8 3.08999 37.36 5.05998 37.36 9.14998C37.36 13.14 36.1 15.31 32.92 16.88C33.63 17.23 34.28 17.74 34.94 18.39C36.65 20.2 37.46 22.92 37.31 26.51ZM32.96 20.25C30.89 18.18 27.86 18.28 25.08 18.03C6.49999 18.03 0.0299914 18.13 2.70999 17.98V32.57H20.64H27.31C27.36 32.57 27.41 32.57 27.46 32.62C31.8 32.37 34.38 30.95 34.63 26.41C34.73 23.53 34.18 21.51 32.96 20.25ZM2.72 15.25C2.97 15 3.21999 15.4 27.11 15.4C28.47 15.4 29.74 15.3 31.1 14.74C33.78 13.58 34.68 12.32 34.68 9.12999C34.68 6.14999 33.67 4.83998 30.99 3.61998C30.18 3.21998 27.66 2.80998 21.4 2.80998H5.69998H2.72V15.25Z" fill="black"/>
<path d="M45.5898 34.08V1.66006C45.5898 0.900065 46.1498 0.300049 46.8998 0.300049C47.6498 0.300049 48.2599 0.910065 48.2599 1.66006V34.08C48.2599 34.84 47.6498 35.4401 46.8998 35.4401C46.1498 35.4401 45.5898 34.84 45.5898 34.08Z" fill="black"/>
<path d="M85.2299 0C85.9899 0 86.5899 0.609985 86.5899 1.35999C86.5899 2.11999 85.9799 2.66998 85.2299 2.66998H71.0399V33.77C71.0399 34.53 70.4799 35.13 69.7299 35.13C68.9799 35.13 68.3699 34.52 68.3699 33.77V2.66998H54.0299C53.2699 2.66998 52.6699 2.10999 52.6699 1.35999C52.6699 0.599985 53.2799 0 54.0299 0H85.2299Z" fill="black"/>
<path d="M100.53 35.2401C94.98 35.2401 90.48 30.7501 90.48 25.2401V10.1401C90.48 4.59008 94.97 0.0900879 100.53 0.0900879H117.8C123.3 0.0900879 127.8 4.58008 127.8 10.1401C127.8 10.9001 127.24 11.4501 126.49 11.4501C125.73 11.4501 125.13 10.8901 125.13 10.1401C125.13 6.10008 121.85 2.8201 117.81 2.8201H100.54C96.5 2.8201 93.22 6.10008 93.22 10.1401V25.2401C93.22 29.2801 96.5 32.5601 100.54 32.5601H117.81C121.85 32.5601 125.13 29.2801 125.13 25.2401C125.13 24.4801 125.74 23.9301 126.49 23.9301C127.25 23.9301 127.8 24.4801 127.8 25.2401C127.8 30.7401 123.31 35.2401 117.8 35.2401H100.53Z" fill="black"/>
<path d="M144.42 35.2899C138.92 35.2899 134.42 30.7999 134.42 25.2899V10.1499C134.42 4.6399 138.91 0.149902 144.42 0.149902H161.74C167.24 0.149902 171.74 4.6399 171.74 10.1499V25.2999C171.74 30.7999 167.25 35.2999 161.74 35.2999H144.42V35.2899ZM144.42 2.81992C140.33 2.81992 137.15 6.09989 137.15 10.1399V25.2899C137.15 29.3299 140.33 32.6099 144.42 32.6099H161.74C165.78 32.6099 169.06 29.3299 169.06 25.2899V10.1499C169.06 6.1099 165.78 2.8299 161.74 2.8299H144.42V2.81992Z" fill="black"/>
<path d="M179.46 34.08V1.66006C179.46 0.900065 180.02 0.300049 180.77 0.300049C181.53 0.300049 182.13 0.910065 182.13 1.66006V34.08C182.13 34.84 181.52 35.4401 180.77 35.4401C180.02 35.4501 179.46 34.84 179.46 34.08Z" fill="black"/>
<path d="M189.51 33.9799V3.82993C189.51 2.36993 190.32 1.09993 191.68 0.549927C193.04 -7.32541e-05 194.56 0.349943 195.57 1.40994L224.86 32.3599C225.21 32.7099 225.62 32.6099 225.77 32.5599C225.92 32.5099 226.28 32.3599 226.28 31.7999V1.54993C226.28 0.789927 226.89 0.189941 227.64 0.189941C228.4 0.189941 228.95 0.799927 228.95 1.54993V31.7999C228.95 33.2699 228.14 34.5299 226.78 35.0799C225.42 35.6399 223.9 35.2799 222.94 34.2199L193.6 3.26993C193.25 2.91993 192.84 3.01995 192.69 3.06995C192.54 3.11995 192.18 3.26993 192.18 3.82993V33.9799C192.18 34.7399 191.63 35.3399 190.87 35.3399C190.12 35.3399 189.51 34.7399 189.51 33.9799Z" fill="black"/>
<path d="M280.43 6.41992V14.6099H305.04C306.17 14.6099 307.09 15.5299 307.09 16.6599C307.09 17.7899 306.17 18.7099 305.04 18.7099H280.43V28.9599C280.43 30.7999 280.66 31.0299 282.5 31.0299H311.21C312.34 31.0299 313.26 31.9499 313.26 33.0799C313.26 34.1999 312.36 35.0799 311.21 35.0799H282.5C278.5 35.0799 276.39 32.9699 276.39 28.9699V6.42993C276.39 2.39993 278.5 0.26993 282.5 0.26993H311.21C312.34 0.26993 313.26 1.18995 313.26 2.31995C313.26 3.44995 312.34 4.36994 311.21 4.36994H282.5C280.67 4.34994 280.43 4.58992 280.43 6.41992ZM272.09 0.299929C271.6 0.0399293 271.05 -6.58855e-05 270.51 0.179934C270.01 0.349934 269.59 0.709944 269.33 1.18994L254.13 30.7799C254.12 30.8099 254.1 30.8299 254.09 30.8499C254.08 30.8399 254.08 30.8199 254.07 30.8099L238.8 1.16992C238.26 0.159924 237.03 -0.23005 236.05 0.28995C235.57 0.54995 235.22 0.969932 235.06 1.48993C234.9 2.00993 234.95 2.55994 235.2 3.02994L250.42 32.6999L250.43 32.7199C251.57 34.7799 253.03 35.2199 254.06 35.2199C255.09 35.2199 256.55 34.7899 257.7 32.6999L272.96 3.03995C273.21 2.57995 273.26 2.04993 273.11 1.54993C272.96 1.01993 272.59 0.569929 272.09 0.299929ZM354.29 0.359927C353.16 0.359927 352.24 1.27995 352.24 2.40995L352.2 31.0899L324.44 1.74994C323.26 0.509941 321.49 0.119921 319.92 0.759921C318.36 1.39992 317.39 2.85995 317.39 4.56995V33.1399C317.39 34.2699 318.31 35.1899 319.44 35.1899C320.56 35.1899 321.44 34.2899 321.44 33.1399L321.48 4.55994L349.28 33.8899C350.05 34.7499 351.12 35.1999 352.22 35.1999C352.73 35.1999 353.26 35.0999 353.76 34.8899C355.32 34.2499 356.29 32.7899 356.29 31.0799V2.40995C356.29 1.25995 355.41 0.359927 354.29 0.359927ZM389.76 0.209933H365.16C364.03 0.209933 363.11 1.12992 363.11 2.25992V33.0299C363.11 34.1499 364.01 35.0299 365.16 35.0299C366.31 35.0299 367.21 34.1499 367.21 33.0299V4.29993H389.76C393.17 4.29993 395.94 7.04994 395.94 10.4399V24.7999C395.94 28.2099 393.17 30.9799 389.76 30.9799H373.35C372.23 30.9799 371.35 31.8799 371.35 33.0299C371.35 34.1699 372.21 35.0299 373.35 35.0299H389.76C395.4 35.0299 399.99 30.4399 399.99 24.7999V10.4399C399.99 4.79994 395.4 0.209933 389.76 0.209933Z" fill="url(#paint0_linear)"/>
<path d="M85.6099 55.8101V57.4101C85.6099 57.5601 85.5299 57.6301 85.3599 57.6301H80.6599V73.4201C80.6599 73.5701 80.5799 73.6401 80.4099 73.6401H78.64C78.49 73.6401 78.4199 73.5701 78.4199 73.4201V57.6301H73.6899C73.5199 57.6301 73.4399 57.5501 73.4399 57.4101V55.8101C73.4399 55.6601 73.5199 55.5901 73.6899 55.5901H85.3699C85.5299 55.5901 85.6099 55.6601 85.6099 55.8101Z" fill="black"/>
<path d="M99.19 64.1301V73.4301C99.19 73.5801 99.12 73.6501 98.97 73.6501H97.18C97.03 73.6501 96.96 73.5801 96.96 73.4301V64.4701C96.96 63.2201 96.79 62.4 96.44 62.01C96.09 61.62 95.37 61.42 94.27 61.42C92.85 61.42 91.5 61.7101 90.21 62.2901V73.4301C90.21 73.5801 90.14 73.6501 89.99 73.6501H88.23C88.06 73.6501 87.98 73.5801 87.98 73.4301V54.2801C87.98 54.1301 88.06 54.0601 88.23 54.0601H89.99C90.14 54.0601 90.21 54.1301 90.21 54.2801V60.5201C91.59 59.7501 93.1 59.3701 94.75 59.3701C96.34 59.3701 97.47 59.74 98.17 60.48C98.85 61.21 99.19 62.4301 99.19 64.1301Z" fill="black"/>
<path d="M113.84 67.1201H104.94V69.1901C104.94 70.2001 105.17 70.8901 105.63 71.2801C106.09 71.6601 106.99 71.8501 108.33 71.8501H108.5C109.83 71.8501 110.72 71.6601 111.18 71.2901C111.64 70.9201 111.87 70.2401 111.87 69.2501V69.1901C111.87 69.0401 111.95 68.9701 112.12 68.9701H113.86C114.01 68.9701 114.08 69.0401 114.08 69.1901V69.2501C114.08 70.8601 113.65 72.0301 112.79 72.7601C111.93 73.5001 110.5 73.8701 108.5 73.8701H108.33C106.33 73.8701 104.9 73.5001 104.02 72.7501C103.14 72.0001 102.7 70.8201 102.7 69.1901V64.0101C102.7 62.3901 103.13 61.2101 104 60.4701C104.87 59.7301 106.31 59.3601 108.32 59.3601H108.49C110.49 59.3601 111.92 59.7301 112.78 60.4701C113.64 61.2101 114.07 62.3901 114.07 64.0101V66.8701C114.06 67.0401 113.98 67.1201 113.84 67.1201ZM104.93 64.0201V65.3401H111.85V64.0201C111.85 63.0301 111.62 62.3401 111.16 61.9601C110.7 61.5801 109.81 61.3901 108.48 61.3901H108.31C106.97 61.3901 106.07 61.5801 105.61 61.9601C105.16 62.3401 104.93 63.0301 104.93 64.0201Z" fill="black"/>
<path d="M134.28 67.1201H125.38V69.1901C125.38 70.2001 125.61 70.8901 126.07 71.2801C126.53 71.6601 127.43 71.8501 128.77 71.8501H128.94C130.27 71.8501 131.16 71.6601 131.62 71.2901C132.08 70.9201 132.31 70.2401 132.31 69.2501V69.1901C132.31 69.0401 132.39 68.9701 132.56 68.9701H134.3C134.45 68.9701 134.52 69.0401 134.52 69.1901V69.2501C134.52 70.8601 134.09 72.0301 133.23 72.7601C132.37 73.5001 130.94 73.8701 128.94 73.8701H128.77C126.77 73.8701 125.34 73.5001 124.46 72.7501C123.58 72.0001 123.14 70.8201 123.14 69.1901V64.0101C123.14 62.3901 123.57 61.2101 124.44 60.4701C125.31 59.7301 126.75 59.3601 128.76 59.3601H128.93C130.93 59.3601 132.36 59.7301 133.22 60.4701C134.08 61.2101 134.51 62.3901 134.51 64.0101V66.8701C134.5 67.0401 134.42 67.1201 134.28 67.1201ZM125.37 64.0201V65.3401H132.29V64.0201C132.29 63.0301 132.06 62.3401 131.6 61.9601C131.14 61.5801 130.25 61.3901 128.92 61.3901H128.75C127.41 61.3901 126.51 61.5801 126.05 61.9601C125.6 62.3401 125.37 63.0301 125.37 64.0201Z" fill="black"/>
<path d="M137.89 69.1401V60.1001C137.89 58.4401 138.35 57.2301 139.28 56.4901C140.2 55.7401 141.81 55.3701 144.11 55.3701H144.28C146.57 55.3701 148.18 55.7401 149.09 56.4801C150.01 57.2201 150.46 58.4301 150.46 60.1101V61.2001C150.46 61.3501 150.39 61.4201 150.24 61.4201H148.48C148.31 61.4201 148.23 61.3501 148.23 61.2001V60.1101C148.23 59.0601 147.97 58.3601 147.46 57.9801C146.95 57.6101 145.89 57.4201 144.28 57.4201H144.11C142.5 57.4201 141.44 57.6101 140.92 57.9801C140.4 58.3501 140.14 59.0601 140.14 60.1101V69.1501C140.14 70.2001 140.4 70.9001 140.92 71.2801C141.44 71.6501 142.51 71.8401 144.11 71.8401H144.28C145.89 71.8401 146.94 71.6501 147.46 71.2801C147.97 70.9101 148.23 70.2001 148.23 69.1501V68.0601C148.23 67.9101 148.31 67.8401 148.48 67.8401H150.24C150.39 67.8401 150.46 67.9201 150.46 68.0601V69.1501C150.46 70.8301 150 72.0401 149.09 72.7801C148.18 73.5201 146.57 73.8901 144.28 73.8901H144.11C141.81 73.8901 140.2 73.5201 139.28 72.7701C138.35 72.0001 137.89 70.8001 137.89 69.1401Z" fill="black"/>
<path d="M153.43 69.1901V64.0401C153.43 62.4201 153.87 61.2301 154.75 60.4801C155.63 59.7301 157.08 59.3601 159.12 59.3601H159.29C161.32 59.3601 162.77 59.7301 163.64 60.4701C164.51 61.2101 164.94 62.4001 164.94 64.0401V69.1901C164.94 70.8301 164.5 72.0201 163.64 72.7601C162.77 73.5001 161.32 73.8701 159.29 73.8701H159.12C157.08 73.8701 155.63 73.5001 154.75 72.7501C153.87 72.0001 153.43 70.8201 153.43 69.1901ZM159.11 71.8301H159.28C160.62 71.8301 161.53 71.6401 161.99 71.2601C162.46 70.8801 162.69 70.1901 162.69 69.2001V64.0501C162.69 63.0601 162.46 62.3701 161.99 61.9901C161.52 61.6101 160.62 61.4201 159.28 61.4201H159.11C157.75 61.4201 156.83 61.6101 156.37 61.9901C155.9 62.3701 155.67 63.0601 155.67 64.0501V69.2001C155.67 70.1901 155.9 70.8801 156.37 71.2601C156.83 71.6401 157.75 71.8301 159.11 71.8301Z" fill="black"/>
<path d="M179.8 64.1301V73.4301C179.8 73.5801 179.72 73.6501 179.58 73.6501H177.79C177.64 73.6501 177.57 73.5801 177.57 73.4301V64.4701C177.57 63.2201 177.4 62.4001 177.05 62.0101C176.7 61.6201 175.98 61.4201 174.88 61.4201C173.46 61.4201 172.11 61.7101 170.82 62.2901V73.4301C170.82 73.5801 170.74 73.6501 170.6 73.6501H168.84C168.67 73.6501 168.59 73.5801 168.59 73.4301V59.8201C168.59 59.6701 168.67 59.6001 168.84 59.6001H169.88C170.01 59.6001 170.1 59.6501 170.16 59.7401L170.66 60.5501C172.15 59.7701 173.72 59.3701 175.36 59.3701C176.95 59.3701 178.08 59.7401 178.78 60.4801C179.48 61.2201 179.8 62.4301 179.8 64.1301Z" fill="black"/>
<path d="M183.3 69.1901V64.0401C183.3 62.4201 183.74 61.2301 184.62 60.4801C185.5 59.7301 186.95 59.3601 188.99 59.3601H189.16C191.19 59.3601 192.64 59.7301 193.51 60.4701C194.38 61.2101 194.81 62.4001 194.81 64.0401V69.1901C194.81 70.8301 194.37 72.0201 193.51 72.7601C192.64 73.5001 191.19 73.8701 189.16 73.8701H188.99C186.95 73.8701 185.5 73.5001 184.62 72.7501C183.74 72.0001 183.3 70.8201 183.3 69.1901ZM188.99 71.8301H189.16C190.5 71.8301 191.41 71.6401 191.87 71.2601C192.34 70.8801 192.57 70.1901 192.57 69.2001V64.0501C192.57 63.0601 192.34 62.3701 191.87 61.9901C191.4 61.6101 190.5 61.4201 189.16 61.4201H188.99C187.63 61.4201 186.71 61.6101 186.25 61.9901C185.78 62.3701 185.55 63.0601 185.55 64.0501V69.2001C185.55 70.1901 185.78 70.8801 186.25 71.2601C186.71 71.6401 187.62 71.8301 188.99 71.8301Z" fill="black"/>
<path d="M217.71 64.1301V73.4301C217.71 73.5801 217.63 73.6501 217.46 73.6501H215.7C215.55 73.6501 215.48 73.5801 215.48 73.4301V64.4701C215.48 63.2601 215.32 62.4401 214.99 62.0301C214.66 61.6201 214 61.4101 213.02 61.4101C211.62 61.4101 210.32 61.7301 209.13 62.3601C209.22 62.9801 209.27 63.5601 209.27 64.1201V73.4201C209.27 73.5701 209.19 73.6401 209.02 73.6401H207.26C207.11 73.6401 207.04 73.5701 207.04 73.4201V64.4601C207.04 63.2501 206.88 62.4301 206.55 62.0201C206.22 61.6101 205.57 61.4001 204.58 61.4001C203.2 61.4001 201.91 61.7101 200.71 62.3201V73.4101C200.71 73.5601 200.64 73.6301 200.49 73.6301H198.73C198.56 73.6301 198.48 73.5601 198.48 73.4101V59.8001C198.48 59.6501 198.56 59.5801 198.73 59.5801H199.77C199.9 59.5801 199.99 59.6301 200.05 59.7201L200.58 60.5601C202 59.7601 203.49 59.3601 205.06 59.3601C206.74 59.3601 207.91 59.8601 208.56 60.8401C210.17 59.8501 211.82 59.3601 213.52 59.3601C214.99 59.3601 216.07 59.7301 216.74 60.4801C217.38 61.2301 217.71 62.4501 217.71 64.1301Z" fill="black"/>
<path d="M231.66 59.8401L224.69 79.1001C224.63 79.2301 224.54 79.3001 224.41 79.3001H222.62C222.53 79.3001 222.46 79.2701 222.42 79.2201C222.38 79.1601 222.38 79.1001 222.42 79.0201L224.38 73.7801L219.37 59.8401L219.34 59.7601C219.34 59.6501 219.41 59.5901 219.56 59.5901H221.41C221.56 59.5901 221.64 59.6501 221.66 59.7601L223.9 66.0601C224.29 67.2001 224.6 68.1501 224.82 68.9201C225.04 69.5501 225.28 70.4101 225.52 71.5001C225.88 69.9501 226.42 68.1301 227.14 66.0401L229.35 59.7701C229.39 59.6601 229.48 59.6001 229.63 59.6001H231.45C231.53 59.6001 231.59 59.6201 231.63 59.6701C231.69 59.7101 231.7 59.7701 231.66 59.8401Z" fill="black"/>
<path d="M250.19 57.6301H241.96V63.4801H249.35C249.5 63.4801 249.57 63.5601 249.57 63.7001V65.2701C249.57 65.4401 249.49 65.5201 249.35 65.5201H241.96V71.6001H250.19C250.34 71.6001 250.41 71.6801 250.41 71.8201V73.4201C250.41 73.5701 250.33 73.6401 250.19 73.6401H239.97C239.8 73.6401 239.72 73.5701 239.72 73.4201V55.8101C239.72 55.6601 239.8 55.5901 239.97 55.5901H250.19C250.34 55.5901 250.41 55.6601 250.41 55.8101V57.4101C250.42 57.5601 250.34 57.6301 250.19 57.6301Z" fill="black"/>
<path d="M264.11 59.8401L259.21 73.4801C259.17 73.5901 259.08 73.6501 258.93 73.6501H256.97C256.82 73.6501 256.73 73.5901 256.69 73.4801L251.79 59.8401L251.76 59.7601C251.76 59.6501 251.84 59.5901 251.98 59.5901H253.83C253.98 59.5901 254.07 59.6501 254.11 59.7601L256.29 66.0001L256.49 66.5901C257.14 68.5301 257.63 70.1701 257.95 71.5201C258.27 70.1801 258.75 68.5301 259.41 66.5901L259.61 66.0001L261.79 59.7601C261.83 59.6501 261.92 59.5901 262.07 59.5901H263.92C264.1 59.5901 264.16 59.6801 264.11 59.8401Z" fill="black"/>
<path d="M265.62 69.1901V64.0401C265.62 62.4201 266.06 61.2301 266.94 60.4801C267.82 59.7301 269.27 59.3601 271.31 59.3601H271.48C273.52 59.3601 274.97 59.7301 275.83 60.4701C276.7 61.2101 277.13 62.4001 277.13 64.0401V69.1901C277.13 70.8301 276.7 72.0201 275.83 72.7601C274.96 73.5001 273.51 73.8701 271.48 73.8701H271.31C269.27 73.8701 267.82 73.5001 266.94 72.7501C266.06 72.0001 265.62 70.8201 265.62 69.1901ZM271.31 71.8301H271.48C272.82 71.8301 273.73 71.6401 274.2 71.2601C274.67 70.8801 274.9 70.1901 274.9 69.2001V64.0501C274.9 63.0601 274.67 62.3701 274.2 61.9901C273.73 61.6101 272.83 61.4201 271.48 61.4201H271.31C269.95 61.4201 269.03 61.6101 268.57 61.9901C268.1 62.3701 267.87 63.0601 267.87 64.0501V69.2001C267.87 70.1901 268.1 70.8801 268.57 71.2601C269.03 71.6401 269.94 71.8301 271.31 71.8301Z" fill="black"/>
<path d="M280.77 73.42V54.2701C280.77 54.1201 280.85 54.05 281.02 54.05H282.78C282.93 54.05 283 54.1201 283 54.2701V73.42C283 73.57 282.93 73.64 282.78 73.64H281.02C280.85 73.65 280.77 73.57 280.77 73.42Z" fill="black"/>
<path d="M297.57 59.8401L292.67 73.4801C292.63 73.5901 292.54 73.6501 292.39 73.6501H290.43C290.28 73.6501 290.19 73.5901 290.15 73.4801L285.25 59.8401L285.22 59.7601C285.22 59.6501 285.29 59.5901 285.44 59.5901H287.29C287.44 59.5901 287.53 59.6501 287.57 59.7601L289.75 66.0001L289.95 66.5901C290.6 68.5301 291.09 70.1701 291.41 71.5201C291.73 70.1801 292.21 68.5301 292.87 66.5901L293.07 66.0001L295.25 59.7601C295.29 59.6501 295.38 59.5901 295.53 59.5901H297.38C297.56 59.5901 297.63 59.6801 297.57 59.8401Z" fill="black"/>
<path d="M310.23 67.1201H301.33V69.1901C301.33 70.2001 301.56 70.8901 302.02 71.2801C302.48 71.6601 303.38 71.8501 304.72 71.8501H304.89C306.21 71.8501 307.1 71.6601 307.56 71.2901C308.02 70.9201 308.25 70.2401 308.25 69.2501V69.1901C308.25 69.0401 308.33 68.9701 308.5 68.9701H310.24C310.39 68.9701 310.46 69.0401 310.46 69.1901V69.2501C310.46 70.8601 310.03 72.0301 309.17 72.7601C308.31 73.5001 306.88 73.8701 304.89 73.8701H304.72C302.72 73.8701 301.28 73.5001 300.41 72.7501C299.53 72.0001 299.09 70.8201 299.09 69.1901V64.0101C299.09 62.3901 299.52 61.2101 300.39 60.4701C301.26 59.7301 302.7 59.3601 304.72 59.3601H304.89C306.89 59.3601 308.31 59.7301 309.17 60.4701C310.03 61.2101 310.46 62.3901 310.46 64.0101V66.8701C310.45 67.0401 310.37 67.1201 310.23 67.1201ZM301.32 64.0201V65.3401H308.24V64.0201C308.24 63.0301 308.01 62.3401 307.55 61.9601C307.09 61.5801 306.2 61.3901 304.88 61.3901H304.71C303.37 61.3901 302.46 61.5801 302.01 61.9601C301.55 62.3401 301.32 63.0301 301.32 64.0201Z" fill="black"/>
<path d="M324.98 54.27V73.42C324.98 73.57 324.9 73.64 324.76 73.64H323.7C323.59 73.64 323.5 73.59 323.45 73.5L322.89 72.66C321.45 73.46 319.88 73.86 318.19 73.86C316.6 73.86 315.46 73.49 314.76 72.75C314.06 72.01 313.71 70.8 313.71 69.1V64.12C313.71 62.42 314.06 61.2 314.76 60.47C315.46 59.73 316.6 59.36 318.19 59.36C319.81 59.36 321.33 59.73 322.75 60.48V54.26C322.75 54.11 322.82 54.04 322.97 54.04H324.76C324.9 54.05 324.98 54.12 324.98 54.27ZM318.62 71.83C320.04 71.83 321.41 71.52 322.74 70.91V62.31C321.38 61.71 320 61.41 318.62 61.41C317.52 61.41 316.8 61.61 316.45 62C316.1 62.39 315.93 63.21 315.93 64.46V68.77C315.93 70 316.1 70.82 316.45 71.22C316.8 71.63 317.52 71.83 318.62 71.83Z" fill="black"/>
<defs>
<linearGradient id="paint0_linear" x1="292.44" y1="57.923" x2="342.444" y2="-28.6862" gradientUnits="userSpaceOnUse">
<stop stop-color="#3A0CA3"/>
<stop offset="1" stop-color="#3F37C9"/>
</linearGradient>
</defs>
</svg>
