<svg height="48" viewBox="0 0 187 48" width="187" xmlns="http://www.w3.org/2000/svg" xmlns:xlink="http://www.w3.org/1999/xlink"><linearGradient id="a"><stop offset="0" stop-color="#accbee"/><stop offset="1" stop-color="#e7f0fd"/></linearGradient><linearGradient id="b" x1="50%" x2="50%" xlink:href="#a" y1="100%" y2="0%"/><linearGradient id="c" x1="50%" x2="50%" xlink:href="#a" y1="113.131313%" y2="-13.131313%"/><linearGradient id="d" x1="49.999948%" x2="49.999948%" y1="100%" y2="-.000278%"><stop offset="0" stop-color="#6f86d6"/><stop offset="1" stop-color="#48c6ef"/></linearGradient><linearGradient id="e"><stop offset="0" stop-color="#2575fc"/><stop offset="1" stop-color="#6f86d6"/></linearGradient><linearGradient id="f" x1="-1.386598%" x2="101.706186%" xlink:href="#e" y1="49.997394%" y2="49.997394%"/><linearGradient id="g" x1="50%" x2="50%" xlink:href="#e" y1="99.819856%" y2="-.180866%"/><g fill="none" fill-rule="evenodd"><path d="m63.5379127 17.0057143c-1.4462216-7.50139536-7.7734409-13.2167442-15.456493-14.02046513-5.1521644-.44651163-10.3947176-.62511628-15.5468819-.62511628-5.1521644 0-10.3947176.17860465-15.5468819.62511628-7.68305208.89302326-13.91988261 6.51906977-15.45649302 14.02046513-.90388848 5.0902325-.90388848 10.2697674 0 15.36 1.53661041 7.5013953 7.77344094 13.1274418 15.45649302 14.0204651 5.1521643.4465116 10.3947175.6251163 15.5468819.6251163 5.1521643 0 10.3947175-.1786047 15.5468819-.6251163 7.6830521-.8037209 14.0102714-6.4297674 15.456493-14.0204651.9038885-5.0902326.9038885-10.2697675 0-15.36z" fill="url(#b)"/><path d="m63.5379127 17.0057143c-1.4462216-7.50139536-7.7734409-13.2167442-15.456493-14.02046513-5.1521644-.44651163-10.3947176-.62511628-15.5468819-.62511628-5.1521644 0-10.3947176.17860465-15.5468819.62511628-3.5251651.3572093-6.7791636 1.69674419-9.49082905 4.01860465l-.27116654.26790698c-1.98855466 2.23255814-3.34438738 5.0009302-3.88672047 7.947907-.90388848 5.0902325-.90388848 10.2697674 0 15.36 1.53661042 7.5013953 7.77344096 13.1274418 15.45649306 14.0204651 5.1521643.4465116 10.3947175.6251163 15.5468818.6251163 5.1521644 0 10.3947176-.1786047 15.5468819-.6251163 3.615554-.3572093 6.9599413-1.7860465 9.6716068-4.1972093 2.0789435-2.2325582 3.4347762-5.0902326 3.9771093-8.0372093.9038885-5.0902326.9038885-10.2697675 0-15.36z" fill="#fff"/><path d="m7.5872157 42.3675748c.90388848-2.2325582 1.53661042-4.5544187 1.80777696-6.9655814.90388844-7.1441861.90388844-14.2883721 0-21.4325582-.27116654-2.4111628-.90388848-4.73302324-1.80777696-6.96558138-3.16360968 2.50046512-5.24255319 6.07255818-5.96566398 10.00186048-.90388848 5.0902325-.90388848 10.2697674 0 15.36.72311079 3.9293023 2.8020543 7.5013953 5.96566398 10.0018605z" fill="url(#c)"/><g fill="#fff" transform="translate(8.491104 .574086)"><path d="m37.6017608 11.3413953h13.106383c-.6327219-3.03627902-1.4462216-6.07255809-2.4404989-9.01953483-.8134996-2.23255814-2.8020543-2.67906977-4.5194424-.98232559-2.8924431 2.85767442-6.6887748 7.23348838-6.1464417 10.00186042z"/><path d="m2.98283199 11.3413953h17.62582541c-.5423331-2.85767437-9.4004402-7.41209297-15.7276596-10.35906972-3.07322084-1.42883721-4.7002201.08930233-3.70594277 3.21488372.72311078 2.32186047 1.35583272 4.73302326 1.80777696 7.144186z"/></g><g fill="#e7f0fd" transform="translate(8.491104 1.46711)"><path d="m26.303155 38.4h9.038885v1.786047h-9.038885z"/><path d="m55.6795304 22.772093h-3.6155539v.8930233h3.6155539z"/><path d="m6.86955246 22.772093h-3.07322084v.8930233h3.07322084z"/><path d="m1.35583272 3.92930233c-.27116654.17860465-.54233309.3572093-.81349963.53581395 1.80777696 6.07255812 2.80205429 12.41302322 2.80205429 18.84279072 0 5.4474418-.72311078 10.8948837-2.07894351 16.2530232l.81349964.6251163c1.44622157-5.4474418 2.16933235-11.1627907 2.16933235-16.7888372 0-6.6976744-.99427733-13.2167442-2.89244314-19.46790697z"/><path d="m21.6933236 6.34046512c5.6944974-.35720931 11.298606-.44651163 16.9931034-.26790698-1.0846662-1.78604651-2.4404989-3.4827907-3.9771093-4.91162791-3.5251651-.17860465-7.0503302-.3572093-10.6658841-.3572093-2.2597212 0-4.5194424.08930233-6.7791636.08930233 1.807777 1.69674418 3.2539985 3.48279069 4.4290536 5.44744186z"/><path d="m52.6966985 14.2883721-2.1693324.1786046c.3615554.535814.6327219 1.071628.8134996 1.6074419h.4519443c1.0846662-.0893023 2.1693323-.4465116 3.0732208-1.0716279-.0903888-.4465116-.1807777-.8930233-.3615554-1.2502326-.5423331.267907-1.175055.4465117-1.8077769.535814z"/></g><path d="m60.0127476 18.5238538c-.8134996-3.4827907-3.7059428-6.1618604-7.3214967-6.6083721-9.8523844-.8037209-19.7047689-.8037209-29.5571533 0-3.6155539.4465117-6.5079971 3.1255814-7.3214967 6.6083721-.7231108 4.107907-.7231108 8.3051163 0 12.323721.8134996 3.4827906 3.7059428 6.1618604 7.3214967 6.608372 1.2654439.0893024 2.6212766.1786047 3.8867204.267907v5.7153489l5.5137198-5.4474419c6.6887747.1786046 13.3775495 0 20.0663243-.535814 3.6155539-.4465116 6.507997-3.1255814 7.3214967-6.608372.8134996-4.107907.8134996-8.215814.0903888-12.323721z" fill="url(#d)"/><g transform="translate(15.722212 11.290365)"><path d="m37.0594277.62511628c-9.8523844-.80372093-19.7047689-.80372093-29.55715331 0-3.43477622.44651163-6.32721936 2.94697674-7.23110785 6.25116279h29.73793106c4.7906089 0 9.490829-.17860465 14.1006603-.62511628-1.0846662-3.03627907-3.8867205-5.17953488-7.0503302-5.62604651z" fill="url(#f)" opacity=".6"/><path d="m44.2905356 19.5572093c.7231108-4.107907.7231108-8.3051163 0-12.32372093-.632722-2.85767442-2.7116655-5.17953488-5.5137198-6.16186046 1.8981659 1.42883721 3.2539986 3.57209302 3.7059428 5.89395349.7231108 4.2865116.7231108 8.6623256 0 12.9488372-.4519442 2.3218605-1.8077769 4.4651163-3.7059428 5.8939535 2.8020543-1.0716279 4.8809978-3.3934884 5.5137198-6.2511628z" fill="url(#g)" opacity=".6"/><path d="m44.8328687 12.9488372h-1.807777v.8930233h1.807777z" fill="#131d28" opacity=".4"/></g><path d="m56.6683602 8.07548173c-9.8523844-.80372093-19.7047689-.80372093-29.5571533 0-2.0789435.08930232-3.7963316 1.78604651-3.8867205 3.83999997 2.6212766 2.0539535 5.8752752 3.6613954 8.4061629 3.84 9.8523844.803721 19.7047689.803721 29.5571533 0 1.6269993-.0893023 2.982832-1.0716279 3.615554-2.5004651.2711665-.8037209 0-1.6074418-.632722-2.0539535-2.2597212-1.69674416-4.7906089-2.67906974-7.5022744-3.12558137z" fill="#fff"/><g fill="#fff"><ellipse cx="36.150092" cy="30.936877" rx="1.355833" ry="1.339535"/><ellipse cx="39.313701" cy="34.062459" rx="1.355833" ry="1.339535"/><ellipse cx="42.477311" cy="30.936877" rx="1.355833" ry="1.339535"/><ellipse cx="39.313701" cy="27.811296" rx="1.355833" ry="1.339535"/></g><g fill="#131d28"><ellipse cx="47.900642" cy="24.685715" rx="2.711665" ry="5.35814"/><ellipse cx="30.726761" cy="24.685715" rx="2.711665" ry="5.35814"/></g><path d="m82 24.361996c0-7.6044164 3.3204022-11.718281 9.4600137-11.718281 2.1927185 0 3.9468932.4986502 5.5757697 1.6206133.626491.436319.8144383 1.2466256.3758946 1.8699385l-.626491.9349692c-.3758945.6233128-1.2529819.8103067-1.8794729.436319-1.0650346-.6856441-2.1927184-.9973006-3.3830513-.9973006-3.5083494 0-5.1998751 2.6179139-5.1998751 7.7914103s1.7541748 7.7914102 5.1998751 7.7914102c1.4409293 0 2.6939112-.436319 3.9468932-1.3712882.626491-.436319 1.4409292-.3739877 1.942122.2493251l.6891401.872638c.4385437.5609815.3758946 1.3712882-.1879473 1.8699385-1.8794729 1.558282-3.821595 2.2439261-6.390208 2.2439261-6.2022606.1246626-9.5226628-3.989202-9.5226628-11.5936184zm21.340724-14.361996h1.41223c.770307 0 1.412229.6492688 1.412229 1.4283913v7.986006c1.540615-.9739031 3.081229-1.4283913 4.81442-1.4283913 3.979919 0 6.226648 2.4022945 6.226648 6.6225416v9.609178c0 .7791225-.641922 1.4283913-1.412229 1.4283913h-1.41223c-.770307 0-1.412229-.6492688-1.412229-1.4283913v-8.9599092c0-2.4672214-.8345-3.3761977-3.081229-3.3761977-1.027076 0-1.925767.1947806-2.824459.5843419-.513538.1947807-.834499.7141957-.834499 1.2985376v10.4532274c0 .7791225-.641923 1.4283913-1.41223 1.4283913h-1.41223c-.770307 0-1.412229-.6492688-1.412229-1.4283913v-22.7893343c-.064193-.7791225.57773-1.4283913 1.348037-1.4283913zm25.246186 8.1601281c5.330801 0 7.700047 2.0756749 7.634234 6.541521v9.8122815c0 .3773954-.329062.6918916-.723936.6918916h-1.447872c-.987185 0-1.513684-.6289924-1.974371-1.8869772-.789748 1.320884-3.290618 2.3272719-5.528239 2.3272719-4.211991 0-6.712861-2.0127757-6.712861-5.4093347 0-3.2707605 2.303432-5.0319392 6.647049-5.0319392h5.462426v-.3144962c0-2.3901711-1.052998-3.2707605-3.817117-3.2707605-1.579497 0-3.158994.3144962-4.606866.8805894-.789748.3144962-1.711121 0-1.974371-.7547909l-.263249-.6918916c-.26325-.6918917.065812-1.5095818.789748-1.7611788 1.974371-.7547909 4.146179-1.1321863 6.515425-1.1321863zm3.35643 12.5798481v-1.5724811c0-.3773954-.329062-.6918916-.723936-.6918916h-4.343616c-1.842746 0-2.632495.5660932-2.632495 1.7611787 0 1.3208841 1.052998 2.0127757 3.290619 2.0127757 1.447872 0 2.764119-.3144962 4.014554-.8805893.26325-.1257985.394874-.3773955.394874-.6289924zm7.875124-1.6313964v-6.40935c0-.384561 0-4.8070125 0-5.1915735v-3.2046751c0-.5768415.330831-1.0895895.86016-1.28187l1.455655-.5768415c.926326-.384561 2.051151.256374 2.051151 1.28187v3.7815166c0 .384561.33083.7050285.727827.7050285h4.178479c.396997 0 .797672.3204675.797672.7050285v2.3714595c0 .384561-.400675.7050285-.797672.7050285h-4.178479c-.396997 0-.727827.3204675-.727827.7050285v5.768415c0 2.4355531.860159 3.3328621 3.175975 3.3328621.297221 0 .630967-.0213683 1.001238-.0641048l.000003.0000222c.751483-.0867359 1.430993.452148 1.517729 1.2036309.006017.0521335.009033.1045697.009033.1570492l.000005.984894c0 .654571-.463129 1.2176649-1.105395 1.3439903-.746119.1467521-1.529099.2201282-2.34894.2201282-3.572971-.0640935-6.616614-3.0123945-6.616614-6.5375371zm35.54149-2.0487846-5.654344-7.3625216c-.332608-.4601576 0-1.1832624.598695-1.1832624h3.326085c.465652 0 .864782.1972104 1.130868.5916312l3.725215 4.8645232 3.592171-4.7987864c.266087-.3944208.731739-.5916312 1.197391-.5916312h2.79391c.598696 0 .931304.657368.598696 1.1175256l-5.654344 7.4939952 5.853909 7.6254688c.332608.4601576 0 1.1832624-.598696 1.1832624h-3.326084c-.465652 0-.864782-.1972104-1.130869-.5916312l-3.924779-5.1274704-3.725215 5.0617336c-.266087.3944208-.731738.5916312-1.19739.5916312h-2.793911c-.598695 0-.931304-.657368-.598695-1.1175256zm-6.921245.1343112c0 .7547908-.658147 1.3837832-1.447922 1.4466825h-10.267082c.065814 1.7611787 1.316292 3.5223574 4.607024 3.5223574 1.908624 0 2.830029-.5660931 4.014692-1.5095817.592332-.5031939 1.579551-.3773955 2.040253.2515969l.723961.9434886c.526517.5660932.394888 1.3837833-.197444 1.8869773-1.974438 1.572481-4.014692 2.2643726-6.713092 2.2643726-1.776995 0-3.356546-.4402947-4.738653-1.0692871s-2.435141-1.572481-3.224917-2.8304658c-.789775-1.2579848-1.184663-2.893365-1.184663-4.7803423 0-2.893365.789776-5.0319392 2.303512-6.5415209 1.513736-1.5095818 3.55399-2.2643727 6.12076-2.2643727 2.435142 0 4.343766.6289924 5.791688 1.9498765 1.447922 1.320884 2.171883 3.2078612 2.171883 5.5980323zm-11.715004-1.7611788h7.634497c0-1.320884-.921405-3.5223574-3.751434-3.5223574-3.224917 0-3.751434 2.0127757-3.883063 3.5223574z" fill="rgba(116,120,149,0.78)"/></g></svg>