<svg width="251" height="113" viewBox="0 0 251 113" fill="none" xmlns="http://www.w3.org/2000/svg">
<g clip-path="url(#clip0_101_26)">
<path d="M250.077 88.987H241.6V59.9488H250.077V88.987Z" fill="white"/>
<path d="M33.6991 0L34.794 0.385059C35.1335 3.56225 37.0497 5.84706 39.2834 7.91288C42.6394 11.0153 46.5539 13.2855 50.68 15.1597C52.9703 16.1999 55.4358 16.8441 57.768 17.7985C60.1404 18.7675 62.5749 19.6691 64.7228 21.014C67.608 22.8207 68.6154 25.6712 67.9402 28.7462C66.9839 28.3612 66.1153 28.1988 66.1445 26.7133C66.1864 24.7277 64.9309 23.1802 63.2483 22.3334C60.861 21.1294 58.3853 20.1093 55.8427 19.2822C49.0358 17.0813 42.9022 13.7417 37.5807 8.95674C35.858 7.4092 34.3707 5.61895 33.5878 3.40896C33.2137 2.33773 33.1826 1.14058 32.9965 0H33.6991Z" fill="white"/>
<path d="M250.077 56.4358C247.938 56.3981 245.799 56.3604 243.66 56.3227C243.005 56.3118 242.35 56.3227 241.611 56.3227V49.638H250.077V56.4285V56.4358Z" fill="white"/>
<path d="M0 97.5204C4.34515 87.2315 8.6246 77.0922 12.9059 66.9547L13.0683 66.9876C13.1595 68.6008 13.1632 70.225 13.3548 71.8254C14.0848 77.8477 16.3313 83.0487 21.5524 86.5471C27.3009 90.3959 36.6427 90.186 41.7726 85.4522C41.9948 85.276 42.227 85.1127 42.4679 84.9631V88.1877H50.2694V66.5003H33.1315V73.9442H41.8419C41.5554 79.3022 36.9748 81.5359 32.8487 81.2056C27.5564 80.7804 24.6803 78.1342 23.589 72.8967C22.859 69.36 22.8316 65.8415 24.0708 62.4052C25.3099 58.9688 27.5108 56.5782 31.261 55.965C35.4017 55.288 38.9019 56.3793 41.4806 59.8448C41.8054 60.281 42.1266 60.7208 42.539 61.2792L49.9336 56.8446C44.8457 47.9116 29.3028 43.3019 18.7967 53.0543L27.8465 31.5439C31.657 30.5438 35.5003 29.5456 39.3436 28.5273C43.2653 27.4889 47.178 26.4158 51.107 25.4012C51.6332 25.288 52.1783 25.2974 52.7002 25.4285C56.0745 26.2096 59.4378 27.0345 62.8048 27.8447L63.1023 27.6221C62.7227 26.9122 62.4307 26.1366 61.9471 25.5052C60.7372 23.9284 59.0072 23.0543 57.1603 22.5196C55.1821 21.9448 53.1546 21.5268 51.1381 21.1272C43.7982 19.6818 36.9748 17.0248 30.9325 12.6322C29.113 11.3146 27.6695 9.42941 26.2151 7.66471C25.611 6.93474 25.4285 5.86169 24.9851 4.76855H27.0417C27.9122 7.77238 30.1313 9.76703 32.6078 11.5208C37.0861 14.6852 42.1248 16.6871 47.3331 18.2256C49.8989 18.9847 52.6254 19.2055 55.1931 19.9465C57.3488 20.5901 59.4386 21.4371 61.4343 22.4758C63.022 23.2861 64.1042 24.7278 64.7082 26.456C64.9345 27.1038 65.0385 27.5984 64.5075 28.3192C63.7392 29.3612 63.4125 30.7135 62.8012 31.8906C62.5073 32.4669 62.1066 32.9821 61.6204 33.4089C60.2299 34.6043 60.2773 36.2321 61.8413 37.1829C63.2355 38.0296 64.6754 37.9749 66.0514 37.1263C67.2321 36.3963 67.4712 35.2266 66.847 33.9783C66.6864 33.6571 66.7613 33.2173 66.7302 32.8323C66.7365 32.7935 66.7502 32.7564 66.7704 32.7228L68.3416 29.2244C70.4878 29.7268 72.6381 30.2299 74.7928 30.7336C75.5519 30.9161 76.3293 31.0256 77.0684 31.261C77.5037 31.3949 77.8984 31.6358 78.2163 31.9618C82.7336 36.8684 87.2302 41.7957 91.7062 46.7437C91.9069 46.9663 91.9708 47.4992 91.8558 47.793C91.2536 49.346 90.5784 50.868 89.9853 52.4849C94.6169 48.9719 99.8563 48.2693 105.393 48.9153C110.968 49.565 115.525 52.2257 119.56 56.1475C117.127 57.8867 114.753 59.582 112.308 61.3321C111.886 60.9452 111.497 60.5802 111.1 60.2262C107.997 57.4742 104.457 55.996 100.274 56.6932C99.2077 56.9001 98.2123 57.3777 97.3835 58.0801C95.3524 59.7955 95.8159 62.5731 98.296 63.5111C99.6227 64.0111 101.099 64.117 102.512 64.3852C105.649 64.982 108.829 65.4072 111.921 66.1882C119.266 68.0478 122.21 75.2673 118.554 82.1837C117.075 85.0741 114.519 87.2676 111.437 88.2917C104.57 90.6349 97.7266 90.5948 91.031 87.5964C88.237 86.3446 85.9741 84.3955 84.0689 81.8297L91.5383 77.1451C93.2336 78.97 95.1881 80.3351 97.5186 81.1289C100.267 82.0651 103.072 82.5031 105.902 81.7001C107.022 81.381 108.061 80.8281 108.952 80.0778C110.959 78.3459 110.547 75.6669 108.078 74.7362C106.393 74.092 104.543 73.8931 102.754 73.5445C99.8928 72.9733 96.9547 72.6631 94.1771 71.8309C89.4323 70.4093 86.3829 67.3672 86.2423 62.0785C86.2423 62.0092 86.1803 61.9416 86.0471 61.6697C84.7003 64.805 83.4101 67.8051 82.0322 71.0334L81.5012 69.0497C79.7949 62.7355 75.0866 58.8301 68.5588 58.3666C65.9492 58.1841 63.3505 58.2078 60.7956 58.9688C55.2861 60.6113 51.5268 65.0531 50.8242 70.7542C50.4756 73.5755 50.565 76.3659 51.3717 79.0923C53.1418 85.058 57.4505 88.0071 63.3468 88.9651C67.3836 89.661 71.5371 89.0094 75.1669 87.111C75.0099 87.6092 74.9388 87.9176 74.8183 88.206C71.4531 96.1833 68.0904 104.161 64.7301 112.138C64.3925 112.945 64.0439 113.116 63.1643 112.901C48.8873 109.386 34.6042 105.899 20.3151 102.439C14.103 100.926 7.8922 99.4055 1.68258 97.8763C1.19898 97.7595 0.706246 97.6755 0.00912463 97.535L0 97.5204Z" fill="white"/>
<path d="M190.438 74.5555C190.482 76.521 190.705 78.2802 191.329 79.9683C192.106 82.0742 193.811 83.2531 196.088 83.3498C198.337 83.452 199.868 82.2366 200.833 80.3296C202.685 76.6414 202.731 72.8109 201.298 69.0023C200.508 66.9036 198.944 65.4455 196.581 65.3688C194.179 65.2904 192.427 66.597 191.572 68.7377C190.862 70.5972 190.481 72.5656 190.444 74.5555H190.438ZM190.719 87.2461V98.9931H182.033V60.009H189.597C189.639 60.7062 189.686 61.469 189.734 62.2281C189.816 62.2409 189.916 62.2884 189.957 62.2573C197.035 56.4176 206.793 59.2298 209.567 68.0022C211.18 73.112 210.929 78.1908 208.573 83.036C205.487 89.3812 198.338 91.5273 192.194 88.0636C191.765 87.8227 191.334 87.5873 190.719 87.2461Z" fill="white"/>
<path d="M219.832 74.4935C219.75 76.5264 220.243 78.397 220.927 80.1507C221.697 82.1582 223.387 83.2531 225.566 83.3571C227.745 83.4612 229.287 82.337 230.262 80.4701C232.22 76.7199 232.251 72.82 230.773 68.9402C229.974 66.8397 228.379 65.4163 226.013 65.3725C223.648 65.3287 221.94 66.6171 221.097 68.7103C220.354 70.5535 219.842 72.6722 219.842 74.5008L219.832 74.4935ZM220.207 87.2296V98.9913H211.551V59.978H219.115C219.157 60.7573 219.197 61.5128 219.25 62.4873C220.867 60.8357 222.643 59.8649 224.725 59.4762C231.399 58.2297 237.1 61.5858 239.102 68.0789C240.666 73.1522 240.379 78.1707 238.113 83.0086C234.607 90.4689 226.187 90.8649 221.634 88.0308C221.247 87.7881 220.838 87.58 220.212 87.2296H220.207Z" fill="white"/>
<path d="M147.939 88.9578H139.424C139.424 88.487 139.424 88.0454 139.424 87.5983C139.397 82.2932 139.386 76.9881 139.329 71.6831C139.317 70.9044 139.194 70.1314 138.964 69.3873C138.397 67.5314 136.913 66.4674 135.046 66.4674C133.075 66.4674 131.336 67.5879 130.938 69.4676C130.603 71.1846 130.435 72.9302 130.438 74.6796C130.375 79.3952 130.418 84.1108 130.418 88.9049H121.879V49.7219H130.38V62.8815C130.913 62.4015 131.201 62.1314 131.502 61.8741C134.515 59.2955 137.968 58.5162 141.773 59.5236C145.739 60.5729 147.949 63.8049 147.978 68.5004C148.007 75.0555 147.978 81.6107 147.978 88.1658C147.978 88.3939 147.958 88.622 147.943 88.9578H147.939Z" fill="white"/>
<path d="M158.232 74.1084C158.34 75.8312 158.533 77.3057 159.04 78.7547C160.002 81.4921 162.3 82.952 165.265 82.952C168.176 82.952 170.351 81.514 171.384 78.7729C172.518 75.7691 172.43 72.7197 171.26 69.7633C170.176 67.0259 167.963 65.8214 165.09 65.8178C162.406 65.8178 160.276 66.8872 159.25 69.4585C158.654 70.9495 158.44 72.5956 158.239 74.1048L158.232 74.1084ZM165.156 58.8265C166.924 59.0893 168.731 59.2024 170.448 59.6441C176.653 61.239 180.757 66.7613 180.85 73.6832C180.891 75.5128 180.696 77.3399 180.27 79.1197C178.963 84.2988 175.68 87.7224 170.512 89.1769C166.31 90.391 161.817 90.1164 157.794 88.3994C154.206 86.9103 151.777 84.3116 150.5 80.6344C149.288 77.1882 149.109 73.463 149.985 69.9166C151.681 62.8742 157.394 58.7991 165.148 58.8265H165.156Z" fill="white"/>
<path d="M73.2689 73.7726C73.1175 75.2818 73.0062 76.6925 72.5499 77.99C71.601 80.7128 69.4019 82.2019 66.5934 82.2275C63.5603 82.253 61.3212 80.8624 60.27 78.1451C59.0364 74.9552 59.0236 71.7579 60.4835 68.6099C61.6168 66.1754 63.6698 65.1316 66.2393 65.1425C69.0351 65.1425 71.3072 66.2612 72.3474 68.9931C72.9332 70.5334 73.0883 72.0408 73.2689 73.7799V73.7726Z" fill="white"/>
<path d="M64.8907 34.8834C64.2848 34.6699 63.9217 34.5349 63.553 34.4126C62.7282 34.1389 62.4581 33.721 62.9161 32.8505C63.5603 31.6132 64.0841 30.312 64.6334 29.0181C65.2082 27.6768 66.0368 28.5947 66.7576 28.7791C67.5496 28.9798 67.796 29.4178 67.3799 30.239C66.7302 31.5165 66.2083 32.8614 65.5805 34.1535C65.4309 34.4655 65.0841 34.6827 64.8907 34.8834Z" fill="white"/>
</g>
<defs>
<clipPath id="clip0_101_26">
<rect width="250.077" height="112.974" fill="white"/>
</clipPath>
</defs>
</svg>
