<svg width="1371" height="620" viewBox="0 0 1371 620" fill="none" xmlns="http://www.w3.org/2000/svg">
<path d="M1370.34 487.62H1323.89V328.5H1370.34V487.62Z" fill="#EF6600"/>
<path d="M184.66 0L190.66 2.11C192.52 19.52 203.02 32.04 215.26 43.36C233.65 60.36 255.1 72.8 277.71 83.07C290.26 88.77 303.77 92.3 316.55 97.53C329.55 102.84 342.89 107.78 354.66 115.15C370.47 125.05 375.99 140.67 372.29 157.52C367.05 155.41 362.29 154.52 362.45 146.38C362.68 135.5 355.8 127.02 346.58 122.38C333.499 115.782 319.932 110.192 306 105.66C268.7 93.6 235.09 75.3 205.93 49.08C196.49 40.6 188.34 30.79 184.05 18.68C182 12.81 181.83 6.25 180.81 0H184.66Z" fill="#EF6600"/>
<path d="M1370.34 309.25C1358.62 309.043 1346.9 308.837 1335.18 308.63C1331.59 308.57 1328 308.63 1323.95 308.63V272H1370.34V309.21V309.25Z" fill="#EF6600"/>
<path d="M0 534.38C23.81 478 47.26 422.44 70.72 366.89L71.61 367.07C72.11 375.91 72.13 384.81 73.18 393.58C77.18 426.58 89.49 455.08 118.1 474.25C149.6 495.34 200.79 494.19 228.9 468.25C230.118 467.285 231.39 466.39 232.71 465.57V483.24H275.46V364.4H181.55V405.19H229.28C227.71 434.55 202.61 446.79 180 444.98C151 442.65 135.24 428.15 129.26 399.45C125.26 380.07 125.11 360.79 131.9 341.96C138.69 323.13 150.75 310.03 171.3 306.67C193.99 302.96 213.17 308.94 227.3 327.93C229.08 330.32 230.84 332.73 233.1 335.79L273.62 311.49C245.74 262.54 160.57 237.28 103 290.72L152.59 172.85C173.47 167.37 194.53 161.9 215.59 156.32C237.08 150.63 258.52 144.75 280.05 139.19C282.933 138.57 285.92 138.621 288.78 139.34C307.27 143.62 325.7 148.14 344.15 152.58L345.78 151.36C343.7 147.47 342.1 143.22 339.45 139.76C332.82 131.12 323.34 126.33 313.22 123.4C302.38 120.25 291.27 117.96 280.22 115.77C240 107.85 202.61 93.2899 169.5 69.2199C159.53 61.9999 151.62 51.6699 143.65 41.9999C140.34 37.9999 139.34 32.1199 136.91 26.1299H148.18C152.95 42.5899 165.11 53.5199 178.68 63.1299C203.22 80.4699 230.83 91.4399 259.37 99.8699C273.43 104.03 288.37 105.24 302.44 109.3C314.253 112.827 325.704 117.468 336.64 123.16C345.34 127.6 351.27 135.5 354.58 144.97C355.82 148.52 356.39 151.23 353.48 155.18C349.27 160.89 347.48 168.3 344.13 174.75C342.519 177.908 340.324 180.731 337.66 183.07C330.04 189.62 330.3 198.54 338.87 203.75C346.51 208.39 354.4 208.09 361.94 203.44C368.41 199.44 369.72 193.03 366.3 186.19C365.42 184.43 365.83 182.02 365.66 179.91C365.695 179.698 365.769 179.494 365.88 179.31L374.49 160.14C386.25 162.893 398.033 165.65 409.84 168.41C414 169.41 418.26 170.01 422.31 171.3C424.695 172.033 426.858 173.354 428.6 175.14C453.353 202.027 477.993 229.027 502.52 256.14C503.62 257.36 503.97 260.28 503.34 261.89C500.04 270.4 496.34 278.74 493.09 287.6C518.47 268.35 547.18 264.5 577.52 268.04C608.07 271.6 633.04 286.18 655.15 307.67C641.82 317.2 628.81 326.49 615.41 336.08C613.1 333.96 610.97 331.96 608.79 330.02C591.79 314.94 572.39 306.84 549.47 310.66C543.626 311.794 538.171 314.411 533.63 318.26C522.5 327.66 525.04 342.88 538.63 348.02C545.9 350.76 553.99 351.34 561.73 352.81C578.92 356.08 596.35 358.41 613.29 362.69C653.54 372.88 669.67 412.44 649.64 450.34C641.531 466.178 627.525 478.198 610.64 483.81C573.01 496.65 535.51 496.43 498.82 480C483.51 473.14 471.11 462.46 460.67 448.4L501.6 422.73C510.89 432.73 521.6 440.21 534.37 444.56C549.43 449.69 564.8 452.09 580.31 447.69C586.446 445.941 592.141 442.911 597.02 438.8C608.02 429.31 605.76 414.63 592.23 409.53C583 406 572.86 404.91 563.06 403C547.38 399.87 531.28 398.17 516.06 393.61C490.06 385.82 473.35 369.15 472.58 340.17C472.58 339.79 472.24 339.42 471.51 337.93C464.13 355.11 457.06 371.55 449.51 389.24L446.6 378.37C437.25 343.77 411.45 322.37 375.68 319.83C361.38 318.83 347.14 318.96 333.14 323.13C302.95 332.13 282.35 356.47 278.5 387.71C276.59 403.17 277.08 418.46 281.5 433.4C291.2 466.09 314.81 482.25 347.12 487.5C369.24 491.313 392 487.743 411.89 477.34C411.03 480.07 410.64 481.76 409.98 483.34C391.54 527.053 373.113 570.767 354.7 614.48C352.85 618.9 350.94 619.84 346.12 618.66C267.887 599.4 189.62 580.29 111.32 561.33C77.28 553.043 43.2467 544.71 9.22 536.33C6.57 535.69 3.87 535.23 0.05 534.46L0 534.38Z" fill="#EF6600"/>
<path d="M1043.54 408.54C1043.78 419.31 1045 428.95 1048.42 438.2C1052.68 449.74 1062.02 456.2 1074.5 456.73C1086.82 457.29 1095.21 450.63 1100.5 440.18C1110.65 419.97 1110.9 398.98 1103.05 378.11C1098.72 366.61 1090.15 358.62 1077.2 358.2C1064.04 357.77 1054.44 364.93 1049.75 376.66C1045.86 386.85 1043.77 397.636 1043.57 408.54H1043.54ZM1045.08 478.08V542.45H997.48V328.83H1038.93C1039.16 332.65 1039.42 336.83 1039.68 340.99C1040.13 341.06 1040.68 341.32 1040.9 341.15C1079.69 309.15 1133.16 324.56 1148.36 372.63C1157.2 400.63 1155.82 428.46 1142.91 455.01C1126 489.78 1086.83 501.54 1053.16 482.56C1050.81 481.24 1048.45 479.95 1045.08 478.08Z" fill="#EF6600"/>
<path d="M1204.61 408.2C1204.16 419.34 1206.86 429.59 1210.61 439.2C1214.83 450.2 1224.09 456.2 1236.03 456.77C1247.97 457.34 1256.42 451.18 1261.76 440.95C1272.49 420.4 1272.66 399.03 1264.56 377.77C1260.18 366.26 1251.44 358.46 1238.48 358.22C1225.52 357.98 1216.16 365.04 1211.54 376.51C1207.47 386.61 1204.66 398.22 1204.66 408.24L1204.61 408.2ZM1206.66 477.99V542.44H1159.23V328.66H1200.68C1200.91 332.93 1201.13 337.07 1201.42 342.41C1210.28 333.36 1220.01 328.04 1231.42 325.91C1267.99 319.08 1299.23 337.47 1310.2 373.05C1318.77 400.85 1317.2 428.35 1304.78 454.86C1285.57 495.74 1239.43 497.91 1214.48 482.38C1212.36 481.05 1210.12 479.91 1206.69 477.99H1206.66Z" fill="#EF6600"/>
<path d="M810.66 487.46H764C764 484.88 764 482.46 764 480.01C763.85 450.94 763.79 421.87 763.48 392.8C763.413 388.533 762.74 384.297 761.48 380.22C758.37 370.05 750.24 364.22 740.01 364.22C729.21 364.22 719.68 370.36 717.5 380.66C715.66 390.068 714.743 399.634 714.76 409.22C714.41 435.06 714.65 460.9 714.65 487.17H667.86V272.46H714.44V344.57C717.36 341.94 718.94 340.46 720.59 339.05C737.1 324.92 756.02 320.65 776.87 326.17C798.6 331.92 810.71 349.63 810.87 375.36C811.03 411.28 810.87 447.2 810.87 483.12C810.87 484.37 810.76 485.62 810.68 487.46H810.66Z" fill="#EF6600"/>
<path d="M867.06 406.09C867.65 415.53 868.71 423.61 871.49 431.55C876.76 446.55 889.35 454.55 905.6 454.55C921.55 454.55 933.47 446.67 939.13 431.65C945.34 415.19 944.86 398.48 938.45 382.28C932.51 367.28 920.38 360.68 904.64 360.66C889.93 360.66 878.26 366.52 872.64 380.61C869.37 388.78 868.2 397.8 867.1 406.07L867.06 406.09ZM905 322.35C914.69 323.79 924.59 324.41 934 326.83C968 335.57 990.49 365.83 991 403.76C991.223 413.786 990.154 423.798 987.82 433.55C980.66 461.93 962.67 480.69 934.35 488.66C911.323 495.313 886.705 493.809 864.66 484.4C845 476.24 831.69 462 824.69 441.85C818.049 422.966 817.068 402.554 821.87 383.12C831.16 344.53 862.47 322.2 904.96 322.35H905Z" fill="#EF6600"/>
<path d="M401.49 404.25C400.66 412.52 400.05 420.25 397.55 427.36C392.35 442.28 380.3 450.44 364.91 450.58C348.29 450.72 336.02 443.1 330.26 428.21C323.5 410.73 323.43 393.21 331.43 375.96C337.64 362.62 348.89 356.9 362.97 356.96C378.29 356.96 390.74 363.09 396.44 378.06C399.65 386.5 400.5 394.76 401.49 404.29V404.25Z" fill="#EF6600"/>
<path d="M355.58 191.15C352.26 189.98 350.27 189.24 348.25 188.57C343.73 187.07 342.25 184.78 344.76 180.01C348.29 173.23 351.16 166.1 354.17 159.01C357.32 151.66 361.86 156.69 365.81 157.7C370.15 158.8 371.5 161.2 369.22 165.7C365.66 172.7 362.8 180.07 359.36 187.15C358.54 188.86 356.64 190.05 355.58 191.15V191.15Z" fill="#EF6600"/>
</svg>
